<?xml version="1.0" standalone="no"?><!DOCTYPE svg PUBLIC "-//W3C//DTD SVG 1.1//EN" "http://www.w3.org/Graphics/SVG/1.1/DTD/svg11.dtd"><svg t="1744272386686" class="icon" viewBox="0 0 1024 1024" version="1.1" xmlns="http://www.w3.org/2000/svg" p-id="2311" width="20" height="20" xmlns:xlink="http://www.w3.org/1999/xlink"><path d="M991.24352 443.008L603.01952 38.912A125.12 125.12 0 0 0 512.07552 0c-34.56 0-66.816 13.824-90.88 38.912L32.84352 443.008c-40.064 41.728-34.944 77.76-28.288 92.8 4.736 10.688 20.672 40.064 66.56 40.064h56.96v310.848c0 70.592 50.624 137.024 122.688 137.024H416.07552v-328.96c0-35.264-5.312-54.912 30.72-54.912h130.56c36.032 0 30.72 19.648 30.72 54.912v328.96h165.248c72.064 0 122.752-66.432 122.752-136.96V575.808h56.896c45.888 0 61.824-29.376 66.56-40.064 6.656-15.04 11.776-51.072-28.288-92.8z" fill="#ffffff" p-id="2312"></path></svg>