<svg width="20" height="20" viewBox="0 0 20 20" fill="none" xmlns="http://www.w3.org/2000/svg">
<g id="&#232;&#180;&#167;&#231;&#137;&#169;&#228;&#188;&#160;&#232;&#190;&#147; 1">
<path id="Vector" d="M1 6.57143H19V15.7143C19 16.0144 18.9418 16.3117 18.8287 16.589C18.7157 16.8663 18.5499 17.1183 18.341 17.3305C18.1321 17.5428 17.884 17.7111 17.611 17.826C17.3381 17.9409 17.0455 18 16.75 18H3.25C2.95453 18 2.66194 17.9409 2.38896 17.826C2.11598 17.7111 1.86794 17.5428 1.65901 17.3305C1.45008 17.1183 1.28434 16.8663 1.17127 16.589C1.0582 16.3117 1 16.0144 1 15.7143V6.57143ZM4.86606 2H15.1339C15.4637 2.00013 15.7895 2.0739 16.0881 2.21609C16.3867 2.35829 16.6509 2.56543 16.8619 2.82286L19 5.42857H1L3.1375 2.82286C3.34869 2.56528 3.61306 2.35805 3.91188 2.21585C4.2107 2.07365 4.53665 1.99996 4.86663 2H4.86606ZM6.0625 10C5.91332 10 5.77024 10.0602 5.66475 10.1674C5.55926 10.2745 5.5 10.4199 5.5 10.5714C5.5 10.723 5.55926 10.8683 5.66475 10.9755C5.77024 11.0827 5.91332 11.1429 6.0625 11.1429H13.9375C14.0867 11.1429 14.2298 11.0827 14.3352 10.9755C14.4407 10.8683 14.5 10.723 14.5 10.5714C14.5 10.4199 14.4407 10.2745 14.3352 10.1674C14.2298 10.0602 14.0867 10 13.9375 10H6.0625ZM6.0625 12.8571C5.91332 12.8571 5.77024 12.9173 5.66475 13.0245C5.55926 13.1317 5.5 13.277 5.5 13.4286C5.5 13.5801 5.55926 13.7255 5.66475 13.8326C5.77024 13.9398 5.91332 14 6.0625 14H13.9375C14.0867 14 14.2298 13.9398 14.3352 13.8326C14.4407 13.7255 14.5 13.5801 14.5 13.4286C14.5 13.277 14.4407 13.1317 14.3352 13.0245C14.2298 12.9173 14.0867 12.8571 13.9375 12.8571H6.0625Z" fill="#E8E8E8"/>
</g>
</svg>
