<svg width="20" height="20" viewBox="0 0 20 20" fill="none" xmlns="http://www.w3.org/2000/svg">
<g id="&#229;&#187;&#186;&#231;&#173;&#145;&#228;&#189;&#143;&#229;&#174;&#133;" clip-path="url(#clip0_129_6765)">
<path id="Vector" d="M10.8333 0.833252H18.3333C18.8333 0.833252 19.1667 1.16659 19.1667 1.66659V18.3333C19.1667 18.8333 18.8333 19.1666 18.3333 19.1666H10.8333C10.3333 19.1666 10 18.8333 10 18.3333V1.66659C10 1.16659 10.3333 0.833252 10.8333 0.833252Z" fill="#2967B2"/>
<path id="Vector_2" d="M11.666 2.5H17.4993V4.16667H11.666V2.5ZM11.666 5.83333H17.4993V7.5H11.666V5.83333ZM11.666 9.16667H17.4993V10.8333H11.666V9.16667ZM11.666 12.5H17.4993V14.1667H11.666V12.5Z" fill="white"/>
<path id="Vector_3" d="M1.41732 7.33316L8.08399 5.33316C8.50065 5.16649 9.00065 5.41649 9.08399 5.91649V18.3332C9.08399 18.8332 8.75065 19.1665 8.25065 19.1665H1.66732C1.16732 19.1665 0.833984 18.8332 0.833984 18.3332V8.08316C0.833984 7.74983 1.08398 7.41649 1.41732 7.33316Z" fill="#2967B2"/>
<path id="Vector_4" d="M2.5 9.16675H7.5V10.8334H2.5V9.16675ZM2.5 12.5001H7.5V14.1667H2.5V12.5001Z" fill="white"/>
</g>
<defs>
<clipPath id="clip0_129_6765">
<rect width="20" height="20" fill="white"/>
</clipPath>
</defs>
</svg>
