<?xml version="1.0" standalone="no"?><!DOCTYPE svg PUBLIC "-//W3C//DTD SVG 1.1//EN" "http://www.w3.org/Graphics/SVG/1.1/DTD/svg11.dtd"><svg t="1744449549529" class="icon" viewBox="0 0 1024 1024" version="1.1" xmlns="http://www.w3.org/2000/svg" p-id="9194" width="24" height="24" xmlns:xlink="http://www.w3.org/1999/xlink"><path d="M456.033 428.077c247.268 0 419.73-62.663 419.73-139.925v-83.925c0-77.253-172.462-139.923-419.73-139.923-247.27 0-391.731 62.67-391.731 139.923v83.925c0.001 77.263 144.461 139.925 391.73 139.925zM405.238 762.847c-169.815-6.303-269-45.056-321.136-96.938-13.303 13.26-19.799 27.348-19.799 41.992v111.923c0 77.254 144.46 139.872 391.73 139.872 24.744 0 48.843-0.774 72.508-2.001-63.523-45.668-108.85-114.799-123.303-194.848zM400.135 706.637c0.296-73.972 26.626-141.805 70.385-194.724-5.311 0.026-10.43 0.087-15.898 0.087C254.16 512 141.13 470.834 84.1 414.06c-13.303 13.285-19.799 27.365-19.799 41.992v111.933c0.001 71.175 122.974 129.894 335.833 138.652zM707.863 456.05c-139.08 0-251.83 112.743-251.83 251.85 0 139.07 112.75 251.795 251.83 251.795 139.081 0 251.833-112.724 251.833-251.795 0-139.107-112.752-251.85-251.833-251.85z m128.094 346.413l-33.522 33.512-94.572-94.572-94.572 94.572-33.52-33.512 94.572-94.58-94.572-94.573 33.52-33.53 94.572 94.58 94.572-94.58 33.522 33.53-94.573 94.572 94.573 94.581z" p-id="9195" fill="#E82190"></path></svg>