<svg width="100" height="100" viewBox="0 0 100 100" fill="none" xmlns="http://www.w3.org/2000/svg">
<g id="Group 1437253795">
<g id="Group 400">
<circle id="Ellipse 25" cx="50" cy="50" r="50" fill="#E7EDFF"/>
</g>
<g id="&#229;&#183;&#178;&#230;&#148;&#175;&#228;&#187;&#152; (1)" clip-path="url(#clip0_96_1303)">
<path id="Vector" d="M53.7309 35.8665H51.8332C51.8332 35.3433 51.6536 34.902 51.2904 34.5428C50.9273 34.1835 50.486 34 49.9667 34L48.0689 34C47.5457 34 47.1044 34.1796 46.7452 34.5428C46.386 34.902 46.2024 35.3433 46.2024 35.8665H44.3047V39.6308H53.727V35.8665H53.7309ZM49.8612 37.5963C49.6309 37.8267 49.3536 37.9439 49.0334 37.9439C48.6937 37.9439 48.4126 37.8267 48.19 37.5963C47.9674 37.366 47.8581 37.0887 47.8581 36.7685C47.8581 36.4288 47.9674 36.1477 48.19 35.9251C48.4126 35.7025 48.6937 35.5932 49.0334 35.5932C49.3536 35.5932 49.6309 35.7025 49.8612 35.9251C50.0916 36.1477 50.2088 36.4288 50.2088 36.7685C50.2088 37.0926 50.0916 37.366 49.8612 37.5963Z" fill="#5B56E4"/>
<path id="Vector_2" d="M47.9471 59.3505C47.9471 59.1904 47.951 59.0381 47.9627 58.8975C47.9744 58.757 47.9783 58.6164 47.9783 58.4758H42.4374C41.9141 58.4758 41.469 58.2884 41.098 57.9174C40.7271 57.5465 40.5396 57.1013 40.5396 56.5781C40.5396 56.0548 40.7271 55.6136 41.098 55.2543C41.469 54.8912 41.9141 54.7116 42.4374 54.7116H49.3333C49.9737 53.708 50.7898 52.8802 51.7699 52.2281C52.7539 51.576 53.8473 51.1504 55.0499 50.9473H42.4374C41.9141 50.9473 41.469 50.7599 41.098 50.3889C40.7271 50.018 40.5396 49.5728 40.5396 49.0496C40.5396 48.5263 40.7271 48.0851 41.098 47.7258C41.469 47.3627 41.9141 47.1831 42.4374 47.1831H55.5927C56.116 47.1831 56.5611 47.3627 56.9321 47.7258C57.303 48.089 57.4905 48.5302 57.4905 49.0496C57.4905 49.4518 57.3733 49.811 57.1429 50.1351C56.9125 50.4553 56.6158 50.6857 56.2565 50.8263H56.4674C57.3694 50.8263 58.2246 50.9551 59.0251 51.2168C59.8295 51.4784 60.5792 51.8376 61.282 52.3023V41.646C61.282 41.1033 61.1649 40.5917 60.9345 40.1114C60.7041 39.6312 60.4074 39.2172 60.0481 38.8775C59.6889 38.5378 59.2789 38.2645 58.8298 38.0653C58.3769 37.8662 57.92 37.7646 57.4592 37.7646H55.5927V41.5289H42.4374V37.7646H40.3014C39.8407 37.7646 39.3994 37.8896 38.9777 38.1395C38.556 38.3894 38.185 38.7057 37.8648 39.0884C37.5446 39.4711 37.283 39.885 37.0839 40.3379C36.8847 40.7909 36.7832 41.2243 36.7832 41.646V60.2837C36.7832 60.7875 36.9121 61.2678 37.1737 61.7285C37.4353 62.1893 37.7594 62.6032 38.1538 62.9625C38.5443 63.3256 38.966 63.6146 39.419 63.8371C39.8719 64.0597 40.2858 64.169 40.6685 64.169H49.4543C48.9741 63.4857 48.6031 62.7399 48.3415 61.9277C48.0798 61.1116 47.9471 60.2525 47.9471 59.3505Z" fill="#5B56E4"/>
<path id="Vector_3" d="M62.6887 56.8198C62.3373 56.0154 61.8609 55.3125 61.2595 54.7112C60.6582 54.1099 59.9553 53.6335 59.1509 53.282C58.3465 52.9306 57.4953 52.7549 56.5933 52.7549C55.6717 52.7549 54.8088 52.9306 54.0044 53.282C53.2 53.6335 52.4971 54.1099 51.8958 54.7112C51.2944 55.3125 50.818 56.0154 50.4666 56.8198C50.1152 57.6242 49.9395 58.4754 49.9395 59.3775C49.9395 60.299 50.1152 61.162 50.4666 61.9664C50.818 62.7707 51.2944 63.4736 51.8958 64.075C52.4971 64.6763 53.2 65.1488 54.0044 65.4885C54.8088 65.8282 55.6717 66 56.5933 66C57.4953 66 58.3504 65.8282 59.1509 65.4885C59.9553 65.1488 60.6582 64.6763 61.2595 64.075C61.8609 63.4736 62.3373 62.7707 62.6887 61.9664C63.0401 61.162 63.2158 60.299 63.2158 59.3775C63.2119 58.4754 63.0401 57.6242 62.6887 56.8198ZM60.3068 58.2568L56.2496 62.2319C55.9607 62.513 55.4921 62.513 55.2032 62.2319L52.8485 59.9241C52.5596 59.643 52.5596 59.1822 52.8485 58.9011C53.1375 58.6199 53.6061 58.6199 53.895 58.9011L55.7264 60.6934L59.2603 57.2337C59.5492 56.9526 60.0178 56.9526 60.3068 57.2337C60.5918 57.5149 60.5918 57.9756 60.3068 58.2568Z" fill="#5B56E4"/>
</g>
</g>
<defs>
<clipPath id="clip0_96_1303">
<rect width="32" height="32" fill="white" transform="translate(34 34)"/>
</clipPath>
</defs>
</svg>
