<svg width="24" height="24" viewBox="0 0 24 24" fill="none" xmlns="http://www.w3.org/2000/svg">
<g id="&#228;&#184;&#170;&#228;&#186;&#186;&#229;&#164;&#180;&#229;&#131;&#143;_o">
<path id="Vector" d="M7.09961 17.2412V18.9004H17.9004V17.2412L15.7588 15.0996H9.24121L7.09961 17.2412ZM12.5 3.90039C15.0552 3.90039 17.0996 5.94477 17.0996 8.5C17.0996 11.0552 15.0552 13.0996 12.5 13.0996C9.94477 13.0996 7.90039 11.0552 7.90039 8.5C7.90039 5.94477 9.94477 3.90039 12.5 3.90039ZM12.5 5.09961C10.6552 5.09961 9.09961 6.65523 9.09961 8.5C9.09961 10.3448 10.6552 11.9004 12.5 11.9004C14.3448 11.9004 15.9004 10.3448 15.9004 8.5C15.9004 6.65523 14.3448 5.09961 12.5 5.09961ZM19.0996 20.0996H5.90039V16.7588L8.75879 13.9004H16.1406L16.1699 13.9277L19.0693 16.7285L19.0996 16.7578V20.0996Z" fill="white" stroke="white" stroke-width="0.2"/>
</g>
</svg>
