<svg width="36" height="36" viewBox="0 0 36 36" fill="none" xmlns="http://www.w3.org/2000/svg">
<g id="&#229;&#183;&#165;&#228;&#189;&#156;&#230;&#181;&#129;">
<path id="Vector" d="M29.55 21.45C29.25 21.15 28.95 20.85 28.65 20.7C28.05 20.4 27.45 20.25 26.7 20.25C26.85 19.5 27 18.75 27 18C27 17.25 26.85 16.5 26.7 15.75C27.3 15.9 28.05 15.75 28.65 15.3C28.95 15.15 29.25 14.85 29.55 14.55C29.85 15.6 30 16.8 30 18C30 19.2 29.85 20.4 29.55 21.45ZM26.7 26.25C25.05 27.9 23.1 29.1 20.7 29.7C20.85 29.4 21 28.95 21 28.5C21 27.75 20.7 27.15 20.4 26.7C21.9 26.25 23.25 25.5 24.3 24.45C24.6 25.05 25.05 25.5 25.5 25.95C25.95 26.1 26.4 26.25 26.7 26.25ZM6.45 14.55C6.75 14.85 7.05 15.15 7.35 15.3C7.95 15.6 8.55 15.75 9.3 15.75C9.15 16.5 9 17.25 9 18C9 18.75 9.15 19.5 9.3 20.25C8.7 20.1 7.95 20.25 7.35 20.7C7.05 20.85 6.75 21.15 6.45 21.45C6.15 20.4 6 19.2 6 18C6 16.8 6.15 15.6 6.45 14.55ZM9.3 9.75C10.95 8.1 12.9 6.9 15.3 6.3C15.15 6.75 15 7.05 15 7.5C15 8.25 15.3 8.85 15.6 9.3C14.1 9.75 12.75 10.5 11.7 11.55C11.4 10.95 10.95 10.5 10.35 10.2C10.05 9.9 9.6 9.75 9.3 9.75ZM9.3 26.25C9.75 26.25 10.05 26.1 10.5 25.8C11.1 25.5 11.55 24.9 11.7 24.3C12.75 25.35 14.1 26.1 15.6 26.55C15.3 27.15 15 27.75 15 28.5C15 28.95 15.15 29.25 15.3 29.7C12.9 29.1 10.8 27.9 9.3 26.25ZM26.7 9.75C26.25 9.75 25.95 9.9 25.5 10.2C24.9 10.5 24.45 11.1 24.3 11.7C23.25 10.65 21.9 9.9 20.4 9.45C20.7 8.85 21 8.25 21 7.5C21 7.05 20.85 6.75 20.7 6.3C23.1 6.9 25.2 8.1 26.7 9.75ZM18 9C17.1 9 16.5 8.4 16.5 7.5C16.5 6.6 17.1 6 18 6C18.9 6 19.5 6.6 19.5 7.5C19.5 8.4 18.9 9 18 9ZM18 30C17.1 30 16.5 29.4 16.5 28.5C16.5 27.6 17.1 27 18 27C18.9 27 19.5 27.6 19.5 28.5C19.5 29.4 18.9 30 18 30ZM25.8 13.5C25.35 12.75 25.65 11.85 26.4 11.4C27 11.1 28.05 11.25 28.35 12C28.65 12.75 28.5 13.65 27.75 14.1C27.15 14.4 26.25 14.25 25.8 13.5ZM7.65 24C7.2 23.25 7.5 22.35 8.25 21.9C9 21.45 9.9 21.75 10.35 22.5C10.8 23.25 10.5 24.15 9.75 24.6C9 25.05 7.95 24.75 7.65 24ZM10.2 13.5C9.75 14.25 8.85 14.4 8.1 14.1C7.5 13.65 7.2 12.75 7.65 12C7.95 11.25 9 11.1 9.6 11.4C10.35 11.85 10.65 12.75 10.2 13.5ZM28.35 24C27.9 24.75 27 24.9 26.25 24.6C25.5 24.3 25.35 23.25 25.65 22.5C25.95 21.75 27 21.6 27.75 21.9C28.5 22.35 28.8 23.25 28.35 24ZM21 15.75C21 17.4 19.65 18.75 18 18.75C16.35 18.75 15 17.4 15 15.75C15 14.1 16.35 12.75 18 12.75C19.65 12.75 21 14.1 21 15.75ZM15 20.25H21V23.25H15V20.25Z" fill="#444444"/>
</g>
</svg>
