<svg width="36" height="36" viewBox="0 0 36 36" fill="none" xmlns="http://www.w3.org/2000/svg">
<g id="&#228;&#184;&#173;&#230;&#142;&#167;">
<path id="Vector" d="M16.8 12.9V12H19.05V12.9C19.35 13.05 19.5 13.2 19.8 13.35L20.7 12.9L21.9 14.85L21 15.3V16.2L21.9 16.65L20.7 18.6L19.8 18.15C19.65 18.3 19.35 18.45 19.05 18.6V19.5H16.8V18.6C16.5 18.45 16.35 18.3 16.05 18.15L15.15 18.6L13.95 16.65L14.85 16.2V15.75V15.3L14.25 14.85L15.45 12.9L16.35 13.35C16.35 13.2 16.65 13.05 16.8 12.9ZM19.5 24V25.5H22.5V28.5H13.5V25.5H16.5V24H6V7.5H30V24H19.5ZM19.5 21H27V10.5H9V21H19.5ZM18 16.5C18.45 16.5 18.75 16.2 18.75 15.75C18.75 15.3 18.45 15 18 15C17.55 15 17.25 15.3 17.25 15.75C17.25 16.2 17.55 16.5 18 16.5Z" fill="#444444"/>
</g>
</svg>
