<svg width="378" height="84" viewBox="0 0 378 84" fill="none" xmlns="http://www.w3.org/2000/svg">
<g id="Group 1437253776">
<g id="Div [button-bg-wrapper]">
<path d="M0 41.9999C0 18.8868 18.7369 0.149902 41.85 0.149902H336.15C359.263 0.149902 378 18.8868 378 41.9999C378 65.113 359.263 83.8499 336.15 83.8499H41.85C18.7369 83.8499 0 65.113 0 41.9999Z" fill="url(#paint0_linear_141_335)"/>
<g id="Div [button-bg-solid]">
<path d="M1.34961 41.9999C1.34961 19.6324 19.4821 1.49991 41.8496 1.49991H336.15C358.517 1.49991 376.65 19.6324 376.65 41.9999C376.65 64.3674 358.517 82.4999 336.15 82.4999H41.8496C19.4821 82.4999 1.34961 64.3674 1.34961 41.9999Z" fill="#70BAFF"/>
</g>
<g id="Div [button-bg-glow]" filter="url(#filter0_i_141_335)">
<path d="M0 41.9999C0 18.8868 18.7369 0.149902 41.85 0.149902H336.15C359.263 0.149902 378 18.8868 378 41.9999C378 65.113 359.263 83.8499 336.15 83.8499H41.85C18.7369 83.8499 0 65.113 0 41.9999Z" fill="white" fill-opacity="0.01"/>
<g id="Image">
<g id="btn-right.85b462f7.svg fill" clip-path="url(#clip0_141_335)">
<g id="btn-right.85b462f7.svg" clip-path="url(#clip1_141_335)">
<g id="Group">
<g id="Group_2">
<path id="Vector" d="M312.775 56.1749C319.485 56.1749 324.925 50.7352 324.925 44.0249C324.925 37.3147 319.485 31.8749 312.775 31.8749C306.065 31.8749 300.625 37.3147 300.625 44.0249C300.625 50.7352 306.065 56.1749 312.775 56.1749Z" stroke="white" stroke-width="2.025"/>
</g>
<path id="Vector_2" d="M311.763 39.9749L316.218 44.4725L311.763 48.8849" stroke="white" stroke-width="2.025"/>
</g>
</g>
</g>
</g>
</g>
</g>
<g id="Div [button-text]">
<path id="&#232;&#191;&#155;&#229;&#133;&#165;&#228;&#187;&#170;&#232;&#161;&#168;&#230;&#157;&#191;" d="M109.914 33.3294H127.177V36.712H109.914V33.3294ZM113.589 29.1012H117.029V38.6074C117.029 39.6183 116.971 40.6972 116.854 41.8442C116.757 42.9717 116.553 44.0992 116.242 45.2267C115.951 46.3542 115.513 47.4234 114.93 48.4343C114.366 49.4452 113.618 50.3394 112.685 51.117C112.529 50.9032 112.286 50.631 111.956 50.3006C111.625 49.9701 111.285 49.6493 110.935 49.3383C110.605 49.0272 110.313 48.8037 110.06 48.6676C111.149 47.7539 111.936 46.7333 112.422 45.6058C112.908 44.4588 113.219 43.2827 113.355 42.0774C113.511 40.8527 113.589 39.6766 113.589 38.5491V29.1012ZM109.681 40.7652H127.76V44.1186H109.681V40.7652ZM108.077 38.9282V50.5338H104.636V42.1649H101.254V38.9282H108.077ZM106.299 48.8717C106.785 48.8717 107.271 49.0467 107.757 49.3966C108.243 49.7271 108.904 50.1256 109.739 50.5922C110.731 51.1559 111.888 51.5156 113.209 51.6711C114.551 51.8072 116.038 51.8752 117.671 51.8752C118.429 51.8752 119.275 51.8655 120.208 51.846C121.16 51.8266 122.123 51.7877 123.095 51.7294C124.086 51.6516 125.039 51.5739 125.952 51.4961C126.866 51.3989 127.692 51.3017 128.431 51.2045C128.314 51.5156 128.178 51.8946 128.023 52.3418C127.867 52.7889 127.731 53.236 127.615 53.6831C127.517 54.1302 127.459 54.519 127.44 54.8495C126.915 54.869 126.244 54.8981 125.428 54.937C124.63 54.9759 123.756 55.005 122.803 55.0245C121.87 55.0634 120.947 55.0925 120.033 55.112C119.119 55.1314 118.283 55.1411 117.525 55.1411C115.678 55.1411 114.094 55.0342 112.772 54.8204C111.47 54.6065 110.284 54.2177 109.215 53.654C108.554 53.2846 107.97 52.925 107.465 52.575C106.96 52.2057 106.542 52.021 106.211 52.021C105.919 52.021 105.589 52.2057 105.22 52.575C104.85 52.9444 104.471 53.4012 104.082 53.9456C103.713 54.5093 103.353 55.0828 103.003 55.666L100.671 52.3418C101.662 51.292 102.663 50.4561 103.674 49.834C104.685 49.1925 105.56 48.8717 106.299 48.8717ZM101.75 30.8217L104.257 28.868C104.782 29.3151 105.336 29.8205 105.919 30.3843C106.522 30.948 107.086 31.5118 107.611 32.0756C108.155 32.6199 108.583 33.1156 108.894 33.5627L106.211 35.7789C105.919 35.3123 105.521 34.7972 105.016 34.2334C104.53 33.6502 103.995 33.0573 103.412 32.4546C102.848 31.852 102.294 31.3077 101.75 30.8217ZM120.354 29.1304H123.824V50.6796H120.354V29.1304ZM135.838 29.9469H144.119V33.5044H135.838V29.9469ZM142.399 29.9469H146.014C146.014 30.88 146.053 31.9395 146.131 33.1253C146.209 34.2917 146.374 35.5456 146.627 36.887C146.88 38.2089 147.259 39.5697 147.764 40.9694C148.27 42.369 148.94 43.759 149.776 45.1392C150.631 46.5 151.701 47.8122 152.984 49.0758C154.267 50.3394 155.803 51.5058 157.591 52.575C157.338 52.7694 157.027 53.0513 156.658 53.4207C156.289 53.79 155.929 54.1691 155.579 54.5579C155.248 54.9662 154.976 55.3258 154.762 55.6368C152.935 54.5093 151.351 53.2457 150.009 51.846C148.668 50.4269 147.541 48.93 146.627 47.3554C145.713 45.7613 144.974 44.1575 144.411 42.544C143.847 40.911 143.419 39.3267 143.128 37.7909C142.836 36.2357 142.642 34.7874 142.544 33.4461C142.447 32.1047 142.399 30.9383 142.399 29.9469ZM141.145 36.3621L145.14 37.0911C144.479 39.9682 143.594 42.5829 142.486 44.9351C141.378 47.2874 140.046 49.3577 138.491 51.1462C136.955 52.9347 135.177 54.4413 133.155 55.666C132.941 55.4133 132.64 55.1022 132.251 54.7329C131.862 54.383 131.454 54.0233 131.026 53.654C130.618 53.304 130.258 53.0222 129.947 52.8083C132.999 51.2726 135.429 49.1147 137.237 46.3348C139.045 43.5354 140.348 40.2112 141.145 36.3621ZM171.967 30.5009C172.395 33.1642 172.978 35.6622 173.716 37.995C174.455 40.3278 175.408 42.4468 176.574 44.3519C177.741 46.257 179.169 47.9192 180.861 49.3383C182.552 50.7574 184.554 51.8849 186.868 52.7208C186.595 52.9541 186.294 53.2457 185.964 53.5956C185.653 53.965 185.351 54.3441 185.06 54.7329C184.788 55.1217 184.564 55.4716 184.389 55.7826C181.92 54.7523 179.801 53.4596 178.032 51.9044C176.283 50.3297 174.805 48.4926 173.6 46.3931C172.395 44.2936 171.393 41.9608 170.596 39.3947C169.819 36.8092 169.168 34.0001 168.643 30.9675L171.967 30.5009ZM173.891 30.2385L176.632 28.8388C177.041 29.4026 177.439 30.0246 177.828 30.705C178.236 31.366 178.596 32.027 178.907 32.6879C179.237 33.3294 179.48 33.9029 179.636 34.4084L176.72 35.983C176.564 35.4776 176.331 34.8944 176.02 34.2334C175.729 33.5724 175.388 32.892 175 32.1922C174.63 31.4729 174.261 30.8217 173.891 30.2385ZM182.056 30.1218L185.555 30.6759C185.05 33.4752 184.399 36.1385 183.602 38.6657C182.824 41.1735 181.794 43.5063 180.511 45.6641C179.228 47.8025 177.604 49.7271 175.641 51.4378C173.697 53.1485 171.316 54.5871 168.497 55.7535C168.341 55.4813 168.137 55.18 167.884 54.8495C167.651 54.519 167.398 54.1886 167.126 53.8581C166.854 53.5276 166.601 53.2554 166.368 53.0416C169.051 52.0113 171.306 50.7282 173.133 49.1925C174.961 47.6567 176.458 45.8974 177.624 43.9145C178.81 41.9122 179.743 39.7544 180.423 37.441C181.104 35.1082 181.648 32.6685 182.056 30.1218ZM165.377 28.4306L168.672 29.4803C168.05 31.1133 167.311 32.7657 166.456 34.4375C165.6 36.0899 164.667 37.6646 163.656 39.1614C162.665 40.6389 161.644 41.9316 160.594 43.0397C160.478 42.7481 160.313 42.3788 160.099 41.9316C159.885 41.4651 159.652 40.9985 159.399 40.532C159.146 40.0654 158.923 39.6863 158.728 39.3947C159.603 38.5005 160.449 37.4702 161.265 36.3038C162.101 35.1374 162.869 33.8835 163.569 32.5421C164.288 31.2008 164.891 29.8302 165.377 28.4306ZM162.548 36.5079L165.843 33.1836L165.872 33.2128V55.666H162.548V36.5079ZM190.163 30.2676H214.074V33.242H190.163V30.2676ZM191.533 34.7291H212.937V37.4993H191.533V34.7291ZM189.084 39.1323H214.978V42.1066H189.084V39.1323ZM200.223 28.3139H203.751V41.6109H200.223V28.3139ZM200.252 40.2112L203.285 41.6692C202.488 42.5051 201.584 43.3119 200.573 44.0895C199.581 44.8671 198.512 45.5961 197.365 46.2765C196.218 46.9374 195.042 47.5401 193.837 48.0844C192.632 48.6093 191.426 49.0564 190.221 49.4258C190.066 49.1536 189.852 48.8426 189.58 48.4926C189.327 48.1427 189.055 47.8025 188.763 47.472C188.491 47.1221 188.228 46.8305 187.976 46.5972C189.123 46.2862 190.289 45.9071 191.475 45.46C192.661 45.0129 193.798 44.5074 194.887 43.9437C195.975 43.3799 196.976 42.787 197.89 42.1649C198.823 41.5428 199.611 40.8916 200.252 40.2112ZM205.297 40.7652C205.802 42.6898 206.512 44.4394 207.425 46.014C208.339 47.5887 209.506 48.93 210.925 50.0381C212.344 51.1268 214.045 51.953 216.028 52.5167C215.775 52.7694 215.503 53.0708 215.211 53.4207C214.92 53.79 214.647 54.1691 214.395 54.5579C214.142 54.9662 213.928 55.3258 213.753 55.6368C211.595 54.8981 209.758 53.8678 208.242 52.5459C206.745 51.2045 205.501 49.6007 204.509 47.7345C203.537 45.8682 202.731 43.7493 202.089 41.3776L205.297 40.7652ZM212.004 42.5148L214.92 44.7018C214.181 45.2267 213.413 45.7516 212.616 46.2765C211.819 46.7819 211.032 47.2582 210.254 47.7053C209.476 48.1524 208.747 48.551 208.067 48.9009L205.88 47.0055C206.521 46.6167 207.212 46.1696 207.95 45.6641C208.708 45.1587 209.437 44.6338 210.137 44.0895C210.857 43.5452 211.479 43.0203 212.004 42.5148ZM191.067 52.4292C192.253 52.2154 193.604 51.9627 195.12 51.6711C196.656 51.36 198.259 51.0296 199.931 50.6796C201.623 50.3297 203.294 49.9701 204.947 49.6007L205.268 52.75C203.751 53.0999 202.206 53.4498 200.631 53.7998C199.076 54.1497 197.569 54.4802 196.111 54.7912C194.673 55.1022 193.341 55.3938 192.116 55.666L191.067 52.4292ZM195.062 46.5098L197.365 44.2061L198.59 44.5269V52.8958H195.062V46.5098ZM231.453 30.0344H244.371V33.3003H231.453V30.0344ZM231.453 37.441H241.455V40.6194H231.453V37.441ZM229.645 30.0344H233.028V38.345C233.028 39.628 232.979 41.0277 232.882 42.544C232.785 44.0409 232.591 45.5766 232.299 47.1513C232.007 48.7259 231.58 50.252 231.016 51.7294C230.472 53.1874 229.752 54.5093 228.858 55.6952C228.664 55.4813 228.391 55.2383 228.042 54.9662C227.711 54.694 227.361 54.4218 226.992 54.1497C226.622 53.897 226.311 53.7123 226.059 53.5956C226.895 52.507 227.546 51.3212 228.012 50.0381C228.498 48.7551 228.858 47.4332 229.091 46.0724C229.325 44.6921 229.47 43.341 229.529 42.0191C229.606 40.6972 229.645 39.4725 229.645 38.345V30.0344ZM235.011 39.7738C235.536 41.7372 236.255 43.584 237.169 45.3142C238.082 47.0249 239.2 48.5315 240.522 49.834C241.863 51.1365 243.428 52.1571 245.217 52.8958C244.945 53.1291 244.663 53.411 244.371 53.7414C244.08 54.0914 243.798 54.451 243.526 54.8204C243.253 55.1897 243.03 55.5299 242.855 55.841C240.969 54.9078 239.336 53.6928 237.956 52.196C236.576 50.6796 235.409 48.93 234.457 46.9472C233.504 44.9643 232.707 42.787 232.066 40.4153L235.011 39.7738ZM240.814 37.441H241.426L242.009 37.3244L244.196 37.995C243.73 40.9888 242.991 43.6229 241.98 45.8974C240.989 48.1719 239.754 50.1159 238.277 51.7294C236.799 53.3429 235.098 54.6746 233.174 55.7243C233.038 55.4522 232.843 55.1411 232.591 54.7912C232.357 54.4413 232.105 54.1011 231.832 53.7706C231.58 53.4401 231.327 53.1777 231.074 52.9833C232.746 52.2057 234.243 51.0976 235.565 49.659C236.906 48.2205 238.024 46.5195 238.918 44.556C239.812 42.5732 240.444 40.4056 240.814 38.0534V37.441ZM217.952 34.35H228.362V37.5868H217.952V34.35ZM221.801 28.3139H225.096V55.6952H221.801V28.3139ZM221.685 36.5954L223.726 37.2952C223.512 38.4616 223.24 39.6669 222.909 40.911C222.579 42.1552 222.2 43.3799 221.772 44.5852C221.364 45.7905 220.907 46.918 220.402 47.9678C219.916 48.9981 219.4 49.8923 218.856 50.6505C218.681 50.1645 218.428 49.6104 218.098 48.9884C217.768 48.3663 217.466 47.8414 217.194 47.4137C217.699 46.7722 218.176 46.0238 218.623 45.1684C219.089 44.313 219.517 43.4091 219.906 42.4565C220.314 41.4845 220.664 40.5028 220.956 39.5114C221.247 38.5005 221.49 37.5285 221.685 36.5954ZM224.98 39.0156C225.155 39.21 225.427 39.56 225.796 40.0654C226.185 40.5708 226.593 41.1152 227.021 41.6984C227.468 42.2816 227.867 42.8162 228.217 43.3022C228.566 43.7882 228.809 44.1381 228.946 44.3519L226.992 47.0638C226.797 46.6167 226.545 46.0918 226.234 45.4892C225.942 44.8865 225.621 44.2839 225.271 43.6812C224.921 43.0592 224.581 42.476 224.251 41.9316C223.92 41.3679 223.648 40.9013 223.434 40.532L224.98 39.0156Z" fill="white"/>
</g>
</g>
<defs>
<filter id="filter0_i_141_335" x="0" y="0.149902" width="378" height="83.7" filterUnits="userSpaceOnUse" color-interpolation-filters="sRGB">
<feFlood flood-opacity="0" result="BackgroundImageFix"/>
<feBlend mode="normal" in="SourceGraphic" in2="BackgroundImageFix" result="shape"/>
<feColorMatrix in="SourceAlpha" type="matrix" values="0 0 0 0 0 0 0 0 0 0 0 0 0 0 0 0 0 0 127 0" result="hardAlpha"/>
<feMorphology radius="1.35" operator="erode" in="SourceAlpha" result="effect1_innerShadow_141_335"/>
<feOffset/>
<feGaussianBlur stdDeviation="27"/>
<feComposite in2="hardAlpha" operator="arithmetic" k2="-1" k3="1"/>
<feColorMatrix type="matrix" values="0 0 0 0 0.14902 0 0 0 0 0.526013 0 0 0 0 0.956863 0 0 0 0.3 0"/>
<feBlend mode="normal" in2="shape" result="effect1_innerShadow_141_335"/>
</filter>
<linearGradient id="paint0_linear_141_335" x1="189" y1="0.149902" x2="189" y2="83.8499" gradientUnits="userSpaceOnUse">
<stop stop-color="#264FF4"/>
<stop offset="1" stop-color="#26F4E6" stop-opacity="0.1"/>
</linearGradient>
<clipPath id="clip0_141_335">
<rect width="26.325" height="26.325" fill="white" transform="translate(299.613 30.8624)"/>
</clipPath>
<clipPath id="clip1_141_335">
<rect width="26.325" height="26.325" fill="white" transform="translate(299.613 30.8624)"/>
</clipPath>
</defs>
</svg>
