<svg width="378" height="84" viewBox="0 0 378 84" fill="none" xmlns="http://www.w3.org/2000/svg">
<g id="Group 1437253776">
<g id="Div [button-bg-wrapper]">
<path d="M0 41.9999C0 18.8868 18.7369 0.149902 41.85 0.149902H336.15C359.263 0.149902 378 18.8868 378 41.9999C378 65.113 359.263 83.8499 336.15 83.8499H41.85C18.7369 83.8499 0 65.113 0 41.9999Z" fill="url(#paint0_linear_25_308)"/>
<g id="Div [button-bg-solid]">
<path d="M1.34961 42C1.34961 19.6325 19.4821 1.5 41.8496 1.5H336.15C358.517 1.5 376.65 19.6325 376.65 42C376.65 64.3675 358.517 82.5 336.15 82.5H41.8496C19.4821 82.5 1.34961 64.3675 1.34961 42Z" fill="#70BAFF"/>
</g>
<g id="Div [button-bg-glow]" filter="url(#filter0_i_25_308)">
<path d="M0 41.9999C0 18.8868 18.7369 0.149902 41.85 0.149902H336.15C359.263 0.149902 378 18.8868 378 41.9999C378 65.113 359.263 83.8499 336.15 83.8499H41.85C18.7369 83.8499 0 65.113 0 41.9999Z" fill="white" fill-opacity="0.01"/>
<g id="Image">
<g id="btn-right.85b462f7.svg fill" clip-path="url(#clip0_25_308)">
<g id="btn-right.85b462f7.svg" clip-path="url(#clip1_25_308)">
<g id="Group">
<g id="Group_2">
<path id="Vector" d="M312.775 56.1748C319.485 56.1748 324.925 50.735 324.925 44.0248C324.925 37.3145 319.485 31.8748 312.775 31.8748C306.065 31.8748 300.625 37.3145 300.625 44.0248C300.625 50.735 306.065 56.1748 312.775 56.1748Z" stroke="white" stroke-width="2.025"/>
</g>
<path id="Vector_2" d="M311.764 39.9749L316.219 44.4724L311.764 48.8848" stroke="white" stroke-width="2.025"/>
</g>
</g>
</g>
</g>
</g>
</g>
<g id="Div [button-text]">
<path id="Enter dashboard" d="M65.1805 48.8853V53.0999H51.0988V32.554H65.1805V36.7685H56.3243V40.8549H64.6537V44.6993H56.3243V48.8853H65.1805ZM67.7861 53.0999V37.5944H72.6983V40.5132H72.798C73.5953 38.4487 75.2185 37.2954 77.5963 37.2954C81.0562 37.2954 82.9784 39.4596 82.9784 43.1473V53.0999H77.938V44.2294C77.938 42.4639 77.0979 41.4102 75.4463 41.4102C73.8374 41.4102 72.8407 42.6205 72.8407 44.3291V53.0999H67.7861ZM86.6234 34.1202H91.6779V37.5944H94.4687V41.3106H91.6779V47.8175C91.6779 48.8853 92.2475 49.4264 93.4577 49.4264C93.8564 49.4264 94.1554 49.4121 94.4544 49.3552V52.9432C93.9703 53.0429 93.2299 53.1283 92.2475 53.1283C88.218 53.1283 86.6234 51.8896 86.6234 48.8426V41.3106H84.5161V37.5944H86.6234V34.1202ZM106.685 48.2019H111.241C110.757 51.4055 107.91 53.47 103.852 53.47C98.911 53.47 95.9637 50.4373 95.9637 45.4254C95.9637 40.4135 98.9395 37.2242 103.681 37.2242C108.351 37.2242 111.327 40.2854 111.327 45.0267V46.4506H100.862V46.7638C100.862 48.6148 102.1 49.8962 103.923 49.8962C105.276 49.8962 106.329 49.2555 106.685 48.2019ZM103.766 40.8122C102.214 40.8122 101.061 41.9655 100.933 43.5744H106.571C106.486 41.9228 105.361 40.8122 103.766 40.8122ZM113.292 53.0999V37.5944H118.204V40.5275H118.304C118.873 38.4344 120.126 37.3666 121.949 37.3666C122.461 37.3666 122.888 37.4377 123.23 37.5659V41.8658C122.803 41.695 122.219 41.5811 121.621 41.5811C119.5 41.5811 118.346 42.7771 118.346 44.9413V53.0999H113.292ZM136.144 53.3277C132.286 53.3277 129.965 50.3234 129.965 45.3115C129.965 40.3566 132.328 37.3666 136.201 37.3666C138.451 37.3666 140.159 38.591 140.843 40.3281H140.942V32.554H145.983V53.0999H140.971V50.4373H140.871C140.245 52.0889 138.451 53.3277 136.144 53.3277ZM138.038 41.3106C136.23 41.3106 135.133 42.8625 135.133 45.3542C135.133 47.8602 136.215 49.3837 138.038 49.3837C139.86 49.3837 140.957 47.8744 140.957 45.3542C140.957 42.8625 139.846 41.3106 138.038 41.3106ZM153.088 53.3277C150.212 53.3277 147.876 51.4197 147.876 48.6148C147.876 45.7102 150.112 44.087 154.127 43.845L157.758 43.6314V42.7486C157.758 41.5099 156.875 40.8265 155.551 40.8265C154.184 40.8265 153.315 41.5384 153.173 42.4923H148.631C148.773 39.3172 151.479 37.2242 155.807 37.2242C159.951 37.2242 162.698 39.3457 162.698 42.4639V53.0999H157.786V50.8929H157.687C156.847 52.4591 154.953 53.3277 153.088 53.3277ZM154.882 49.8535C156.419 49.8535 157.758 48.9138 157.758 47.5327V46.4648L154.939 46.6499C153.614 46.7496 152.874 47.3618 152.874 48.2731C152.874 49.2555 153.686 49.8535 154.882 49.8535ZM164.863 42.293C164.863 39.1891 167.511 37.2242 171.754 37.2242C176.026 37.2242 178.588 39.303 178.674 42.4923H174.061C173.961 41.396 173.149 40.6271 171.754 40.6271C170.53 40.6271 169.704 41.1682 169.704 42.0082C169.704 42.6774 170.159 43.1046 171.64 43.4036L174.374 43.9446C177.677 44.5854 179.101 45.8668 179.101 48.1876C179.101 51.4055 176.196 53.47 171.939 53.47C167.326 53.47 164.763 51.3913 164.493 48.2731H169.39C169.604 49.4264 170.473 50.0671 171.939 50.0671C173.278 50.0671 174.103 49.5545 174.103 48.7429C174.103 48.0453 173.605 47.6751 172.195 47.3903L169.476 46.8492C166.429 46.2512 164.863 44.6566 164.863 42.293ZM180.98 53.0999V32.554H185.921V40.5132H186.021C186.818 38.4344 188.513 37.2954 190.876 37.2954C194.336 37.2954 196.258 39.4881 196.258 43.1473V53.0999H191.218V44.2436C191.218 42.4923 190.349 41.4102 188.683 41.4102C186.989 41.4102 186.035 42.6205 186.035 44.3575V53.0999H180.98ZM208.603 53.3277C206.325 53.3277 204.63 52.2313 203.847 50.4373H203.747V53.0999H198.721V32.554H203.776V40.3424H203.876C204.659 38.4771 206.353 37.3666 208.56 37.3666C212.476 37.3666 214.739 40.2854 214.739 45.3542C214.739 50.4088 212.49 53.3277 208.603 53.3277ZM206.666 41.3106C204.915 41.3106 203.762 42.9052 203.747 45.3542C203.762 47.8317 204.901 49.3837 206.666 49.3837C208.46 49.3837 209.585 47.8175 209.585 45.3542C209.585 42.891 208.446 41.3106 206.666 41.3106ZM224.179 53.47C219.296 53.47 216.249 50.5085 216.249 45.34C216.249 40.2712 219.367 37.2242 224.179 37.2242C229.02 37.2242 232.11 40.2569 232.11 45.34C232.11 50.5227 229.063 53.47 224.179 53.47ZM224.179 49.7681C225.902 49.7681 226.999 48.1876 226.999 45.3542C226.999 42.5635 225.902 40.9261 224.179 40.9261C222.471 40.9261 221.374 42.5635 221.374 45.3542C221.374 48.1876 222.442 49.7681 224.179 49.7681ZM238.688 53.3277C235.812 53.3277 233.477 51.4197 233.477 48.6148C233.477 45.7102 235.712 44.087 239.728 43.845L243.358 43.6314V42.7486C243.358 41.5099 242.476 40.8265 241.151 40.8265C239.785 40.8265 238.916 41.5384 238.774 42.4923H234.232C234.374 39.3172 237.079 37.2242 241.408 37.2242C245.551 37.2242 248.299 39.3457 248.299 42.4639V53.0999H243.387V50.8929H243.287C242.447 52.4591 240.553 53.3277 238.688 53.3277ZM240.482 49.8535C242.02 49.8535 243.358 48.9138 243.358 47.5327V46.4648L240.539 46.6499C239.215 46.7496 238.475 47.3618 238.475 48.2731C238.475 49.2555 239.286 49.8535 240.482 49.8535ZM250.72 53.0999V37.5944H255.632V40.5275H255.731C256.301 38.4344 257.554 37.3666 259.376 37.3666C259.889 37.3666 260.316 37.4377 260.658 37.5659V41.8658C260.231 41.695 259.647 41.5811 259.049 41.5811C256.927 41.5811 255.774 42.7771 255.774 44.9413V53.0999H250.72ZM267.506 53.3277C263.648 53.3277 261.327 50.3234 261.327 45.3115C261.327 40.3566 263.691 37.3666 267.563 37.3666C269.813 37.3666 271.522 38.591 272.205 40.3281H272.305V32.554H277.345V53.0999H272.333V50.4373H272.234C271.607 52.0889 269.813 53.3277 267.506 53.3277ZM269.4 41.3106C267.592 41.3106 266.496 42.8625 266.496 45.3542C266.496 47.8602 267.578 49.3837 269.4 49.3837C271.223 49.3837 272.319 47.8744 272.319 45.3542C272.319 42.8625 271.208 41.3106 269.4 41.3106Z" fill="white"/>
</g>
</g>
<defs>
<filter id="filter0_i_25_308" x="0" y="0.149902" width="378" height="83.7" filterUnits="userSpaceOnUse" color-interpolation-filters="sRGB">
<feFlood flood-opacity="0" result="BackgroundImageFix"/>
<feBlend mode="normal" in="SourceGraphic" in2="BackgroundImageFix" result="shape"/>
<feColorMatrix in="SourceAlpha" type="matrix" values="0 0 0 0 0 0 0 0 0 0 0 0 0 0 0 0 0 0 127 0" result="hardAlpha"/>
<feMorphology radius="1.35" operator="erode" in="SourceAlpha" result="effect1_innerShadow_25_308"/>
<feOffset/>
<feGaussianBlur stdDeviation="27"/>
<feComposite in2="hardAlpha" operator="arithmetic" k2="-1" k3="1"/>
<feColorMatrix type="matrix" values="0 0 0 0 0.14902 0 0 0 0 0.526013 0 0 0 0 0.956863 0 0 0 0.3 0"/>
<feBlend mode="normal" in2="shape" result="effect1_innerShadow_25_308"/>
</filter>
<linearGradient id="paint0_linear_25_308" x1="189" y1="0.149902" x2="189" y2="83.8499" gradientUnits="userSpaceOnUse">
<stop stop-color="#264FF4"/>
<stop offset="1" stop-color="#26F4E6" stop-opacity="0.1"/>
</linearGradient>
<clipPath id="clip0_25_308">
<rect width="26.325" height="26.325" fill="white" transform="translate(299.613 30.8623)"/>
</clipPath>
<clipPath id="clip1_25_308">
<rect width="26.325" height="26.325" fill="white" transform="translate(299.613 30.8623)"/>
</clipPath>
</defs>
</svg>
