<svg width="925" height="84" viewBox="0 0 925 84" fill="none" xmlns="http://www.w3.org/2000/svg">
<g id="Group 1437253777">
<g id="Group 1437253769">
<g id="&#229;&#155;&#189;&#229;&#134;&#133;&#228;&#186;&#164;&#230;&#152;&#147;&#228;&#184;&#128;&#232;&#136;&#172;&#230;&#148;&#175;&#228;&#187;&#152;&#229;&#185;&#179;&#229;&#143;&#176;">
<g id="Group 383">
<path id="path3789" d="M398.501 24.3999C391.116 24.3999 384.517 28.2358 384.517 35.3229C384.517 43.4504 396.221 44.0118 396.221 48.0949C396.221 49.8141 394.255 51.353 390.897 51.353C386.132 51.353 382.571 49.2026 382.571 49.2026L381.047 56.3543C381.047 56.3543 385.15 58.1707 390.597 58.1707C398.67 58.1707 405.023 54.1465 405.023 46.9382C405.023 38.35 393.271 37.8053 393.271 34.0155C393.271 32.6688 394.884 31.1932 398.232 31.1932C402.01 31.1932 405.092 32.7571 405.092 32.7571L406.584 25.8498C406.584 25.8498 403.23 24.3999 398.501 24.3999ZM330.941 24.9212L330.762 25.9638C330.762 25.9638 333.868 26.5336 336.666 27.6703C340.269 28.9737 340.526 29.7324 341.132 32.0892L347.744 57.6331H356.607L370.262 24.9212H361.419L352.645 47.1622L349.065 28.3097C348.737 26.152 347.073 24.9212 345.038 24.9212H330.941ZM373.817 24.9212L366.881 57.6331H375.313L382.225 24.9212H373.817ZM420.847 24.9212C418.814 24.9212 417.737 26.0122 416.946 27.9187L404.592 57.6331H413.435L415.146 52.6807H425.919L426.959 57.6331H434.762L427.955 24.9212H420.847ZM421.997 33.759L424.619 46.0341H417.596L421.997 33.759Z" fill="black"/>
</g>
</g>
<g id="&#229;&#155;&#189;&#229;&#134;&#133;&#228;&#186;&#164;&#230;&#152;&#147;&#228;&#184;&#128;&#232;&#136;&#172;&#230;&#148;&#175;&#228;&#187;&#152;&#229;&#185;&#179;&#229;&#143;&#176;_2">
<g id="Group 378">
<g id="g13">
<g id="g15">
<path id="Vector" d="M524.811 73.8575V69.6097C524.811 67.9814 523.83 66.9187 522.149 66.9187C521.684 66.9004 521.222 67.001 520.806 67.2112C520.39 67.4215 520.033 67.7346 519.769 68.1214C519.539 67.7337 519.209 67.4168 518.814 67.2048C518.419 66.9929 517.974 66.894 517.528 66.9187C517.144 66.9022 516.763 66.9845 516.42 67.1579C516.077 67.3313 515.783 67.5901 515.566 67.91V67.053H514.094V73.8489H515.566V70.0953C515.566 68.8927 516.196 68.327 517.177 68.327C518.158 68.327 518.647 68.9641 518.647 70.0953V73.8489H520.119V70.0953C520.119 68.8927 520.817 68.327 521.73 68.327C522.711 68.327 523.2 68.9641 523.2 70.0953V73.8489L524.811 73.8575ZM546.593 67.0616H544.213V65.0076H542.741V67.0616H541.412V68.4042H542.741V71.5208C542.741 73.0776 543.371 73.9975 545.053 73.9975C545.691 73.9847 546.317 73.8151 546.876 73.5033L546.455 72.2292C546.077 72.4676 545.639 72.5907 545.194 72.5834C544.493 72.5834 544.213 72.1578 544.213 71.4408V68.3956H546.593V67.0616ZM559.062 66.9187C558.709 66.9109 558.361 66.9986 558.053 67.1729C557.745 67.3473 557.488 67.6017 557.31 67.91V67.053H555.841V73.8489H557.31V70.0239C557.31 68.8812 557.802 68.2556 558.723 68.2556C559.031 68.2688 559.336 68.3157 559.633 68.3956L560.055 66.9673C559.731 66.908 559.402 66.8841 559.074 66.8959L559.062 66.9187ZM540.217 67.6272C539.516 67.1301 538.521 66.9187 537.487 66.9187C535.791 66.9187 534.683 67.7757 534.683 69.1126C534.683 70.2553 535.531 70.8837 536.995 71.0951L537.696 71.1666C538.467 71.3094 538.886 71.5208 538.886 71.875C538.886 72.3692 538.321 72.732 537.345 72.732C536.544 72.7364 535.761 72.4888 535.104 72.0235L534.403 73.1662C535.25 73.7438 536.253 74.0431 537.275 74.0232C539.236 74.0232 540.358 73.1033 540.358 71.8293C540.358 70.6266 539.448 69.9896 538.046 69.7754L537.345 69.7068C536.715 69.6354 536.215 69.4925 536.215 69.0698C536.215 68.5727 536.704 68.2899 537.475 68.2899C538.208 68.3245 538.925 68.5194 539.575 68.8612L540.206 67.6586L540.217 67.6272ZM579.301 66.9187C578.948 66.9109 578.6 66.9986 578.292 67.1729C577.983 67.3473 577.727 67.6017 577.549 67.91V67.053H576.079V73.8489H577.549V70.0239C577.549 68.8812 578.041 68.2556 578.962 68.2556C579.27 68.2688 579.575 68.3157 579.872 68.3956L580.293 66.9673C579.97 66.908 579.641 66.8841 579.313 66.8959L579.301 66.9187ZM560.529 70.4581C560.529 72.512 561.942 73.9975 564.102 73.9975C564.964 74.0451 565.812 73.7683 566.484 73.2205L565.783 72.015C565.287 72.4213 564.67 72.6458 564.031 72.652C562.841 72.652 562.002 71.795 562.002 70.4581C561.988 70.1782 562.03 69.8983 562.125 69.6351C562.22 69.3719 562.367 69.1307 562.556 68.926C562.745 68.7213 562.974 68.5572 563.227 68.4435C563.48 68.3298 563.754 68.2688 564.031 68.2642C564.67 68.2704 565.287 68.4949 565.783 68.9012L566.501 67.6872C565.83 67.1373 564.981 66.8593 564.119 66.9073C561.948 66.9073 560.546 68.3928 560.546 70.4467L560.529 70.4581ZM574.118 70.4581V67.0616H572.648V67.9186C572.401 67.5966 572.081 67.3388 571.715 67.1665C571.35 66.9941 570.949 66.9121 570.546 66.9273C568.655 66.9273 567.185 68.4127 567.185 70.4667C567.185 72.5206 568.655 74.006 570.546 74.006C571.526 74.006 572.227 73.6518 572.648 73.0148V73.8718H574.132V70.4724L574.118 70.4581ZM568.726 70.4581C568.726 69.2554 569.494 68.2642 570.758 68.2642C571.947 68.2642 572.787 69.184 572.787 70.4581C572.787 71.6607 571.939 72.652 570.758 72.652C570.48 72.6485 570.206 72.5884 569.952 72.4751C569.697 72.3619 569.469 72.1978 569.279 71.9929C569.089 71.788 568.942 71.5464 568.847 71.2826C568.752 71.0189 568.711 70.7384 568.726 70.4581ZM551.143 66.9187C549.182 66.9187 547.783 68.347 547.783 70.4581C547.783 72.5691 549.196 73.9975 551.214 73.9975C552.203 74.0184 553.168 73.6934 553.947 73.0776L553.246 72.015C552.684 72.4564 551.996 72.7046 551.285 72.7234C550.375 72.7234 549.464 72.3006 549.253 71.0951H554.227V70.5238C554.297 68.3299 553.034 66.913 551.143 66.913V66.9187ZM551.143 68.1928C552.056 68.1928 552.686 68.7641 552.839 69.8211H549.326C549.368 69.3665 549.579 68.9451 549.917 68.6426C550.255 68.3401 550.695 68.1792 551.146 68.1928H551.143ZM587.636 70.4581V64.3706H586.166V67.91C585.919 67.5881 585.599 67.3303 585.233 67.1579C584.868 66.9856 584.467 66.9036 584.064 66.9187C582.173 66.9187 580.703 68.4042 580.703 70.4581C580.703 72.512 582.173 73.9975 584.064 73.9975C585.044 73.9975 585.759 73.6432 586.166 73.0062V73.8632H587.636V70.4638V70.4581ZM582.244 70.4581C582.244 69.2554 583.012 68.2642 584.276 68.2642C585.465 68.2642 586.305 69.184 586.305 70.4581C586.305 71.6607 585.457 72.652 584.276 72.652C583.998 72.6485 583.724 72.5884 583.47 72.4751C583.216 72.3619 582.987 72.1978 582.797 71.9929C582.607 71.788 582.46 71.5464 582.365 71.2826C582.27 71.0189 582.229 70.7384 582.244 70.4581ZM533.066 70.4581V67.0616H531.597V67.9186C531.349 67.5966 531.029 67.3388 530.664 67.1665C530.298 66.9941 529.897 66.9121 529.494 66.9273C527.603 66.9273 526.134 68.4127 526.134 70.4667C526.134 72.5206 527.603 74.006 529.494 74.006C530.475 74.006 531.176 73.6518 531.597 73.0148V73.8718H533.066V70.4724V70.4581ZM527.603 70.4581C527.603 69.2554 528.375 68.2642 529.635 68.2642C530.825 68.2642 531.667 69.184 531.667 70.4581C531.667 71.6607 530.82 72.652 529.635 72.652C529.359 72.647 529.085 72.5857 528.833 72.4718C528.58 72.3579 528.352 72.1937 528.163 71.989C527.974 71.7843 527.828 71.5432 527.733 71.2802C527.639 71.0172 527.597 70.7376 527.612 70.4581H527.603Z" fill="black"/>
</g>
<path id="rect19" d="M561.795 15.4507H539.73V55.5207H561.795V15.4507Z" fill="#FF5F00"/>
<path id="Vector_2" d="M541.13 35.484C541.133 31.6283 541.999 27.8232 543.663 24.3538C545.327 20.8844 547.746 17.8406 550.74 15.4504C547.02 12.4942 542.553 10.6555 537.848 10.1445C533.143 9.63343 528.391 10.4707 524.135 12.5606C519.879 14.6505 516.29 17.9087 513.78 21.9626C511.269 26.0166 509.938 30.7028 509.938 35.4854C509.938 40.2681 511.269 44.9543 513.78 49.0082C516.29 53.0622 519.879 56.3203 524.135 58.4102C528.391 60.5001 533.143 61.3374 537.848 60.8264C542.553 60.3154 547.02 58.4766 550.74 55.5204C547.741 53.135 545.317 50.0917 543.652 46.6206C541.988 43.1495 541.125 39.3414 541.13 35.484Z" fill="#EB001B"/>
<path id="path22" d="M591.563 35.484C591.568 40.2645 590.241 44.9499 587.734 49.0038C585.227 53.0578 581.642 56.3165 577.389 58.4071C573.135 60.4977 568.385 61.3357 563.682 60.8252C558.98 60.3147 554.514 58.4763 550.797 55.5204C553.789 53.1297 556.207 50.0853 557.869 46.6155C559.532 43.1457 560.395 39.3406 560.395 35.4854C560.395 31.6302 559.532 27.825 557.869 24.3552C556.207 20.8854 553.789 17.8411 550.797 15.4504C554.514 12.4947 558.979 10.6563 563.682 10.1457C568.384 9.63507 573.134 10.4728 577.387 12.563C581.641 14.6533 585.226 17.9116 587.733 21.9651C590.24 26.0187 591.567 30.7036 591.563 35.484Z" fill="#F79E1B"/>
</g>
</g>
</g>
<g id="&#229;&#155;&#189;&#229;&#134;&#133;&#228;&#186;&#164;&#230;&#152;&#147;&#228;&#184;&#128;&#232;&#136;&#172;&#230;&#148;&#175;&#228;&#187;&#152;&#229;&#185;&#179;&#229;&#143;&#176;_3">
<g id="Group 379">
<g id="g6327">
<path id="path6338" d="M740.24 49.8295H746.358C746.534 49.8295 746.943 49.7701 747.116 49.7701C747.739 49.6327 748.295 49.2752 748.689 48.7597C749.083 48.2442 749.289 47.603 749.273 46.947C749.271 46.2957 749.058 45.6636 748.667 45.1518C748.276 44.64 747.73 44.2781 747.116 44.124C746.867 44.0694 746.612 44.0484 746.358 44.0613H740.24V49.8295Z" fill="url(#paint0_linear_25_323)"/>
<path id="path6349" d="M745.66 10C742.846 10.0009 740.149 11.1535 738.159 13.2043C736.17 15.2551 735.053 18.0362 735.053 20.9361V32.2877H750.03C750.381 32.2756 750.733 32.2966 751.08 32.3504C754.459 32.5285 756.967 34.3292 756.967 37.4556C756.967 39.9192 755.275 42.02 752.129 42.4422V42.5609C755.566 42.8017 758.19 44.7837 758.19 47.8377C758.19 51.1356 755.275 53.3057 751.429 53.3057H734.992V75.5307H750.555C753.367 75.5307 756.063 74.3803 758.052 72.3321C760.041 70.2839 761.159 67.5057 761.162 64.6079V10H745.66Z" fill="url(#paint1_linear_25_323)"/>
<path id="path6360" d="M748.514 38.1744C748.526 37.546 748.312 36.9352 747.915 36.4588C747.517 35.9825 746.963 35.6739 746.358 35.5921C746.243 35.5921 745.952 35.5327 745.776 35.5327H740.24V40.8095H745.776C745.972 40.8259 746.169 40.8058 746.358 40.7501C746.961 40.6684 747.515 40.3608 747.912 39.8858C748.31 39.4109 748.524 38.8017 748.514 38.1744Z" fill="url(#paint2_linear_25_323)"/>
</g>
<path id="path6371" d="M687.027 10.0002C684.213 10.0011 681.516 11.1537 679.526 13.2045C677.537 15.2553 676.42 18.0365 676.42 20.9363V47.9072C679.392 49.411 682.483 50.3707 685.571 50.3707C689.244 50.3707 691.225 48.0886 691.225 44.9654V32.222H700.302V44.8961C700.302 49.8233 697.33 53.8501 687.248 53.8501C683.574 53.8524 679.913 53.3883 676.35 52.4683V75.4749H691.909C693.304 75.478 694.686 75.1974 695.976 74.6494C697.265 74.1014 698.438 73.2966 699.425 72.2812C700.413 71.2657 701.196 70.0595 701.731 68.7315C702.266 67.4036 702.541 65.98 702.542 64.5421V9.99365L687.027 10.0002Z" fill="url(#paint3_linear_25_323)"/>
<path id="path6384" d="M716.344 10C713.531 10.0017 710.834 11.1547 708.846 13.2054C706.857 15.2562 705.74 18.0368 705.74 20.9361V35.2328C708.422 32.8879 713.099 31.3874 720.603 31.7468C723.413 31.9303 726.203 32.3718 728.938 33.066V37.6832C726.449 36.3108 723.709 35.4917 720.894 35.279C715.182 34.8601 711.746 37.7426 711.746 42.7885C711.746 47.8937 715.182 50.7794 720.894 50.2979C724.218 50.0572 726.781 48.9788 728.938 47.8937V52.5109C726.204 53.2113 723.414 53.6528 720.603 53.8301C713.087 54.1896 708.422 52.6857 705.74 50.3441V75.5736H721.303C724.116 75.5736 726.814 74.4218 728.803 72.3715C730.793 70.3212 731.91 67.5404 731.91 64.6408V10H716.344Z" fill="url(#paint4_linear_25_323)"/>
</g>
</g>
<g id="Group 5">
<g id="Group 3">
<path id="Vector_3" d="M839.466 10.0063H865.854C869.538 10.0063 871.829 13.0087 870.969 16.7045L858.684 69.451C857.817 73.1339 854.129 76.1389 850.443 76.1389H824.057C820.379 76.1389 818.083 73.1339 818.942 69.451L831.233 16.7045C832.092 13.0087 835.778 10.0063 839.466 10.0063Z" fill="#E21836"/>
<path id="Vector_4" d="M863.658 10H894.003C897.686 10 896.026 13.0024 895.159 16.6982L882.876 69.4447C882.014 73.1276 882.283 76.1325 878.592 76.1325H848.246C844.556 76.1325 842.272 73.1276 843.139 69.4447L855.422 16.6982C856.294 13.0024 859.972 10 863.658 10Z" fill="#00447C"/>
<path id="Vector_5" d="M892.797 10H919.185C922.874 10 925.165 13.0024 924.299 16.6982L912.015 69.4447C911.148 73.1276 907.457 76.1325 903.769 76.1325H877.393C873.703 76.1325 871.414 73.1276 872.278 69.4447L884.564 16.6982C885.423 13.0024 889.107 10 892.797 10Z" fill="#007B84"/>
<path id="Vector_6" d="M846.358 26.9056C843.645 26.9333 842.843 26.9056 842.587 26.8452C842.489 27.3128 840.658 35.7598 840.652 35.7668C840.258 37.4758 839.971 38.694 838.997 39.4806C838.444 39.9379 837.798 40.1585 837.049 40.1585C835.846 40.1585 835.145 39.561 835.027 38.4277L835.005 38.0386C835.005 38.0386 835.371 35.7495 835.371 35.7366C835.371 35.7366 837.293 28.0389 837.637 27.0214C837.655 26.9635 837.66 26.9333 837.665 26.9056C833.924 26.9384 833.261 26.9056 833.215 26.8452C833.19 26.9281 833.098 27.4054 833.098 27.4054L831.135 36.0813L830.967 36.8172L830.641 39.224C830.641 39.9379 830.781 40.5206 831.06 41.0133C831.954 42.5756 834.504 42.8097 835.947 42.8097C837.806 42.8097 839.549 42.4148 840.728 41.6938C842.773 40.4852 843.308 38.5962 843.785 36.9175L844.007 36.0563C844.007 36.0563 845.986 28.0614 846.323 27.0214C846.336 26.9635 846.341 26.9333 846.358 26.9056ZM853.094 33.3551C852.617 33.3551 851.745 33.4709 850.961 33.8549C850.677 34.0009 850.408 34.1694 850.125 34.3373L850.38 33.413L850.24 33.2574C848.579 33.5938 848.207 33.6388 846.673 33.8549L846.544 33.9404C846.366 35.4178 846.207 36.5286 845.547 39.4326C845.295 40.5029 845.034 41.5834 844.773 42.6511L844.843 42.7868C846.416 42.7039 846.893 42.7039 848.26 42.7264L848.371 42.6061C848.544 41.7166 848.567 41.5082 848.951 39.7066C849.132 38.8525 849.509 36.9756 849.695 36.3074C850.036 36.1491 850.373 35.9935 850.695 35.9935C851.461 35.9935 851.368 36.6618 851.338 36.928C851.305 37.3751 851.026 38.8351 850.74 40.0887L850.549 40.8978C850.416 41.4953 850.27 42.0761 850.137 42.6685L850.195 42.7868C851.745 42.7039 852.217 42.7039 853.541 42.7264L853.697 42.6061C853.936 41.2168 854.006 40.845 854.431 38.8222L854.644 37.8928C855.059 36.0739 855.267 35.1516 854.954 34.4003C854.622 33.5584 853.825 33.3551 853.094 33.3551ZM860.619 35.2595C859.795 35.4178 859.269 35.5232 858.747 35.5914C858.229 35.6744 857.725 35.7497 856.928 35.8603L856.865 35.9175L856.807 35.9632C856.724 36.5562 856.667 37.0688 856.557 37.6715C856.463 38.2947 856.32 39.0029 856.086 40.0204C855.906 40.7993 855.812 41.0707 855.709 41.3447C855.609 41.6187 855.498 41.885 855.295 42.6511L855.343 42.7218L855.383 42.7868C856.127 42.7514 856.614 42.7263 857.114 42.7218C857.614 42.7038 858.132 42.7218 858.933 42.7263L859.003 42.6691L859.078 42.606C859.194 41.9152 859.212 41.7294 859.282 41.3923C859.352 41.0309 859.473 40.5305 859.77 39.1939C859.91 38.5662 860.066 37.9403 860.212 37.2997C860.363 36.6617 860.521 36.0333 860.672 35.4055L860.649 35.3297L860.619 35.2595ZM860.636 32.6918C859.888 32.2499 858.574 32.3902 857.689 33.0005C856.808 33.5987 856.707 34.4477 857.453 34.8954C858.189 35.325 859.508 35.197 860.385 34.5815C861.265 33.9705 861.375 33.1292 860.636 32.6918ZM865.164 42.9252C866.679 42.9252 868.232 42.5078 869.4 41.269C870.299 40.2644 870.712 38.7696 870.854 38.1541C871.319 36.1139 870.957 35.1613 870.503 34.5812C869.812 33.6968 868.591 33.4131 867.325 33.4131C866.563 33.4131 864.749 33.4884 863.332 34.7947C862.315 35.737 861.845 37.0156 861.561 38.2416C861.275 39.4906 860.945 41.7392 863.013 42.576C863.651 42.85 864.571 42.9252 865.164 42.9252ZM865.046 38.3348C865.395 36.7899 865.807 35.4932 866.86 35.4932C867.684 35.4932 867.744 36.458 867.377 38.0081C867.312 38.3522 867.011 39.6315 866.604 40.1763C866.319 40.5783 865.983 40.822 865.611 40.822C865.501 40.822 864.843 40.822 864.832 39.845C864.827 39.3626 864.926 38.8699 865.046 38.3348ZM874.641 42.7266L874.759 42.6063C874.927 41.7168 874.955 41.5077 875.327 39.7068C875.512 38.8526 875.897 36.9758 876.078 36.3076C876.42 36.1487 876.751 35.993 877.083 35.993C877.844 35.993 877.751 36.6613 877.721 36.9276C877.693 37.3752 877.414 38.8346 877.123 40.0882L876.942 40.8973C876.804 41.4955 876.653 42.0757 876.52 42.6687L876.578 42.787C878.133 42.7041 878.588 42.7041 879.92 42.7266L880.08 42.6063C880.314 41.2164 880.377 40.8446 880.814 38.8224L881.023 37.8924C881.439 36.0734 881.65 35.1517 881.342 34.4005C881 33.5586 880.199 33.3553 879.478 33.3553C879 33.3553 878.123 33.4705 877.344 33.8551C877.066 34.0011 876.787 34.169 876.513 34.3375L876.751 33.4132L876.623 33.2569C874.962 33.5939 874.583 33.639 873.05 33.8551L872.933 33.9406C872.747 35.418 872.596 36.5282 871.935 39.4328C871.684 40.5031 871.422 41.5836 871.161 42.6513L871.231 42.787C872.807 42.7041 873.277 42.7041 874.641 42.7266ZM886.067 42.7867C886.165 42.3095 886.746 39.4807 886.751 39.4807C886.751 39.4807 887.246 37.4052 887.276 37.3299C887.276 37.3299 887.432 37.1138 887.587 37.0282H887.816C889.977 37.0282 892.416 37.0282 894.329 35.6216C895.63 34.6568 896.519 33.2322 896.916 31.5007C897.019 31.0762 897.095 30.5713 897.095 30.0664C897.095 29.4033 896.962 28.7472 896.577 28.2346C895.602 26.8704 893.66 26.8453 891.419 26.835C891.412 26.835 890.314 26.8453 890.314 26.8453C887.444 26.8807 886.294 26.8704 885.821 26.8125C885.781 27.0215 885.706 27.3933 885.706 27.3933C885.706 27.3933 884.678 32.1567 884.678 32.1645C884.678 32.1645 882.219 42.2921 882.103 42.7693C884.608 42.7391 885.635 42.7391 886.067 42.7867ZM887.972 34.3249C887.972 34.3249 889.065 29.5711 889.06 29.5891L889.095 29.3454L889.11 29.1595L889.547 29.2045C889.547 29.2045 891.801 29.3981 891.854 29.4033C892.743 29.7474 893.11 30.6343 892.854 31.7921C892.62 32.8501 891.934 33.7396 891.052 34.1693C890.326 34.5333 889.436 34.5636 888.52 34.5636H887.927L887.972 34.3249ZM894.776 38.4229C894.487 39.6539 894.155 41.9025 896.213 42.7039C896.869 42.9831 897.457 43.066 898.054 43.0358C898.685 43.0017 899.27 42.6853 899.811 42.2299C899.762 42.4171 899.714 42.6042 899.665 42.792L899.758 42.9123C901.238 42.8499 901.697 42.8499 903.301 42.8621L903.446 42.7515C903.68 41.3751 903.901 40.0386 904.509 37.4053C904.806 36.1441 905.102 34.895 905.406 33.6388L905.358 33.5006C903.703 33.8074 903.26 33.873 901.668 34.0987L901.547 34.1971C901.531 34.3251 901.514 34.448 901.498 34.5708C901.251 34.1708 900.892 33.8292 900.338 33.6163C899.63 33.3378 897.967 33.6967 896.537 34.9985C895.532 35.9279 895.05 37.2015 894.776 38.4229ZM898.253 38.4981C898.607 36.9808 899.014 35.697 900.069 35.697C900.736 35.697 901.087 36.3126 901.016 37.3623C900.959 37.624 900.898 37.9 900.826 38.2119C900.72 38.6628 900.606 39.1098 900.494 39.5575C900.381 39.8636 900.249 40.1524 900.105 40.3447C899.833 40.7293 899.187 40.968 898.816 40.968C898.71 40.968 898.059 40.968 898.037 40.0083C898.032 39.5304 898.13 39.0384 898.253 38.4981ZM916.41 33.4883L916.282 33.3423C914.644 33.6742 914.348 33.7269 912.843 33.9301L912.732 34.0408C912.727 34.0588 912.722 34.0864 912.715 34.1115L912.709 34.0864C911.589 36.6714 911.622 36.1138 910.71 38.1488C910.705 38.0562 910.705 37.9983 910.7 37.8999L910.471 33.4883L910.328 33.3423C908.612 33.6742 908.571 33.7269 906.986 33.9301L906.863 34.0408C906.846 34.0935 906.846 34.1514 906.835 34.2144L906.846 34.2369C907.044 35.2493 906.996 35.0236 907.195 36.6212C907.287 37.4053 907.411 38.1938 907.504 38.9682C907.66 40.2642 907.747 40.9023 907.938 42.8801C906.868 44.6463 906.615 45.3146 905.584 46.8646L905.591 46.8801L904.866 48.0275C904.783 48.1484 904.708 48.2314 904.602 48.2668C904.486 48.324 904.336 48.3343 904.127 48.3343H903.725L903.127 50.3218L905.177 50.3571C906.381 50.352 907.137 49.7892 907.544 49.0328L908.833 46.8241H908.812L908.948 46.6685C909.815 44.8019 916.41 33.4883 916.41 33.4883ZM894.776 59.5904H893.906L897.125 48.945H898.192L898.531 47.8484L898.564 49.0679C898.524 49.8217 899.117 50.49 900.675 50.3793H902.477L903.097 48.3295H902.419C902.029 48.3295 901.848 48.2311 901.871 48.0201L901.838 46.7794H898.502V46.7858C897.423 46.8084 894.202 46.8894 893.55 47.0631C892.761 47.2663 891.929 47.8645 891.929 47.8645L892.256 46.7666H889.135L888.485 48.945L885.223 59.7531H884.59L883.97 61.7882H890.185L889.977 62.4668H893.04L893.243 61.7882H894.102L894.776 59.5904ZM892.226 51.1081C891.726 51.2464 890.796 51.6657 890.796 51.6657L891.623 48.945H894.102L893.504 50.9273C893.504 50.9273 892.738 50.9724 892.226 51.1081ZM892.273 54.9949C892.273 54.9949 891.494 55.0926 890.982 55.2084C890.477 55.3615 889.53 55.8439 889.53 55.8439L890.384 53.0125H892.876L892.273 54.9949ZM890.884 59.6155H888.397L889.118 57.2261H891.597L890.884 59.6155ZM896.874 53.0125H900.459L899.943 54.681H896.311L895.765 56.5051H898.944L896.537 59.894C896.369 60.1429 896.218 60.231 896.05 60.3011C895.881 60.3867 895.66 60.487 895.404 60.487H894.522L893.916 62.4848H896.223C897.422 62.4848 898.13 61.9393 898.653 61.2235L900.303 58.9646L900.657 61.2582C900.733 61.6879 901.041 61.9393 901.25 62.0371C901.481 62.1529 901.72 62.3516 902.057 62.3812C902.418 62.3966 902.68 62.4089 902.853 62.4089H903.987L904.667 60.1731H904.22C903.963 60.1731 903.522 60.1301 903.446 60.0497C903.371 59.9519 903.371 59.8014 903.331 59.5724L902.971 57.2737H901.499L902.144 56.5051H905.77L906.328 54.681H902.971L903.494 53.0125H906.84L907.461 50.955H897.484L896.874 53.0125ZM866.593 60.0801L867.43 57.2964H870.869L871.498 55.2259H868.055L868.581 53.5125H871.945L872.568 51.5077H864.151L863.541 53.5125H865.453L864.943 55.2259H863.026L862.39 57.3317H864.302L863.186 61.0146C863.036 61.5022 863.257 61.6881 863.397 61.9145C863.541 62.1351 863.686 62.2811 864.013 62.364C864.35 62.4393 864.581 62.4843 864.895 62.4843H868.772L869.463 60.1907L867.744 60.4268C867.412 60.4268 866.493 60.3869 866.593 60.0801ZM866.988 46.754L866.116 48.3292C865.93 48.6733 865.762 48.8868 865.611 48.9852C865.478 49.0682 865.214 49.1029 864.832 49.1029H864.377L863.769 51.118H865.28C866.006 51.118 866.563 50.8518 866.83 50.7186C867.116 50.5655 867.191 50.653 867.412 50.4395L867.922 49.9976H872.638L873.264 47.8995H869.812L870.415 46.754H866.988ZM873.95 60.1205C873.87 60.0048 873.928 59.8009 874.05 59.3764L875.339 55.1101H879.925C880.593 55.1005 881.075 55.0927 881.389 55.0702C881.726 55.0349 882.093 54.9146 882.492 54.6985C882.904 54.4721 883.115 54.2334 883.294 53.9594C883.492 53.6861 883.811 53.0879 884.085 52.1656L885.706 46.7667L880.947 46.7943C880.947 46.7943 879.482 47.0105 878.837 47.2491C878.186 47.5154 877.256 48.2589 877.256 48.2589L877.686 46.7789H874.746L870.631 60.4267C870.485 60.9567 870.387 61.3413 870.365 61.5722C870.357 61.8211 870.679 62.0675 870.887 62.2533C871.134 62.4392 871.498 62.409 871.847 62.4392C872.214 62.4669 872.736 62.4842 873.457 62.4842H875.716L876.41 60.143L874.387 60.3341C874.171 60.3341 874.015 60.2183 873.95 60.1205ZM876.171 52.2286H880.987L880.681 53.1883C880.638 53.2108 880.535 53.1407 880.045 53.1986H875.874L876.171 52.2286ZM877.136 49.0101H881.992L881.643 50.1659C881.643 50.1659 879.354 50.1434 878.987 50.211C877.374 50.4901 876.432 51.352 876.432 51.352L877.136 49.0101ZM880.789 56.4018C880.749 56.5452 880.686 56.6327 880.598 56.6983C880.5 56.7614 880.342 56.7839 880.106 56.7839H879.419L879.46 55.6152H876.606L876.49 61.3286C876.485 61.7409 876.525 61.9795 876.827 62.1706C877.128 62.4092 878.058 62.4394 879.309 62.4394H881.098L881.743 60.3008L880.186 60.3864L879.668 60.4166C879.598 60.3864 879.53 60.3587 879.455 60.2835C879.389 60.2185 879.279 60.2584 879.297 59.8461L879.309 58.3816L880.942 58.314C881.824 58.314 882.201 58.0272 882.522 57.7538C882.829 57.492 882.929 57.191 883.045 56.7839L883.319 55.4872H881.075L880.789 56.4018Z" fill="black"/>
</g>
</g>
</g>
<g id="VerticalBorder">
<path id="We accept" d="M7.03327 52.6001L1.04009 31.6546H5.87759L9.34464 46.2081H9.5185L13.3435 31.6546H17.4855L21.3003 46.2387H21.4844L24.9515 31.6546H29.789L23.7958 52.6001H19.4799L15.4912 38.9058H15.3276L11.3492 52.6001H7.03327ZM37.5489 52.9069C35.933 52.9069 34.5421 52.5796 33.3762 51.9251C32.2171 51.2637 31.3239 50.3296 30.6966 49.1228C30.0694 47.9092 29.7557 46.474 29.7557 44.8171C29.7557 43.2012 30.0694 41.7831 30.6966 40.5626C31.3239 39.3421 32.2069 38.391 33.3455 37.7092C34.4909 37.0274 35.8341 36.6865 37.375 36.6865C38.4114 36.6865 39.3762 36.8535 40.2694 37.1876C41.1694 37.5149 41.9534 38.0092 42.6216 38.6706C43.2966 39.3319 43.8216 40.1637 44.1966 41.166C44.5716 42.1615 44.7591 43.3274 44.7591 44.6637V45.8603H31.4944V43.1603H40.658C40.658 42.5331 40.5216 41.9774 40.2489 41.4933C39.9762 41.0092 39.5978 40.6308 39.1137 40.3581C38.6364 40.0785 38.0807 39.9387 37.4466 39.9387C36.7853 39.9387 36.1989 40.0921 35.6875 40.399C35.183 40.699 34.7875 41.1046 34.5012 41.616C34.2148 42.1206 34.0682 42.6831 34.0614 43.3035V45.8706C34.0614 46.6478 34.2046 47.3194 34.4909 47.8853C34.7841 48.4512 35.1966 48.8876 35.7284 49.1944C36.2603 49.5012 36.8909 49.6546 37.6205 49.6546C38.1046 49.6546 38.5478 49.5865 38.95 49.4501C39.3523 49.3137 39.6966 49.1092 39.983 48.8365C40.2694 48.5637 40.4875 48.2296 40.6375 47.8342L44.6671 48.1001C44.4625 49.0683 44.0432 49.9137 43.4091 50.6365C42.7819 51.3524 41.9705 51.9115 40.975 52.3137C39.9864 52.7092 38.8444 52.9069 37.5489 52.9069ZM58.7475 52.8967C57.7452 52.8967 56.852 52.7228 56.0679 52.3751C55.2838 52.0206 54.6634 51.499 54.2066 50.8103C53.7566 50.1149 53.5316 49.249 53.5316 48.2126C53.5316 47.3399 53.6918 46.6069 54.0123 46.0137C54.3327 45.4206 54.7691 44.9433 55.3213 44.5819C55.8736 44.2206 56.5009 43.9478 57.2032 43.7637C57.9123 43.5796 58.6554 43.4501 59.4327 43.3751C60.3463 43.2796 61.0827 43.191 61.6418 43.1092C62.2009 43.0206 62.6066 42.891 62.8588 42.7206C63.1111 42.5501 63.2373 42.2978 63.2373 41.9637V41.9024C63.2373 41.2546 63.0327 40.7535 62.6236 40.399C62.2213 40.0444 61.6486 39.8671 60.9054 39.8671C60.1213 39.8671 59.4975 40.041 59.0338 40.3887C58.5702 40.7296 58.2634 41.1592 58.1134 41.6774L54.0838 41.3501C54.2884 40.3956 54.6907 39.5706 55.2907 38.8751C55.8907 38.1728 56.6645 37.6342 57.6123 37.2592C58.5668 36.8774 59.6713 36.6865 60.9259 36.6865C61.7986 36.6865 62.6338 36.7887 63.4316 36.9933C64.2361 37.1978 64.9486 37.5149 65.5691 37.9444C66.1963 38.374 66.6907 38.9262 67.052 39.6012C67.4134 40.2694 67.5941 41.0706 67.5941 42.0046V52.6001H63.4623V50.4217H63.3395C63.0873 50.9126 62.7498 51.3456 62.327 51.7206C61.9043 52.0887 61.3963 52.3785 60.8032 52.5899C60.21 52.7944 59.5248 52.8967 58.7475 52.8967ZM59.9952 49.8899C60.6361 49.8899 61.202 49.7637 61.6929 49.5115C62.1838 49.2524 62.5691 48.9046 62.8486 48.4683C63.1282 48.0319 63.2679 47.5376 63.2679 46.9853V45.3183C63.1316 45.4069 62.9441 45.4887 62.7054 45.5637C62.4736 45.6319 62.2111 45.6967 61.9179 45.7581C61.6248 45.8126 61.3316 45.8637 61.0384 45.9115C60.7452 45.9524 60.4793 45.9899 60.2407 46.024C59.7293 46.099 59.2827 46.2183 58.9009 46.3819C58.5191 46.5456 58.2225 46.7671 58.0111 47.0467C57.7998 47.3194 57.6941 47.6603 57.6941 48.0694C57.6941 48.6626 57.9088 49.116 58.3384 49.4296C58.7748 49.7365 59.327 49.8899 59.9952 49.8899ZM78.0719 52.9069C76.4628 52.9069 75.0787 52.566 73.9196 51.8842C72.7674 51.1956 71.881 50.241 71.2606 49.0206C70.6469 47.8001 70.3401 46.3956 70.3401 44.8069C70.3401 43.1978 70.6503 41.7865 71.2708 40.5728C71.8981 39.3524 72.7878 38.4012 73.9401 37.7194C75.0924 37.0308 76.4628 36.6865 78.0515 36.6865C79.4219 36.6865 80.6219 36.9353 81.6515 37.4331C82.681 37.9308 83.4958 38.6296 84.0958 39.5296C84.6958 40.4296 85.0265 41.4865 85.0878 42.7001H80.9765C80.8606 41.916 80.5537 41.2853 80.056 40.8081C79.5651 40.324 78.9208 40.0819 78.1231 40.0819C77.4481 40.0819 76.8583 40.266 76.3537 40.6342C75.856 40.9956 75.4674 41.524 75.1878 42.2194C74.9083 42.9149 74.7685 43.7569 74.7685 44.7456C74.7685 45.7478 74.9049 46.6001 75.1776 47.3024C75.4571 48.0046 75.8492 48.5399 76.3537 48.9081C76.8583 49.2762 77.4481 49.4603 78.1231 49.4603C78.6208 49.4603 79.0674 49.3581 79.4628 49.1535C79.8651 48.949 80.1958 48.6524 80.4549 48.2637C80.7208 47.8683 80.8946 47.3944 80.9765 46.8421H85.0878C85.0196 48.0421 84.6924 49.099 84.106 50.0126C83.5265 50.9194 82.7253 51.6285 81.7026 52.1399C80.6799 52.6512 79.4696 52.9069 78.0719 52.9069ZM94.975 52.9069C93.366 52.9069 91.9819 52.566 90.8228 51.8842C89.6705 51.1956 88.7841 50.241 88.1637 49.0206C87.55 47.8001 87.2432 46.3956 87.2432 44.8069C87.2432 43.1978 87.5535 41.7865 88.1739 40.5728C88.8012 39.3524 89.691 38.4012 90.8432 37.7194C91.9955 37.0308 93.366 36.6865 94.9546 36.6865C96.325 36.6865 97.525 36.9353 98.5546 37.4331C99.5841 37.9308 100.399 38.6296 100.999 39.5296C101.599 40.4296 101.93 41.4865 101.991 42.7001H97.8796C97.7637 41.916 97.4569 41.2853 96.9591 40.8081C96.4682 40.324 95.8239 40.0819 95.0262 40.0819C94.3512 40.0819 93.7614 40.266 93.2569 40.6342C92.7591 40.9956 92.3705 41.524 92.091 42.2194C91.8114 42.9149 91.6716 43.7569 91.6716 44.7456C91.6716 45.7478 91.808 46.6001 92.0807 47.3024C92.3603 48.0046 92.7523 48.5399 93.2569 48.9081C93.7614 49.2762 94.3512 49.4603 95.0262 49.4603C95.5239 49.4603 95.9705 49.3581 96.366 49.1535C96.7682 48.949 97.0989 48.6524 97.358 48.2637C97.6239 47.8683 97.7978 47.3944 97.8796 46.8421H101.991C101.923 48.0421 101.595 49.099 101.009 50.0126C100.43 50.9194 99.6285 51.6285 98.6057 52.1399C97.583 52.6512 96.3728 52.9069 94.975 52.9069ZM111.94 52.9069C110.324 52.9069 108.933 52.5796 107.767 51.9251C106.608 51.2637 105.715 50.3296 105.087 49.1228C104.46 47.9092 104.146 46.474 104.146 44.8171C104.146 43.2012 104.46 41.7831 105.087 40.5626C105.715 39.3421 106.597 38.391 107.736 37.7092C108.882 37.0274 110.225 36.6865 111.766 36.6865C112.802 36.6865 113.767 36.8535 114.66 37.1876C115.56 37.5149 116.344 38.0092 117.012 38.6706C117.687 39.3319 118.212 40.1637 118.587 41.166C118.962 42.1615 119.15 43.3274 119.15 44.6637V45.8603H105.885V43.1603H115.049C115.049 42.5331 114.912 41.9774 114.64 41.4933C114.367 41.0092 113.988 40.6308 113.504 40.3581C113.027 40.0785 112.471 39.9387 111.837 39.9387C111.176 39.9387 110.59 40.0921 110.078 40.399C109.574 40.699 109.178 41.1046 108.892 41.616C108.605 42.1206 108.459 42.6831 108.452 43.3035V45.8706C108.452 46.6478 108.595 47.3194 108.882 47.8853C109.175 48.4512 109.587 48.8876 110.119 49.1944C110.651 49.5012 111.282 49.6546 112.011 49.6546C112.495 49.6546 112.938 49.5865 113.341 49.4501C113.743 49.3137 114.087 49.1092 114.374 48.8365C114.66 48.5637 114.878 48.2296 115.028 47.8342L119.058 48.1001C118.853 49.0683 118.434 49.9137 117.8 50.6365C117.172 51.3524 116.361 51.9115 115.366 52.3137C114.377 52.7092 113.235 52.9069 111.94 52.9069ZM121.993 58.491V36.891H126.288V39.5296H126.483C126.674 39.1069 126.95 38.6774 127.311 38.241C127.679 37.7978 128.157 37.4296 128.743 37.1365C129.336 36.8365 130.072 36.6865 130.952 36.6865C132.097 36.6865 133.154 36.9865 134.122 37.5865C135.091 38.1796 135.865 39.0762 136.444 40.2762C137.024 41.4694 137.313 42.966 137.313 44.766C137.313 46.5183 137.03 47.9978 136.465 49.2046C135.905 50.4046 135.142 51.3149 134.174 51.9353C133.212 52.549 132.135 52.8558 130.942 52.8558C130.096 52.8558 129.377 52.716 128.784 52.4365C128.197 52.1569 127.717 51.8058 127.342 51.3831C126.967 50.9535 126.68 50.5206 126.483 50.0842H126.35V58.491H121.993ZM126.258 44.7456C126.258 45.6796 126.387 46.4944 126.646 47.1899C126.905 47.8853 127.28 48.4274 127.771 48.816C128.262 49.1978 128.859 49.3887 129.561 49.3887C130.27 49.3887 130.87 49.1944 131.361 48.8058C131.852 48.4103 132.224 47.8649 132.476 47.1694C132.735 46.4671 132.865 45.6592 132.865 44.7456C132.865 43.8387 132.738 43.041 132.486 42.3524C132.234 41.6637 131.862 41.1251 131.371 40.7365C130.88 40.3478 130.277 40.1535 129.561 40.1535C128.852 40.1535 128.252 40.341 127.761 40.716C127.277 41.091 126.905 41.6228 126.646 42.3115C126.387 43.0001 126.258 43.8115 126.258 44.7456ZM148.574 36.891V40.1637H139.113V36.891H148.574ZM141.261 33.1274H145.618V47.7728C145.618 48.1751 145.679 48.4887 145.802 48.7137C145.925 48.9319 146.095 49.0853 146.313 49.174C146.538 49.2626 146.797 49.3069 147.091 49.3069C147.295 49.3069 147.5 49.2899 147.704 49.2558C147.909 49.2149 148.066 49.1842 148.175 49.1637L148.86 52.4058C148.642 52.474 148.335 52.5524 147.94 52.641C147.544 52.7365 147.063 52.7944 146.497 52.8149C145.447 52.8558 144.527 52.716 143.736 52.3956C142.952 52.0751 142.342 51.5774 141.905 50.9024C141.469 50.2274 141.254 49.3751 141.261 48.3456V33.1274Z" fill="#999999"/>
</g>
</g>
<defs>
<linearGradient id="paint0_linear_25_323" x1="734.999" y1="46.811" x2="761.203" y2="46.811" gradientUnits="userSpaceOnUse">
<stop stop-color="#007940"/>
<stop offset="0.23" stop-color="#00873F"/>
<stop offset="0.74" stop-color="#40A737"/>
<stop offset="1" stop-color="#5CB531"/>
</linearGradient>
<linearGradient id="paint1_linear_25_323" x1="-3447.21" y1="33589.9" x2="-2402.77" y2="33589.9" gradientUnits="userSpaceOnUse">
<stop stop-color="#007940"/>
<stop offset="0.23" stop-color="#00873F"/>
<stop offset="0.74" stop-color="#40A737"/>
<stop offset="1" stop-color="#5CB531"/>
</linearGradient>
<linearGradient id="paint2_linear_25_323" x1="-582.139" y1="2778.28" x2="-251.565" y2="2778.28" gradientUnits="userSpaceOnUse">
<stop stop-color="#007940"/>
<stop offset="0.23" stop-color="#00873F"/>
<stop offset="0.74" stop-color="#40A737"/>
<stop offset="1" stop-color="#5CB531"/>
</linearGradient>
<linearGradient id="paint3_linear_25_323" x1="676.346" y1="42.6062" x2="702.95" y2="42.6062" gradientUnits="userSpaceOnUse">
<stop stop-color="#1F286F"/>
<stop offset="0.48" stop-color="#004E94"/>
<stop offset="0.83" stop-color="#0066B1"/>
<stop offset="1" stop-color="#006FBC"/>
</linearGradient>
<linearGradient id="paint4_linear_25_323" x1="705.533" y1="42.6668" x2="731.37" y2="42.6668" gradientUnits="userSpaceOnUse">
<stop stop-color="#6C2C2F"/>
<stop offset="0.17" stop-color="#882730"/>
<stop offset="0.57" stop-color="#BE1833"/>
<stop offset="0.86" stop-color="#DC0436"/>
<stop offset="1" stop-color="#E60039"/>
</linearGradient>
</defs>
</svg>
