<svg width="311" height="139" viewBox="0 0 311 139" fill="none" xmlns="http://www.w3.org/2000/svg">
<g id="Plan to choose">
<g clip-path="url(#clip0_25_124)">
<rect y="0.300293" width="311" height="138" rx="9.6" fill="#186FD8" fill-opacity="0.2"/>
<path id="Title" d="M18.1136 46.1001V28.6456H28.6477V30.5206H20.2273V36.4183H28.1023V38.2933H20.2273V44.2251H28.7841V46.1001H18.1136ZM40.4347 40.7478V33.0092H42.446V46.1001H40.4347V43.8842H40.2983C39.9915 44.549 39.5142 45.1143 38.8665 45.5802C38.2188 46.0404 37.4006 46.2706 36.4119 46.2706C35.5938 46.2706 34.8665 46.0916 34.2301 45.7336C33.5938 45.37 33.0938 44.8245 32.7301 44.0973C32.3665 43.3643 32.1847 42.441 32.1847 41.3274V33.0092H34.196V41.191C34.196 42.1456 34.4631 42.9069 34.9972 43.4751C35.5369 44.0433 36.2244 44.3274 37.0597 44.3274C37.5597 44.3274 38.0682 44.1995 38.5852 43.9438C39.108 43.6882 39.5455 43.2961 39.8977 42.7677C40.2557 42.2393 40.4347 41.566 40.4347 40.7478ZM46.13 46.1001V33.0092H48.0732V34.9865H48.2095C48.4482 34.3387 48.88 33.8132 49.505 33.4098C50.13 33.0063 50.8345 32.8046 51.6186 32.8046C51.7663 32.8046 51.951 32.8075 52.1726 32.8132C52.3942 32.8188 52.5618 32.8274 52.6754 32.8387V34.8842C52.6072 34.8671 52.451 34.8416 52.2067 34.8075C51.968 34.7677 51.7152 34.7478 51.4482 34.7478C50.8118 34.7478 50.2436 34.8813 49.7436 35.1484C49.2493 35.4098 48.8572 35.7734 48.5675 36.2393C48.2834 36.6995 48.1413 37.2251 48.1413 37.816V46.1001H46.13ZM59.9794 46.3728C58.7976 46.3728 57.7607 46.0916 56.8686 45.5291C55.9822 44.9666 55.2891 44.1796 54.7891 43.1683C54.2947 42.1569 54.0476 40.9751 54.0476 39.6228C54.0476 38.2592 54.2947 37.0688 54.7891 36.0518C55.2891 35.0348 55.9822 34.245 56.8686 33.6825C57.7607 33.12 58.7976 32.8387 59.9794 32.8387C61.1612 32.8387 62.1953 33.12 63.0817 33.6825C63.9737 34.245 64.6669 35.0348 65.1612 36.0518C65.6612 37.0688 65.9112 38.2592 65.9112 39.6228C65.9112 40.9751 65.6612 42.1569 65.1612 43.1683C64.6669 44.1796 63.9737 44.9666 63.0817 45.5291C62.1953 46.0916 61.1612 46.3728 59.9794 46.3728ZM59.9794 44.566C60.8771 44.566 61.6158 44.3359 62.1953 43.8757C62.7749 43.4154 63.2038 42.8103 63.4822 42.0603C63.7607 41.3103 63.8999 40.4978 63.8999 39.6228C63.8999 38.7478 63.7607 37.9325 63.4822 37.1768C63.2038 36.4211 62.7749 35.8103 62.1953 35.3444C61.6158 34.8785 60.8771 34.6456 59.9794 34.6456C59.0817 34.6456 58.343 34.8785 57.7635 35.3444C57.1839 35.8103 56.755 36.4211 56.4766 37.1768C56.1982 37.9325 56.0589 38.7478 56.0589 39.6228C56.0589 40.4978 56.1982 41.3103 56.4766 42.0603C56.755 42.8103 57.1839 43.4154 57.7635 43.8757C58.343 44.3359 59.0817 44.566 59.9794 44.566ZM68.9815 51.0092V33.0092H70.9247V35.0887H71.1634C71.3111 34.8615 71.5156 34.5717 71.777 34.2194C72.044 33.8615 72.4247 33.5433 72.919 33.2649C73.419 32.9808 74.0952 32.8387 74.9474 32.8387C76.0497 32.8387 77.0213 33.1143 77.8622 33.6654C78.7031 34.2166 79.3594 34.9978 79.831 36.0092C80.3026 37.0206 80.5384 38.2137 80.5384 39.5887C80.5384 40.9751 80.3026 42.1768 79.831 43.1938C79.3594 44.2052 78.706 44.9893 77.8707 45.5461C77.0355 46.0973 76.0724 46.3728 74.9815 46.3728C74.1406 46.3728 73.4673 46.2336 72.9616 45.9552C72.456 45.6711 72.0668 45.3501 71.794 44.9921C71.5213 44.6285 71.3111 44.3274 71.1634 44.0887H70.9929V51.0092H68.9815ZM70.9588 39.5546C70.9588 40.5433 71.1037 41.4154 71.3935 42.1711C71.6832 42.9211 72.1065 43.5092 72.6634 43.9353C73.2202 44.3558 73.902 44.566 74.7088 44.566C75.5497 44.566 76.2514 44.3444 76.8139 43.9012C77.3821 43.4524 77.8082 42.8501 78.0923 42.0944C78.3821 41.3331 78.527 40.4865 78.527 39.5546C78.527 38.6342 78.3849 37.8046 78.1009 37.066C77.8224 36.3217 77.3991 35.7336 76.831 35.3018C76.2685 34.8643 75.5611 34.6456 74.7088 34.6456C73.8906 34.6456 73.2031 34.8529 72.6463 35.2677C72.0895 35.6768 71.669 36.2507 71.3849 36.9893C71.1009 37.7223 70.9588 38.5774 70.9588 39.5546ZM89.0952 46.3728C87.8338 46.3728 86.7457 46.0944 85.831 45.5376C84.9219 44.9751 84.2202 44.191 83.7259 43.1853C83.2372 42.174 82.9929 40.9978 82.9929 39.6569C82.9929 38.316 83.2372 37.1342 83.7259 36.1115C84.2202 35.0831 84.9077 34.2819 85.7884 33.7081C86.6747 33.1285 87.7088 32.8387 88.8906 32.8387C89.5724 32.8387 90.2457 32.9524 90.9105 33.1796C91.5753 33.4069 92.1804 33.7762 92.7259 34.2876C93.2713 34.7933 93.706 35.4637 94.0298 36.299C94.3537 37.1342 94.5156 38.1626 94.5156 39.3842V40.2365H84.4247V38.4978H92.4702C92.4702 37.7592 92.3224 37.1001 92.027 36.5206C91.7372 35.941 91.3224 35.4836 90.7827 35.1484C90.2486 34.8132 89.6179 34.6456 88.8906 34.6456C88.0895 34.6456 87.3963 34.8444 86.8111 35.2421C86.2315 35.6342 85.7855 36.1456 85.473 36.7762C85.1605 37.4069 85.0043 38.0831 85.0043 38.8046V39.9637C85.0043 40.9524 85.1747 41.7904 85.5156 42.4779C85.8622 43.1598 86.3423 43.6796 86.956 44.0376C87.5696 44.3899 88.2827 44.566 89.0952 44.566C89.6236 44.566 90.1009 44.4921 90.527 44.3444C90.9588 44.191 91.331 43.9637 91.6435 43.6626C91.956 43.3558 92.1974 42.9751 92.3679 42.5206L94.3111 43.066C94.1065 43.7251 93.7628 44.3046 93.2798 44.8046C92.7969 45.299 92.2003 45.6853 91.4901 45.9637C90.7798 46.2365 89.9815 46.3728 89.0952 46.3728ZM101.428 46.4069C100.598 46.4069 99.8452 46.2507 99.169 45.9382C98.4929 45.62 97.956 45.1626 97.5582 44.566C97.1605 43.9637 96.9616 43.2365 96.9616 42.3842C96.9616 41.6342 97.1094 41.0262 97.4048 40.5603C97.7003 40.0887 98.0952 39.7194 98.5895 39.4524C99.0838 39.1853 99.6293 38.9865 100.226 38.8558C100.828 38.7194 101.433 38.6115 102.041 38.5319C102.837 38.4296 103.482 38.3529 103.976 38.3018C104.476 38.245 104.839 38.1512 105.067 38.0206C105.3 37.8899 105.416 37.6626 105.416 37.3387V37.2706C105.416 36.4296 105.186 35.7762 104.726 35.3103C104.271 34.8444 103.581 34.6115 102.655 34.6115C101.695 34.6115 100.942 34.8217 100.396 35.2421C99.8509 35.6626 99.4673 36.1115 99.2457 36.5887L97.3366 35.9069C97.6776 35.1115 98.1321 34.4921 98.7003 34.049C99.2741 33.6001 99.8991 33.2876 100.575 33.1115C101.257 32.9296 101.928 32.8387 102.587 32.8387C103.007 32.8387 103.49 32.8899 104.036 32.9921C104.587 33.0887 105.118 33.2904 105.629 33.5973C106.146 33.9041 106.575 34.3671 106.916 34.9865C107.257 35.6058 107.428 36.4353 107.428 37.4751V46.1001H105.416V44.3274H105.314C105.178 44.6115 104.95 44.9154 104.632 45.2393C104.314 45.5632 103.891 45.8387 103.362 46.066C102.834 46.2933 102.189 46.4069 101.428 46.4069ZM101.734 44.6001C102.53 44.6001 103.2 44.4438 103.746 44.1313C104.297 43.8188 104.712 43.4154 104.99 42.9211C105.274 42.4268 105.416 41.9069 105.416 41.3615V39.5206C105.331 39.6228 105.143 39.7166 104.854 39.8018C104.57 39.8813 104.24 39.9524 103.865 40.0149C103.496 40.0717 103.135 40.1228 102.783 40.1683C102.436 40.2081 102.155 40.2421 101.939 40.2706C101.416 40.3387 100.928 40.4495 100.473 40.6029C100.024 40.7507 99.6605 40.9751 99.3821 41.2762C99.1094 41.5717 98.973 41.9751 98.973 42.4865C98.973 43.1853 99.2315 43.7137 99.7486 44.0717C100.271 44.424 100.933 44.6001 101.734 44.6001ZM113.11 38.2251V46.1001H111.099V33.0092H113.042V35.0546H113.212C113.519 34.3899 113.985 33.8558 114.61 33.4524C115.235 33.0433 116.042 32.8387 117.031 32.8387C117.917 32.8387 118.692 33.0206 119.357 33.3842C120.022 33.7421 120.539 34.2876 120.908 35.0206C121.278 35.7478 121.462 36.6683 121.462 37.7819V46.1001H119.451V37.9183C119.451 36.8899 119.184 36.0887 118.65 35.5149C118.116 34.9353 117.383 34.6456 116.451 34.6456C115.809 34.6456 115.235 34.7848 114.729 35.0632C114.229 35.3416 113.835 35.7478 113.545 36.2819C113.255 36.816 113.11 37.4637 113.11 38.2251Z" fill="#333333"/>
<g id="Price">
<path d="M18.5057 102.339V94.6626L35.1903 68.3728H42.0114V78.7933H38.054L28.2898 94.2649V94.5831H52.4517V102.339H18.5057ZM38.1733 109.1V99.9921L38.3722 96.6313V68.3728H47.5795V109.1H38.1733ZM57.1151 102.339V94.6626L73.7997 68.3728H80.6207V78.7933H76.6634L66.8991 94.2649V94.5831H91.0611V102.339H57.1151ZM76.7827 109.1V99.9921L76.9815 96.6313V68.3728H86.1889V109.1H76.7827Z" fill="#333333"/>
<path d="M109.497 109.327C108.474 109.327 107.594 109.086 106.855 108.603C106.116 108.12 105.548 107.455 105.151 106.607C104.753 105.76 104.554 104.791 104.554 103.702C104.554 102.594 104.758 101.617 105.165 100.769C105.577 99.9169 106.15 99.2516 106.884 98.7734C107.622 98.2904 108.484 98.049 109.469 98.049C110.236 98.049 110.927 98.191 111.543 98.4751C112.158 98.7592 112.662 99.1569 113.055 99.6683C113.448 100.18 113.692 100.776 113.787 101.458H112.111C111.983 100.961 111.699 100.521 111.259 100.137C110.823 99.7488 110.236 99.5546 109.497 99.5546C108.844 99.5546 108.271 99.7251 107.778 100.066C107.291 100.402 106.91 100.878 106.635 101.494C106.365 102.104 106.23 102.822 106.23 103.646C106.23 104.488 106.363 105.222 106.628 105.847C106.898 106.472 107.277 106.958 107.764 107.303C108.257 107.649 108.834 107.822 109.497 107.822C109.933 107.822 110.328 107.746 110.683 107.594C111.038 107.443 111.339 107.225 111.585 106.941C111.831 106.657 112.007 106.316 112.111 105.918H113.787C113.692 106.562 113.458 107.142 113.084 107.658C112.714 108.17 112.224 108.577 111.614 108.88C111.008 109.178 110.302 109.327 109.497 109.327ZM120.669 109.327C119.684 109.327 118.82 109.093 118.077 108.624C117.338 108.155 116.76 107.5 116.344 106.657C115.932 105.814 115.726 104.829 115.726 103.702C115.726 102.566 115.932 101.574 116.344 100.727C116.76 99.879 117.338 99.2208 118.077 98.7521C118.82 98.2833 119.684 98.049 120.669 98.049C121.654 98.049 122.516 98.2833 123.254 98.7521C123.998 99.2208 124.575 99.879 124.987 100.727C125.404 101.574 125.612 102.566 125.612 103.702C125.612 104.829 125.404 105.814 124.987 106.657C124.575 107.5 123.998 108.155 123.254 108.624C122.516 109.093 121.654 109.327 120.669 109.327ZM120.669 107.822C121.417 107.822 122.033 107.63 122.516 107.246C122.999 106.863 123.356 106.359 123.588 105.734C123.82 105.109 123.936 104.432 123.936 103.702C123.936 102.973 123.82 102.294 123.588 101.664C123.356 101.034 122.999 100.525 122.516 100.137C122.033 99.7488 121.417 99.5546 120.669 99.5546C119.921 99.5546 119.305 99.7488 118.822 100.137C118.339 100.525 117.982 101.034 117.75 101.664C117.518 102.294 117.402 102.973 117.402 103.702C117.402 104.432 117.518 105.109 117.75 105.734C117.982 106.359 118.339 106.863 118.822 107.246C119.305 107.63 119.921 107.822 120.669 107.822ZM135.046 104.64V98.191H136.722V109.1H135.046V107.254H134.932C134.676 107.807 134.279 108.279 133.739 108.667C133.199 109.05 132.517 109.242 131.694 109.242C131.012 109.242 130.406 109.093 129.875 108.795C129.345 108.492 128.928 108.037 128.625 107.431C128.322 106.82 128.171 106.051 128.171 105.123V98.191H129.847V105.009C129.847 105.805 130.069 106.439 130.515 106.913C130.964 107.386 131.537 107.623 132.233 107.623C132.65 107.623 133.074 107.516 133.505 107.303C133.94 107.09 134.305 106.763 134.598 106.323C134.897 105.883 135.046 105.322 135.046 104.64ZM141.468 102.538V109.1H139.792V98.191H141.411V99.8956H141.553C141.809 99.3416 142.197 98.8965 142.718 98.5603C143.239 98.2194 143.911 98.049 144.735 98.049C145.474 98.049 146.12 98.2005 146.674 98.5035C147.228 98.8018 147.659 99.2563 147.967 99.8671C148.274 100.473 148.428 101.24 148.428 102.168V109.1H146.752V102.282C146.752 101.425 146.53 100.757 146.085 100.279C145.639 99.7961 145.029 99.5546 144.252 99.5546C143.717 99.5546 143.239 99.6706 142.817 99.9027C142.401 100.135 142.072 100.473 141.83 100.918C141.589 101.363 141.468 101.903 141.468 102.538ZM156.235 98.191V99.6115H150.582V98.191H156.235ZM152.23 95.5774H153.906V105.975C153.906 106.449 153.975 106.804 154.112 107.04C154.254 107.272 154.434 107.429 154.652 107.509C154.874 107.585 155.109 107.623 155.355 107.623C155.539 107.623 155.691 107.613 155.809 107.594C155.928 107.571 156.022 107.552 156.093 107.538L156.434 109.043C156.321 109.086 156.162 109.129 155.958 109.171C155.755 109.218 155.497 109.242 155.184 109.242C154.711 109.242 154.247 109.14 153.792 108.937C153.342 108.733 152.968 108.423 152.67 108.006C152.377 107.59 152.23 107.064 152.23 106.43V95.5774ZM158.757 109.1V98.191H160.376V99.8387H160.49C160.689 99.299 161.048 98.861 161.569 98.5248C162.09 98.1886 162.677 98.0206 163.331 98.0206C163.454 98.0206 163.608 98.0229 163.792 98.0277C163.977 98.0324 164.117 98.0395 164.211 98.049V99.7535C164.154 99.7393 164.024 99.718 163.821 99.6896C163.622 99.6564 163.411 99.6399 163.189 99.6399C162.658 99.6399 162.185 99.7511 161.768 99.9737C161.356 100.191 161.029 100.495 160.788 100.883C160.551 101.266 160.433 101.704 160.433 102.197V109.1H158.757ZM166.198 109.1V98.191H167.874V109.1H166.198ZM167.05 96.3728C166.724 96.3728 166.442 96.2616 166.205 96.039C165.973 95.8165 165.857 95.549 165.857 95.2365C165.857 94.924 165.973 94.6564 166.205 94.4339C166.442 94.2114 166.724 94.1001 167.05 94.1001C167.377 94.1001 167.656 94.2114 167.888 94.4339C168.125 94.6564 168.244 94.924 168.244 95.2365C168.244 95.549 168.125 95.8165 167.888 96.039C167.656 96.2616 167.377 96.3728 167.05 96.3728ZM175.518 109.327C174.467 109.327 173.56 109.095 172.798 108.631C172.04 108.163 171.456 107.509 171.044 106.671C170.636 105.828 170.433 104.848 170.433 103.731C170.433 102.613 170.636 101.629 171.044 100.776C171.456 99.9192 172.029 99.2516 172.762 98.7734C173.501 98.2904 174.363 98.049 175.348 98.049C175.916 98.049 176.477 98.1437 177.031 98.3331C177.585 98.5224 178.089 98.8302 178.544 99.2563C178.998 99.6777 179.36 100.236 179.63 100.932C179.9 101.629 180.035 102.486 180.035 103.504V104.214H171.626V102.765H178.331C178.331 102.149 178.208 101.6 177.961 101.117C177.72 100.634 177.374 100.253 176.924 99.9737C176.479 99.6943 175.954 99.5546 175.348 99.5546C174.68 99.5546 174.102 99.7204 173.615 100.052C173.132 100.379 172.76 100.805 172.5 101.33C172.239 101.856 172.109 102.419 172.109 103.021V103.986C172.109 104.81 172.251 105.509 172.535 106.082C172.824 106.65 173.224 107.083 173.735 107.381C174.247 107.675 174.841 107.822 175.518 107.822C175.958 107.822 176.356 107.76 176.711 107.637C177.071 107.509 177.381 107.32 177.642 107.069C177.902 106.813 178.103 106.496 178.245 106.117L179.865 106.572C179.694 107.121 179.408 107.604 179.005 108.021C178.603 108.432 178.106 108.754 177.514 108.986C176.922 109.214 176.257 109.327 175.518 109.327ZM190.312 100.634L188.806 101.06C188.712 100.809 188.572 100.566 188.387 100.329C188.208 100.087 187.961 99.8884 187.649 99.7322C187.336 99.5759 186.936 99.4978 186.449 99.4978C185.781 99.4978 185.225 99.6517 184.779 99.9595C184.339 100.263 184.119 100.648 184.119 101.117C184.119 101.534 184.27 101.863 184.574 102.104C184.877 102.346 185.35 102.547 185.994 102.708L187.613 103.106C188.589 103.343 189.315 103.705 189.794 104.192C190.272 104.675 190.511 105.298 190.511 106.06C190.511 106.685 190.331 107.244 189.971 107.736C189.616 108.229 189.119 108.617 188.48 108.901C187.841 109.185 187.097 109.327 186.25 109.327C185.137 109.327 184.216 109.086 183.487 108.603C182.758 108.12 182.296 107.414 182.102 106.486L183.693 106.089C183.844 106.676 184.131 107.116 184.552 107.41C184.978 107.703 185.535 107.85 186.221 107.85C187.002 107.85 187.623 107.684 188.082 107.353C188.546 107.017 188.778 106.614 188.778 106.146C188.778 105.767 188.645 105.45 188.38 105.194C188.115 104.933 187.708 104.739 187.159 104.611L185.341 104.185C184.342 103.949 183.608 103.582 183.139 103.084C182.675 102.583 182.443 101.955 182.443 101.202C182.443 100.587 182.616 100.042 182.961 99.5688C183.312 99.0954 183.788 98.7237 184.389 98.4538C184.995 98.1839 185.681 98.049 186.449 98.049C187.528 98.049 188.376 98.2857 188.991 98.7592C189.611 99.2327 190.052 99.8577 190.312 100.634Z" fill="#666666"/>
</g>
<g id="Ellipse 9" opacity="0.1" filter="url(#filter0_f_25_124)">
<ellipse cx="136.466" cy="-26.1181" rx="81.8101" ry="58.4566" fill="url(#paint0_linear_25_124)"/>
</g>
</g>
<rect x="0.5" y="0.800293" width="310" height="137" rx="9.1" stroke="url(#paint1_linear_25_124)"/>
</g>
<defs>
<filter id="filter0_f_25_124" x="-21.5838" y="-160.815" width="316.101" height="269.393" filterUnits="userSpaceOnUse" color-interpolation-filters="sRGB">
<feFlood flood-opacity="0" result="BackgroundImageFix"/>
<feBlend mode="normal" in="SourceGraphic" in2="BackgroundImageFix" result="shape"/>
<feGaussianBlur stdDeviation="38.12" result="effect1_foregroundBlur_25_124"/>
</filter>
<linearGradient id="paint0_linear_25_124" x1="96.9381" y1="-84.5747" x2="167.417" y2="-80.7872" gradientUnits="userSpaceOnUse">
<stop stop-color="#0066FF"/>
<stop offset="1" stop-color="#6506FF"/>
</linearGradient>
<linearGradient id="paint1_linear_25_124" x1="102.023" y1="0.300291" x2="121.33" y2="141.482" gradientUnits="userSpaceOnUse">
<stop stop-color="#264E9E"/>
<stop offset="1" stop-color="#90A3CB" stop-opacity="0.1"/>
</linearGradient>
<clipPath id="clip0_25_124">
<rect y="0.300293" width="311" height="138" rx="9.6" fill="white"/>
</clipPath>
</defs>
</svg>
