<svg width="279" height="138" viewBox="0 0 279 138" fill="none" xmlns="http://www.w3.org/2000/svg">
<g id="Plan to choose">
<g clip-path="url(#clip0_25_144)">
<rect width="278.4" height="137.6" rx="9.6" fill="#186FD8" fill-opacity="0.2"/>
<path id="Title" d="M18.8295 45.7998H16.6136L23.0227 28.3453H25.2045L31.6136 45.7998H29.3977L24.1818 31.1066H24.0455L18.8295 45.7998ZM19.6477 38.9816H28.5795V40.8566H19.6477V38.9816ZM42.3097 40.4475V32.7089H44.321V45.7998H42.3097V43.5839H42.1733C41.8665 44.2487 41.3892 44.814 40.7415 45.2799C40.0938 45.7401 39.2756 45.9703 38.2869 45.9703C37.4688 45.9703 36.7415 45.7913 36.1051 45.4333C35.4688 45.0697 34.9688 44.5242 34.6051 43.797C34.2415 43.064 34.0597 42.1407 34.0597 41.0271V32.7089H36.071V40.8907C36.071 41.8453 36.3381 42.6066 36.8722 43.1748C37.4119 43.743 38.0994 44.0271 38.9347 44.0271C39.4347 44.0271 39.9432 43.8992 40.4602 43.6436C40.983 43.3879 41.4205 42.9958 41.7727 42.4674C42.1307 41.939 42.3097 41.2657 42.3097 40.4475ZM57.2777 35.6407L55.4709 36.1521C55.3572 35.8509 55.1896 35.5583 54.968 35.2742C54.7521 34.9845 54.4567 34.7458 54.0817 34.5583C53.7067 34.3708 53.2266 34.2771 52.6413 34.2771C51.8402 34.2771 51.1726 34.4617 50.6385 34.8311C50.1101 35.1947 49.8459 35.6578 49.8459 36.2203C49.8459 36.7203 50.0277 37.1151 50.3913 37.4049C50.755 37.6947 51.3232 37.9362 52.0959 38.1293L54.0391 38.6066C55.2095 38.8907 56.0817 39.3254 56.6555 39.9106C57.2294 40.4901 57.5163 41.2373 57.5163 42.1521C57.5163 42.9021 57.3004 43.5725 56.8686 44.1634C56.4425 44.7544 55.8459 45.2203 55.0788 45.5612C54.3118 45.9021 53.4197 46.0725 52.4027 46.0725C51.0675 46.0725 49.9624 45.7828 49.0874 45.2032C48.2124 44.6237 47.6584 43.7771 47.4254 42.6634L49.3345 42.1862C49.5163 42.8907 49.8601 43.4191 50.3658 43.7714C50.8771 44.1237 51.5447 44.2998 52.3686 44.2998C53.3061 44.2998 54.0504 44.1009 54.6016 43.7032C55.1584 43.2998 55.4368 42.8169 55.4368 42.2543C55.4368 41.7998 55.2777 41.4191 54.9595 41.1123C54.6413 40.7998 54.1527 40.5669 53.4936 40.4134L51.3118 39.9021C50.1129 39.618 49.2322 39.1776 48.6697 38.5811C48.1129 37.9788 47.8345 37.2259 47.8345 36.3225C47.8345 35.5839 48.0419 34.9305 48.4567 34.3623C48.8771 33.7941 49.4482 33.3481 50.1697 33.0242C50.897 32.7004 51.7209 32.5384 52.6413 32.5384C53.9368 32.5384 54.9538 32.8225 55.6925 33.3907C56.4368 33.9589 56.9652 34.7089 57.2777 35.6407ZM66.2372 32.7089V34.4134H59.4531V32.7089H66.2372ZM61.4304 29.5725H63.4418V42.0498C63.4418 42.618 63.5241 43.0441 63.6889 43.3282C63.8594 43.6066 64.0753 43.7941 64.3366 43.8907C64.6037 43.9816 64.8849 44.0271 65.1804 44.0271C65.402 44.0271 65.5838 44.0157 65.7259 43.993C65.8679 43.9646 65.9815 43.9419 66.0668 43.9248L66.4759 45.7316C66.3395 45.7828 66.1491 45.8339 65.9048 45.885C65.6605 45.9419 65.3509 45.9703 64.9759 45.9703C64.4077 45.9703 63.8509 45.8481 63.3054 45.6038C62.7656 45.3595 62.3168 44.9873 61.9588 44.4873C61.6065 43.9873 61.4304 43.3566 61.4304 42.5953V29.5725ZM69.2628 45.7998V32.7089H71.206V34.6862H71.3423C71.581 34.0384 72.0128 33.5129 72.6378 33.1095C73.2628 32.7061 73.9673 32.5043 74.7514 32.5043C74.8991 32.5043 75.0838 32.5072 75.3054 32.5129C75.527 32.5186 75.6946 32.5271 75.8082 32.5384V34.5839C75.7401 34.5668 75.5838 34.5413 75.3395 34.5072C75.1009 34.4674 74.848 34.4475 74.581 34.4475C73.9446 34.4475 73.3764 34.5811 72.8764 34.8481C72.3821 35.1095 71.9901 35.4731 71.7003 35.939C71.4162 36.3992 71.2741 36.9248 71.2741 37.5157V45.7998H69.2628ZM82.0447 46.1066C81.2152 46.1066 80.4624 45.9504 79.7862 45.6379C79.1101 45.3197 78.5732 44.8623 78.1754 44.2657C77.7777 43.6634 77.5788 42.9362 77.5788 42.0839C77.5788 41.3339 77.7266 40.7259 78.022 40.26C78.3175 39.7884 78.7124 39.4191 79.2067 39.1521C79.701 38.885 80.2464 38.6862 80.843 38.5555C81.4453 38.4191 82.0504 38.3112 82.6584 38.2316C83.4538 38.1293 84.0987 38.0526 84.593 38.0015C85.093 37.9447 85.4567 37.8509 85.6839 37.7203C85.9169 37.5896 86.0334 37.3623 86.0334 37.0384V36.9703C86.0334 36.1293 85.8033 35.4759 85.343 35.01C84.8885 34.5441 84.1982 34.3112 83.272 34.3112C82.3118 34.3112 81.5589 34.5214 81.0135 34.9418C80.468 35.3623 80.0845 35.8112 79.8629 36.2884L77.9538 35.6066C78.2947 34.8112 78.7493 34.1918 79.3175 33.7487C79.8913 33.2998 80.5163 32.9873 81.1925 32.8112C81.8743 32.6294 82.5447 32.5384 83.2038 32.5384C83.6243 32.5384 84.1072 32.5896 84.6527 32.6918C85.2038 32.7884 85.7351 32.9901 86.2464 33.297C86.7635 33.6038 87.1925 34.0669 87.5334 34.6862C87.8743 35.3055 88.0447 36.135 88.0447 37.1748V45.7998H86.0334V44.0271H85.9311C85.7947 44.3112 85.5675 44.6151 85.2493 44.939C84.9311 45.2629 84.5078 45.5384 83.9794 45.7657C83.451 45.993 82.8061 46.1066 82.0447 46.1066ZM82.3516 44.2998C83.147 44.2998 83.8175 44.1436 84.3629 43.8311C84.9141 43.5186 85.3288 43.1151 85.6072 42.6208C85.8913 42.1265 86.0334 41.6066 86.0334 41.0612V39.2203C85.9482 39.3225 85.7607 39.4163 85.4709 39.5015C85.1868 39.5811 84.8572 39.6521 84.4822 39.7146C84.1129 39.7714 83.7521 39.8225 83.3999 39.868C83.0533 39.9078 82.772 39.9419 82.5561 39.9703C82.0334 40.0384 81.5447 40.1492 81.0902 40.3026C80.6413 40.4504 80.2777 40.6748 79.9993 40.9759C79.7266 41.2714 79.5902 41.6748 79.5902 42.1862C79.5902 42.885 79.8487 43.4134 80.3658 43.7714C80.8885 44.1237 81.5504 44.2998 82.3516 44.2998ZM93.7273 28.3453V45.7998H91.7159V28.3453H93.7273ZM101.263 46.1066C100.434 46.1066 99.6811 45.9504 99.005 45.6379C98.3288 45.3197 97.7919 44.8623 97.3942 44.2657C96.9964 43.6634 96.7976 42.9362 96.7976 42.0839C96.7976 41.3339 96.9453 40.7259 97.2408 40.26C97.5362 39.7884 97.9311 39.4191 98.4254 39.1521C98.9197 38.885 99.4652 38.6862 100.062 38.5555C100.664 38.4191 101.269 38.3112 101.877 38.2316C102.673 38.1293 103.317 38.0526 103.812 38.0015C104.312 37.9447 104.675 37.8509 104.903 37.7203C105.136 37.5896 105.252 37.3623 105.252 37.0384V36.9703C105.252 36.1293 105.022 35.4759 104.562 35.01C104.107 34.5441 103.417 34.3112 102.491 34.3112C101.531 34.3112 100.778 34.5214 100.232 34.9418C99.6868 35.3623 99.3033 35.8112 99.0817 36.2884L97.1726 35.6066C97.5135 34.8112 97.968 34.1918 98.5362 33.7487C99.1101 33.2998 99.7351 32.9873 100.411 32.8112C101.093 32.6294 101.763 32.5384 102.423 32.5384C102.843 32.5384 103.326 32.5896 103.871 32.6918C104.423 32.7884 104.954 32.9901 105.465 33.297C105.982 33.6038 106.411 34.0669 106.752 34.6862C107.093 35.3055 107.263 36.135 107.263 37.1748V45.7998H105.252V44.0271H105.15C105.013 44.3112 104.786 44.6151 104.468 44.939C104.15 45.2629 103.727 45.5384 103.198 45.7657C102.67 45.993 102.025 46.1066 101.263 46.1066ZM101.57 44.2998C102.366 44.2998 103.036 44.1436 103.582 43.8311C104.133 43.5186 104.548 43.1151 104.826 42.6208C105.11 42.1265 105.252 41.6066 105.252 41.0612V39.2203C105.167 39.3225 104.979 39.4163 104.69 39.5015C104.406 39.5811 104.076 39.6521 103.701 39.7146C103.332 39.7714 102.971 39.8225 102.619 39.868C102.272 39.9078 101.991 39.9419 101.775 39.9703C101.252 40.0384 100.763 40.1492 100.309 40.3026C99.8601 40.4504 99.4964 40.6748 99.218 40.9759C98.9453 41.2714 98.8089 41.6748 98.8089 42.1862C98.8089 42.885 99.0675 43.4134 99.5845 43.7714C100.107 44.1237 100.769 44.2998 101.57 44.2998ZM120.207 35.6407L118.401 36.1521C118.287 35.8509 118.119 35.5583 117.898 35.2742C117.682 34.9845 117.386 34.7458 117.011 34.5583C116.636 34.3708 116.156 34.2771 115.571 34.2771C114.77 34.2771 114.102 34.4617 113.568 34.8311C113.04 35.1947 112.776 35.6578 112.776 36.2203C112.776 36.7203 112.957 37.1151 113.321 37.4049C113.685 37.6947 114.253 37.9362 115.026 38.1293L116.969 38.6066C118.139 38.8907 119.011 39.3254 119.585 39.9106C120.159 40.4901 120.446 41.2373 120.446 42.1521C120.446 42.9021 120.23 43.5725 119.798 44.1634C119.372 44.7544 118.776 45.2203 118.009 45.5612C117.241 45.9021 116.349 46.0725 115.332 46.0725C113.997 46.0725 112.892 45.7828 112.017 45.2032C111.142 44.6237 110.588 43.7771 110.355 42.6634L112.264 42.1862C112.446 42.8907 112.79 43.4191 113.295 43.7714C113.807 44.1237 114.474 44.2998 115.298 44.2998C116.236 44.2998 116.98 44.1009 117.531 43.7032C118.088 43.2998 118.366 42.8169 118.366 42.2543C118.366 41.7998 118.207 41.4191 117.889 41.1123C117.571 40.7998 117.082 40.5669 116.423 40.4134L114.241 39.9021C113.043 39.618 112.162 39.1776 111.599 38.5811C111.043 37.9788 110.764 37.2259 110.764 36.3225C110.764 35.5839 110.972 34.9305 111.386 34.3623C111.807 33.7941 112.378 33.3481 113.099 33.0242C113.827 32.7004 114.651 32.5384 115.571 32.5384C116.866 32.5384 117.884 32.8225 118.622 33.3907C119.366 33.9589 119.895 34.7089 120.207 35.6407ZM123.474 45.7998V32.7089H125.485V45.7998H123.474ZM124.496 30.5271C124.104 30.5271 123.766 30.3936 123.482 30.1265C123.204 29.8595 123.065 29.5384 123.065 29.1634C123.065 28.7884 123.204 28.4674 123.482 28.2004C123.766 27.9333 124.104 27.7998 124.496 27.7998C124.888 27.7998 125.224 27.9333 125.502 28.2004C125.786 28.4674 125.928 28.7884 125.928 29.1634C125.928 29.5384 125.786 29.8595 125.502 30.1265C125.224 30.3936 124.888 30.5271 124.496 30.5271ZM133.021 46.1066C132.192 46.1066 131.439 45.9504 130.763 45.6379C130.087 45.3197 129.55 44.8623 129.152 44.2657C128.754 43.6634 128.555 42.9362 128.555 42.0839C128.555 41.3339 128.703 40.7259 128.999 40.26C129.294 39.7884 129.689 39.4191 130.183 39.1521C130.678 38.885 131.223 38.6862 131.82 38.5555C132.422 38.4191 133.027 38.3112 133.635 38.2316C134.43 38.1293 135.075 38.0526 135.57 38.0015C136.07 37.9447 136.433 37.8509 136.661 37.7203C136.893 37.5896 137.01 37.3623 137.01 37.0384V36.9703C137.01 36.1293 136.78 35.4759 136.32 35.01C135.865 34.5441 135.175 34.3112 134.249 34.3112C133.288 34.3112 132.536 34.5214 131.99 34.9418C131.445 35.3623 131.061 35.8112 130.839 36.2884L128.93 35.6066C129.271 34.8112 129.726 34.1918 130.294 33.7487C130.868 33.2998 131.493 32.9873 132.169 32.8112C132.851 32.6294 133.521 32.5384 134.18 32.5384C134.601 32.5384 135.084 32.5896 135.629 32.6918C136.18 32.7884 136.712 32.9901 137.223 33.297C137.74 33.6038 138.169 34.0669 138.51 34.6862C138.851 35.3055 139.021 36.135 139.021 37.1748V45.7998H137.01V44.0271H136.908C136.771 44.3112 136.544 44.6151 136.226 44.939C135.908 45.2629 135.484 45.5384 134.956 45.7657C134.428 45.993 133.783 46.1066 133.021 46.1066ZM133.328 44.2998C134.124 44.2998 134.794 44.1436 135.339 43.8311C135.891 43.5186 136.305 43.1151 136.584 42.6208C136.868 42.1265 137.01 41.6066 137.01 41.0612V39.2203C136.925 39.3225 136.737 39.4163 136.447 39.5015C136.163 39.5811 135.834 39.6521 135.459 39.7146C135.089 39.7714 134.729 39.8225 134.376 39.868C134.03 39.9078 133.749 39.9419 133.533 39.9703C133.01 40.0384 132.521 40.1492 132.067 40.3026C131.618 40.4504 131.254 40.6748 130.976 40.9759C130.703 41.2714 130.567 41.6748 130.567 42.1862C130.567 42.885 130.825 43.4134 131.342 43.7714C131.865 44.1237 132.527 44.2998 133.328 44.2998Z" fill="#333333"/>
<g id="Price">
<path d="M37.8352 68.0725V108.8H28.0114V77.26H27.7727L18.6648 82.8282V74.3168L28.7074 68.0725H37.8352ZM63.1655 109.357C60.9382 109.357 58.8037 108.999 56.7621 108.283C54.7204 107.554 52.9041 106.4 51.3132 104.823C49.7223 103.232 48.4695 101.15 47.5547 98.5782C46.6399 95.993 46.1892 92.8443 46.2024 89.1322C46.2157 85.778 46.6267 82.7686 47.4354 80.1038C48.2441 77.4258 49.3975 75.1521 50.8956 73.2828C52.407 71.4134 54.21 69.9882 56.3047 69.0072C58.4126 68.0129 60.7659 67.5157 63.3643 67.5157C66.2147 67.5157 68.727 68.0725 70.9013 69.1862C73.0888 70.2865 74.8388 71.7714 76.1513 73.6407C77.4638 75.4968 78.2393 77.565 78.478 79.8453H68.7933C68.5017 78.5593 67.8587 77.5848 66.8643 76.922C65.8833 76.2458 64.7166 75.9078 63.3643 75.9078C60.8719 75.9078 59.0092 76.9882 57.7763 79.1492C56.5566 81.3102 55.9335 84.2004 55.907 87.8197H56.1655C56.7223 86.6 57.5244 85.5526 58.5717 84.6776C59.6191 83.8026 60.8189 83.1331 62.1712 82.6691C63.5367 82.1918 64.9818 81.9532 66.5064 81.9532C68.9458 81.9532 71.1001 82.5167 72.9695 83.6436C74.8388 84.7704 76.3037 86.315 77.3643 88.2771C78.425 90.2259 78.9486 92.4598 78.9354 94.9788C78.9486 97.8159 78.2857 100.322 76.9467 102.496C75.6077 104.657 73.7517 106.341 71.3786 107.547C69.0187 108.753 66.281 109.357 63.1655 109.357ZM63.1058 101.8C64.3123 101.8 65.3928 101.515 66.3473 100.945C67.3018 100.375 68.0509 99.599 68.5945 98.618C69.138 97.6369 69.4032 96.5299 69.3899 95.297C69.4032 94.0508 69.138 92.9437 68.5945 91.9759C68.0642 91.0081 67.3217 90.2392 66.3672 89.6691C65.4259 89.099 64.3454 88.814 63.1257 88.814C62.2375 88.814 61.4089 88.9797 60.6399 89.3112C59.871 89.6426 59.2015 90.1066 58.6314 90.7032C58.0746 91.2865 57.6371 91.9759 57.3189 92.7714C57.0007 93.5536 56.835 94.4021 56.8217 95.3169C56.835 96.5233 57.1134 97.617 57.657 98.5981C58.2005 99.5792 58.9429 100.361 59.8842 100.945C60.8255 101.515 61.8994 101.8 63.1058 101.8Z" fill="#333333"/>
<path d="M97.794 109.027C96.7713 109.027 95.8906 108.786 95.152 108.303C94.4134 107.82 93.8452 107.154 93.4474 106.307C93.0497 105.459 92.8509 104.491 92.8509 103.402C92.8509 102.294 93.0545 101.316 93.4616 100.469C93.8736 99.6166 94.4465 98.9513 95.1804 98.4731C95.919 97.9901 96.7808 97.7487 97.7656 97.7487C98.5327 97.7487 99.224 97.8907 99.8395 98.1748C100.455 98.4589 100.959 98.8566 101.352 99.368C101.745 99.8793 101.989 100.476 102.084 101.158H100.408C100.28 100.661 99.9957 100.22 99.5554 99.8367C99.1198 99.4485 98.5327 99.2543 97.794 99.2543C97.1406 99.2543 96.5677 99.4248 96.0753 99.7657C95.5876 100.102 95.2064 100.578 94.9318 101.193C94.6619 101.804 94.527 102.521 94.527 103.345C94.527 104.188 94.6596 104.922 94.9247 105.547C95.1946 106.172 95.5734 106.657 96.0611 107.003C96.5535 107.349 97.1312 107.521 97.794 107.521C98.2296 107.521 98.625 107.446 98.9801 107.294C99.3352 107.143 99.6359 106.925 99.8821 106.641C100.128 106.357 100.304 106.016 100.408 105.618H102.084C101.989 106.262 101.755 106.842 101.381 107.358C101.011 107.869 100.521 108.277 99.9105 108.58C99.3045 108.878 98.599 109.027 97.794 109.027ZM108.966 109.027C107.981 109.027 107.117 108.793 106.374 108.324C105.635 107.855 105.057 107.199 104.641 106.357C104.229 105.514 104.023 104.529 104.023 103.402C104.023 102.266 104.229 101.274 104.641 100.426C105.057 99.5787 105.635 98.9205 106.374 98.4518C107.117 97.983 107.981 97.7487 108.966 97.7487C109.951 97.7487 110.813 97.983 111.551 98.4518C112.295 98.9205 112.872 99.5787 113.284 100.426C113.701 101.274 113.909 102.266 113.909 103.402C113.909 104.529 113.701 105.514 113.284 106.357C112.872 107.199 112.295 107.855 111.551 108.324C110.813 108.793 109.951 109.027 108.966 109.027ZM108.966 107.521C109.714 107.521 110.33 107.33 110.812 106.946C111.295 106.563 111.653 106.058 111.885 105.433C112.117 104.808 112.233 104.131 112.233 103.402C112.233 102.673 112.117 101.993 111.885 101.364C111.653 100.734 111.295 100.225 110.812 99.8367C110.33 99.4485 109.714 99.2543 108.966 99.2543C108.218 99.2543 107.602 99.4485 107.119 99.8367C106.636 100.225 106.279 100.734 106.047 101.364C105.815 101.993 105.699 102.673 105.699 103.402C105.699 104.131 105.815 104.808 106.047 105.433C106.279 106.058 106.636 106.563 107.119 106.946C107.602 107.33 108.218 107.521 108.966 107.521ZM123.343 104.34V97.8907H125.019V108.8H123.343V106.953H123.229C122.973 107.507 122.576 107.978 122.036 108.367C121.496 108.75 120.814 108.942 119.99 108.942C119.309 108.942 118.703 108.793 118.172 108.494C117.642 108.191 117.225 107.737 116.922 107.131C116.619 106.52 116.468 105.751 116.468 104.823V97.8907H118.144V104.709C118.144 105.504 118.366 106.139 118.811 106.612C119.261 107.086 119.834 107.323 120.53 107.323C120.947 107.323 121.371 107.216 121.801 107.003C122.237 106.79 122.602 106.463 122.895 106.023C123.194 105.582 123.343 105.021 123.343 104.34ZM129.765 102.237V108.8H128.089V97.8907H129.708V99.5953H129.85C130.106 99.0413 130.494 98.5962 131.015 98.26C131.536 97.9191 132.208 97.7487 133.032 97.7487C133.771 97.7487 134.417 97.9002 134.971 98.2032C135.525 98.5015 135.956 98.9561 136.263 99.5668C136.571 100.173 136.725 100.94 136.725 101.868V108.8H135.049V101.982C135.049 101.125 134.826 100.457 134.381 99.9788C133.936 99.4958 133.326 99.2543 132.549 99.2543C132.014 99.2543 131.536 99.3704 131.114 99.6024C130.698 99.8344 130.369 100.173 130.127 100.618C129.886 101.063 129.765 101.603 129.765 102.237ZM144.532 97.8907V99.3112H138.879V97.8907H144.532ZM140.527 95.2771H142.203V105.675C142.203 106.148 142.271 106.503 142.409 106.74C142.551 106.972 142.731 107.128 142.949 107.209C143.171 107.285 143.405 107.323 143.652 107.323C143.836 107.323 143.988 107.313 144.106 107.294C144.225 107.27 144.319 107.252 144.39 107.237L144.731 108.743C144.618 108.786 144.459 108.828 144.255 108.871C144.052 108.918 143.794 108.942 143.481 108.942C143.008 108.942 142.544 108.84 142.089 108.636C141.639 108.433 141.265 108.123 140.967 107.706C140.673 107.289 140.527 106.764 140.527 106.129V95.2771ZM147.054 108.8V97.8907H148.673V99.5384H148.787C148.985 98.9987 149.345 98.5607 149.866 98.2245C150.387 97.8883 150.974 97.7203 151.627 97.7203C151.751 97.7203 151.904 97.7226 152.089 97.7274C152.274 97.7321 152.413 97.7392 152.508 97.7487V99.4532C152.451 99.439 152.321 99.4177 152.118 99.3893C151.919 99.3561 151.708 99.3396 151.485 99.3396C150.955 99.3396 150.482 99.4508 150.065 99.6734C149.653 99.8912 149.326 100.194 149.085 100.582C148.848 100.966 148.73 101.404 148.73 101.896V108.8H147.054ZM154.495 108.8V97.8907H156.171V108.8H154.495ZM155.347 96.0725C155.021 96.0725 154.739 95.9613 154.502 95.7387C154.27 95.5162 154.154 95.2487 154.154 94.9362C154.154 94.6237 154.27 94.3561 154.502 94.1336C154.739 93.9111 155.021 93.7998 155.347 93.7998C155.674 93.7998 155.953 93.9111 156.185 94.1336C156.422 94.3561 156.54 94.6237 156.54 94.9362C156.54 95.2487 156.422 95.5162 156.185 95.7387C155.953 95.9613 155.674 96.0725 155.347 96.0725ZM163.815 109.027C162.764 109.027 161.857 108.795 161.095 108.331C160.337 107.862 159.752 107.209 159.341 106.371C158.933 105.528 158.73 104.548 158.73 103.43C158.73 102.313 158.933 101.328 159.341 100.476C159.752 99.6189 160.325 98.9513 161.059 98.4731C161.798 97.9901 162.66 97.7487 163.645 97.7487C164.213 97.7487 164.774 97.8434 165.328 98.0328C165.882 98.2222 166.386 98.5299 166.841 98.9561C167.295 99.3775 167.657 99.9362 167.927 100.632C168.197 101.328 168.332 102.185 168.332 103.203V103.913H159.923V102.465H166.627C166.627 101.849 166.504 101.3 166.258 100.817C166.017 100.334 165.671 99.9527 165.221 99.6734C164.776 99.394 164.251 99.2543 163.645 99.2543C162.977 99.2543 162.399 99.4201 161.912 99.7515C161.429 100.078 161.057 100.504 160.797 101.03C160.536 101.555 160.406 102.119 160.406 102.72V103.686C160.406 104.51 160.548 105.208 160.832 105.781C161.121 106.35 161.521 106.783 162.032 107.081C162.544 107.375 163.138 107.521 163.815 107.521C164.255 107.521 164.653 107.46 165.008 107.337C165.368 107.209 165.678 107.02 165.939 106.769C166.199 106.513 166.4 106.196 166.542 105.817L168.162 106.271C167.991 106.821 167.705 107.304 167.302 107.72C166.9 108.132 166.403 108.454 165.811 108.686C165.219 108.913 164.554 109.027 163.815 109.027ZM178.609 100.334L177.103 100.76C177.009 100.509 176.869 100.265 176.684 100.028C176.504 99.787 176.258 99.5882 175.946 99.4319C175.633 99.2757 175.233 99.1975 174.745 99.1975C174.078 99.1975 173.521 99.3514 173.076 99.6592C172.636 99.9622 172.416 100.348 172.416 100.817C172.416 101.234 172.567 101.563 172.87 101.804C173.173 102.046 173.647 102.247 174.291 102.408L175.91 102.805C176.886 103.042 177.612 103.404 178.091 103.892C178.569 104.375 178.808 104.998 178.808 105.76C178.808 106.385 178.628 106.944 178.268 107.436C177.913 107.929 177.416 108.317 176.777 108.601C176.137 108.885 175.394 109.027 174.547 109.027C173.434 109.027 172.513 108.786 171.784 108.303C171.055 107.82 170.593 107.114 170.399 106.186L171.99 105.788C172.141 106.376 172.428 106.816 172.849 107.109C173.275 107.403 173.832 107.55 174.518 107.55C175.299 107.55 175.92 107.384 176.379 107.053C176.843 106.716 177.075 106.314 177.075 105.845C177.075 105.466 176.942 105.149 176.677 104.894C176.412 104.633 176.005 104.439 175.456 104.311L173.637 103.885C172.638 103.648 171.904 103.281 171.436 102.784C170.972 102.282 170.74 101.655 170.74 100.902C170.74 100.287 170.913 99.742 171.258 99.2686C171.609 98.7951 172.084 98.4234 172.686 98.1535C173.292 97.8836 173.978 97.7487 174.745 97.7487C175.825 97.7487 176.672 97.9854 177.288 98.4589C177.908 98.9324 178.349 99.5574 178.609 100.334Z" fill="#666666"/>
</g>
<g id="Ellipse 9" opacity="0.1" filter="url(#filter0_f_25_144)">
<ellipse cx="136.466" cy="-26.4184" rx="81.8101" ry="58.4566" fill="url(#paint0_linear_25_144)"/>
</g>
</g>
<rect x="0.5" y="0.5" width="277.4" height="136.6" rx="9.1" stroke="url(#paint1_linear_25_144)"/>
</g>
<defs>
<filter id="filter0_f_25_144" x="-21.5838" y="-161.115" width="316.101" height="269.393" filterUnits="userSpaceOnUse" color-interpolation-filters="sRGB">
<feFlood flood-opacity="0" result="BackgroundImageFix"/>
<feBlend mode="normal" in="SourceGraphic" in2="BackgroundImageFix" result="shape"/>
<feGaussianBlur stdDeviation="38.12" result="effect1_foregroundBlur_25_144"/>
</filter>
<linearGradient id="paint0_linear_25_144" x1="96.9381" y1="-84.875" x2="167.417" y2="-81.0875" gradientUnits="userSpaceOnUse">
<stop stop-color="#0066FF"/>
<stop offset="1" stop-color="#6506FF"/>
</linearGradient>
<linearGradient id="paint1_linear_25_144" x1="91.3289" y1="-1.92057e-06" x2="112.678" y2="140.153" gradientUnits="userSpaceOnUse">
<stop stop-color="#264E9E"/>
<stop offset="1" stop-color="#90A3CB" stop-opacity="0.1"/>
</linearGradient>
<clipPath id="clip0_25_144">
<rect width="278.4" height="137.6" rx="9.6" fill="white"/>
</clipPath>
</defs>
</svg>
