<svg width="311" height="139" viewBox="0 0 311 139" fill="none" xmlns="http://www.w3.org/2000/svg">
<g id="Plan to choose">
<g clip-path="url(#clip0_25_119)">
<rect y="0.300293" width="311" height="138" rx="9.6" fill="#186FD8" fill-opacity="0.2"/>
<path id="Title" d="M18.8295 46.1001H16.6136L23.0227 28.6456H25.2045L31.6136 46.1001H29.3977L24.1818 31.4069H24.0455L18.8295 46.1001ZM19.6477 39.2819H28.5795V41.1569H19.6477V39.2819ZM43.3324 35.941L41.5256 36.4524C41.4119 36.1512 41.2443 35.8586 41.0227 35.5745C40.8068 35.2848 40.5114 35.0461 40.1364 34.8586C39.7614 34.6711 39.2812 34.5774 38.696 34.5774C37.8949 34.5774 37.2273 34.762 36.6932 35.1313C36.1648 35.495 35.9006 35.9581 35.9006 36.5206C35.9006 37.0206 36.0824 37.4154 36.446 37.7052C36.8097 37.995 37.3778 38.2365 38.1506 38.4296L40.0938 38.9069C41.2642 39.191 42.1364 39.6257 42.7102 40.2109C43.2841 40.7904 43.571 41.5376 43.571 42.4524C43.571 43.2024 43.3551 43.8728 42.9233 44.4637C42.4972 45.0546 41.9006 45.5206 41.1335 45.8615C40.3665 46.2024 39.4744 46.3728 38.4574 46.3728C37.1222 46.3728 36.017 46.0831 35.142 45.5035C34.267 44.924 33.7131 44.0774 33.4801 42.9637L35.3892 42.4865C35.571 43.191 35.9148 43.7194 36.4205 44.0717C36.9318 44.424 37.5994 44.6001 38.4233 44.6001C39.3608 44.6001 40.1051 44.4012 40.6562 44.0035C41.2131 43.6001 41.4915 43.1171 41.4915 42.5546C41.4915 42.1001 41.3324 41.7194 41.0142 41.4126C40.696 41.1001 40.2074 40.8671 39.5483 40.7137L37.3665 40.2024C36.1676 39.9183 35.2869 39.4779 34.7244 38.8813C34.1676 38.2791 33.8892 37.5262 33.8892 36.6228C33.8892 35.8842 34.0966 35.2308 34.5114 34.6626C34.9318 34.0944 35.5028 33.6484 36.2244 33.3245C36.9517 33.0007 37.7756 32.8387 38.696 32.8387C39.9915 32.8387 41.0085 33.1228 41.7472 33.691C42.4915 34.2592 43.0199 35.0092 43.3324 35.941ZM46.5987 46.1001V33.0092H48.6101V46.1001H46.5987ZM47.6214 30.8274C47.2294 30.8274 46.8913 30.6938 46.6072 30.4268C46.3288 30.1598 46.1896 29.8387 46.1896 29.4637C46.1896 29.0887 46.3288 28.7677 46.6072 28.5007C46.8913 28.2336 47.2294 28.1001 47.6214 28.1001C48.0135 28.1001 48.3487 28.2336 48.6271 28.5007C48.9112 28.7677 49.0533 29.0887 49.0533 29.4637C49.0533 29.8387 48.9112 30.1598 48.6271 30.4268C48.3487 30.6938 48.0135 30.8274 47.6214 30.8274ZM56.1463 46.4069C55.3168 46.4069 54.5639 46.2507 53.8878 45.9382C53.2116 45.62 52.6747 45.1626 52.277 44.566C51.8793 43.9637 51.6804 43.2365 51.6804 42.3842C51.6804 41.6342 51.8281 41.0262 52.1236 40.5603C52.419 40.0887 52.8139 39.7194 53.3082 39.4524C53.8026 39.1853 54.348 38.9865 54.9446 38.8558C55.5469 38.7194 56.152 38.6115 56.7599 38.5319C57.5554 38.4296 58.2003 38.3529 58.6946 38.3018C59.1946 38.245 59.5582 38.1512 59.7855 38.0206C60.0185 37.8899 60.1349 37.6626 60.1349 37.3387V37.2706C60.1349 36.4296 59.9048 35.7762 59.4446 35.3103C58.9901 34.8444 58.2997 34.6115 57.3736 34.6115C56.4134 34.6115 55.6605 34.8217 55.1151 35.2421C54.5696 35.6626 54.1861 36.1115 53.9645 36.5887L52.0554 35.9069C52.3963 35.1115 52.8509 34.4921 53.419 34.049C53.9929 33.6001 54.6179 33.2876 55.294 33.1115C55.9759 32.9296 56.6463 32.8387 57.3054 32.8387C57.7259 32.8387 58.2088 32.8899 58.7543 32.9921C59.3054 33.0887 59.8366 33.2904 60.348 33.5973C60.8651 33.9041 61.294 34.3671 61.6349 34.9865C61.9759 35.6058 62.1463 36.4353 62.1463 37.4751V46.1001H60.1349V44.3274H60.0327C59.8963 44.6115 59.669 44.9154 59.3509 45.2393C59.0327 45.5632 58.6094 45.8387 58.081 46.066C57.5526 46.2933 56.9077 46.4069 56.1463 46.4069ZM56.4531 44.6001C57.2486 44.6001 57.919 44.4438 58.4645 44.1313C59.0156 43.8188 59.4304 43.4154 59.7088 42.9211C59.9929 42.4268 60.1349 41.9069 60.1349 41.3615V39.5206C60.0497 39.6228 59.8622 39.7166 59.5724 39.8018C59.2884 39.8813 58.9588 39.9524 58.5838 40.0149C58.2145 40.0717 57.8537 40.1228 57.5014 40.1683C57.1548 40.2081 56.8736 40.2421 56.6577 40.2706C56.1349 40.3387 55.6463 40.4495 55.1918 40.6029C54.7429 40.7507 54.3793 40.9751 54.1009 41.2762C53.8281 41.5717 53.6918 41.9751 53.6918 42.4865C53.6918 43.1853 53.9503 43.7137 54.4673 44.0717C54.9901 44.424 55.652 44.6001 56.4531 44.6001Z" fill="#333333"/>
<g id="Price">
<path d="M18.5057 102.339V94.6626L35.1903 68.3728H42.0114V78.7933H38.054L28.2898 94.2649V94.5831H52.4517V102.339H18.5057ZM38.1733 109.1V99.9921L38.3722 96.6313V68.3728H47.5795V109.1H38.1733ZM73.5213 109.657C70.3527 109.657 67.5223 109.153 65.0298 108.146C62.5507 107.125 60.6018 105.746 59.1832 104.009C57.7779 102.259 57.0753 100.284 57.0753 98.0831C57.0753 96.3993 57.4796 94.8548 58.2884 93.4495C59.0971 92.0442 60.1908 90.8776 61.5696 89.9495C62.9616 89.0082 64.5128 88.405 66.223 88.1399V87.8217C63.9825 87.4107 62.1463 86.37 60.7145 84.6995C59.2959 83.0291 58.5866 81.0736 58.5866 78.833C58.5866 76.7118 59.2296 74.8226 60.5156 73.1654C61.8149 71.5082 63.5848 70.2024 65.8253 69.2478C68.0791 68.2933 70.6444 67.816 73.5213 67.816C76.3982 67.816 78.9569 68.2933 81.1974 69.2478C83.4512 70.2024 85.2211 71.5082 86.5071 73.1654C87.8063 74.8226 88.456 76.7118 88.456 78.833C88.456 81.0868 87.7334 83.049 86.2884 84.7194C84.8565 86.3766 83.0336 87.4107 80.8196 87.8217V88.1399C82.5166 88.405 84.0545 89.0082 85.4332 89.9495C86.8253 90.8776 87.9257 92.0442 88.7344 93.4495C89.5563 94.8548 89.9673 96.3993 89.9673 98.0831C89.9673 100.284 89.258 102.259 87.8395 104.009C86.4209 105.746 84.4721 107.125 81.9929 108.146C79.527 109.153 76.7031 109.657 73.5213 109.657ZM73.5213 102.677C74.7277 102.677 75.7884 102.451 76.7031 102.001C77.6179 101.537 78.3338 100.894 78.8509 100.072C79.3812 99.2497 79.6463 98.3217 79.6463 97.2876C79.6463 96.227 79.3812 95.2857 78.8509 94.4637C78.3206 93.6418 77.5914 92.9988 76.6634 92.5348C75.7486 92.0575 74.7012 91.8188 73.5213 91.8188C72.3546 91.8188 71.3073 92.0575 70.3793 92.5348C69.4512 92.9988 68.7221 93.6418 68.1918 94.4637C67.6615 95.2857 67.3963 96.227 67.3963 97.2876C67.3963 98.3217 67.6548 99.2497 68.1719 100.072C68.7022 100.88 69.4247 101.517 70.3395 101.981C71.2675 102.445 72.3281 102.677 73.5213 102.677ZM73.5213 84.8785C74.5554 84.8785 75.4702 84.6664 76.2656 84.2421C77.0743 83.8179 77.7041 83.2279 78.1548 82.4723C78.6188 81.7166 78.8509 80.8615 78.8509 79.9069C78.8509 78.9524 78.6188 78.1105 78.1548 77.3813C77.7041 76.6522 77.081 76.0821 76.2855 75.6711C75.4901 75.2469 74.5687 75.0348 73.5213 75.0348C72.4872 75.0348 71.5658 75.2469 70.7571 75.6711C69.9484 76.0821 69.3187 76.6522 68.8679 77.3813C68.4171 78.1105 68.1918 78.9524 68.1918 79.9069C68.1918 80.8615 68.4171 81.7166 68.8679 82.4723C69.3319 83.2147 69.9683 83.8046 70.777 84.2421C71.5857 84.6664 72.5005 84.8785 73.5213 84.8785Z" fill="#333333"/>
<path d="M108.732 109.327C107.709 109.327 106.828 109.086 106.089 108.603C105.351 108.12 104.783 107.455 104.385 106.607C103.987 105.76 103.788 104.791 103.788 103.702C103.788 102.594 103.992 101.617 104.399 100.769C104.811 99.9169 105.384 99.2516 106.118 98.7734C106.857 98.2904 107.718 98.049 108.703 98.049C109.47 98.049 110.161 98.191 110.777 98.4751C111.393 98.7592 111.897 99.1569 112.29 99.6683C112.683 100.18 112.927 100.776 113.021 101.458H111.345C111.217 100.961 110.933 100.521 110.493 100.137C110.057 99.7488 109.47 99.5546 108.732 99.5546C108.078 99.5546 107.505 99.7251 107.013 100.066C106.525 100.402 106.144 100.878 105.869 101.494C105.599 102.104 105.464 102.822 105.464 103.646C105.464 104.488 105.597 105.222 105.862 105.847C106.132 106.472 106.511 106.958 106.999 107.303C107.491 107.649 108.069 107.822 108.732 107.822C109.167 107.822 109.562 107.746 109.918 107.594C110.273 107.443 110.573 107.225 110.82 106.941C111.066 106.657 111.241 106.316 111.345 105.918H113.021C112.927 106.562 112.692 107.142 112.318 107.658C111.949 108.17 111.459 108.577 110.848 108.88C110.242 109.178 109.536 109.327 108.732 109.327ZM119.903 109.327C118.919 109.327 118.054 109.093 117.311 108.624C116.572 108.155 115.995 107.5 115.578 106.657C115.166 105.814 114.96 104.829 114.96 103.702C114.96 102.566 115.166 101.574 115.578 100.727C115.995 99.879 116.572 99.2208 117.311 98.7521C118.054 98.2833 118.919 98.049 119.903 98.049C120.888 98.049 121.75 98.2833 122.489 98.7521C123.232 99.2208 123.81 99.879 124.222 100.727C124.638 101.574 124.847 102.566 124.847 103.702C124.847 104.829 124.638 105.814 124.222 106.657C123.81 107.5 123.232 108.155 122.489 108.624C121.75 109.093 120.888 109.327 119.903 109.327ZM119.903 107.822C120.652 107.822 121.267 107.63 121.75 107.246C122.233 106.863 122.59 106.359 122.822 105.734C123.054 105.109 123.17 104.432 123.17 103.702C123.17 102.973 123.054 102.294 122.822 101.664C122.59 101.034 122.233 100.525 121.75 100.137C121.267 99.7488 120.652 99.5546 119.903 99.5546C119.155 99.5546 118.54 99.7488 118.057 100.137C117.574 100.525 117.216 101.034 116.984 101.664C116.752 102.294 116.636 102.973 116.636 103.702C116.636 104.432 116.752 105.109 116.984 105.734C117.216 106.359 117.574 106.863 118.057 107.246C118.54 107.63 119.155 107.822 119.903 107.822ZM134.28 104.64V98.191H135.956V109.1H134.28V107.254H134.167C133.911 107.807 133.513 108.279 132.973 108.667C132.434 109.05 131.752 109.242 130.928 109.242C130.246 109.242 129.64 109.093 129.11 108.795C128.579 108.492 128.163 108.037 127.86 107.431C127.557 106.82 127.405 106.051 127.405 105.123V98.191H129.081V105.009C129.081 105.805 129.304 106.439 129.749 106.913C130.199 107.386 130.772 107.623 131.468 107.623C131.884 107.623 132.308 107.516 132.739 107.303C133.175 107.09 133.539 106.763 133.833 106.323C134.131 105.883 134.28 105.322 134.28 104.64ZM140.702 102.538V109.1H139.026V98.191H140.646V99.8956H140.788C141.043 99.3416 141.432 98.8965 141.952 98.5603C142.473 98.2194 143.146 98.049 143.969 98.049C144.708 98.049 145.354 98.2005 145.908 98.5035C146.462 98.8018 146.893 99.2563 147.201 99.8671C147.509 100.473 147.663 101.24 147.663 102.168V109.1H145.987V102.282C145.987 101.425 145.764 100.757 145.319 100.279C144.874 99.7961 144.263 99.5546 143.487 99.5546C142.951 99.5546 142.473 99.6706 142.052 99.9027C141.635 100.135 141.306 100.473 141.065 100.918C140.823 101.363 140.702 101.903 140.702 102.538ZM155.47 98.191V99.6115H149.816V98.191H155.47ZM151.464 95.5774H153.14V105.975C153.14 106.449 153.209 106.804 153.346 107.04C153.488 107.272 153.668 107.429 153.886 107.509C154.109 107.585 154.343 107.623 154.589 107.623C154.774 107.623 154.925 107.613 155.044 107.594C155.162 107.571 155.257 107.552 155.328 107.538L155.669 109.043C155.555 109.086 155.396 109.129 155.193 109.171C154.989 109.218 154.731 109.242 154.419 109.242C153.945 109.242 153.481 109.14 153.027 108.937C152.577 108.733 152.203 108.423 151.904 108.006C151.611 107.59 151.464 107.064 151.464 106.43V95.5774ZM157.991 109.1V98.191H159.61V99.8387H159.724C159.923 99.299 160.283 98.861 160.804 98.5248C161.324 98.1886 161.912 98.0206 162.565 98.0206C162.688 98.0206 162.842 98.0229 163.027 98.0277C163.211 98.0324 163.351 98.0395 163.446 98.049V99.7535C163.389 99.7393 163.259 99.718 163.055 99.6896C162.856 99.6564 162.645 99.6399 162.423 99.6399C161.893 99.6399 161.419 99.7511 161.002 99.9737C160.591 100.191 160.264 100.495 160.022 100.883C159.786 101.266 159.667 101.704 159.667 102.197V109.1H157.991ZM165.433 109.1V98.191H167.109V109.1H165.433ZM166.285 96.3728C165.958 96.3728 165.676 96.2616 165.44 96.039C165.208 95.8165 165.092 95.549 165.092 95.2365C165.092 94.924 165.208 94.6564 165.44 94.4339C165.676 94.2114 165.958 94.1001 166.285 94.1001C166.612 94.1001 166.891 94.2114 167.123 94.4339C167.36 94.6564 167.478 94.924 167.478 95.2365C167.478 95.549 167.36 95.8165 167.123 96.039C166.891 96.2616 166.612 96.3728 166.285 96.3728ZM174.752 109.327C173.701 109.327 172.795 109.095 172.032 108.631C171.275 108.163 170.69 107.509 170.278 106.671C169.871 105.828 169.667 104.848 169.667 103.731C169.667 102.613 169.871 101.629 170.278 100.776C170.69 99.9192 171.263 99.2516 171.997 98.7734C172.735 98.2904 173.597 98.049 174.582 98.049C175.15 98.049 175.711 98.1437 176.265 98.3331C176.819 98.5224 177.324 98.8302 177.778 99.2563C178.233 99.6777 178.595 100.236 178.865 100.932C179.135 101.629 179.27 102.486 179.27 103.504V104.214H170.86V102.765H177.565C177.565 102.149 177.442 101.6 177.196 101.117C176.954 100.634 176.609 100.253 176.159 99.9737C175.714 99.6943 175.188 99.5546 174.582 99.5546C173.914 99.5546 173.337 99.7204 172.849 100.052C172.366 100.379 171.994 100.805 171.734 101.33C171.474 101.856 171.343 102.419 171.343 103.021V103.986C171.343 104.81 171.485 105.509 171.77 106.082C172.058 106.65 172.458 107.083 172.97 107.381C173.481 107.675 174.075 107.822 174.752 107.822C175.193 107.822 175.591 107.76 175.946 107.637C176.306 107.509 176.616 107.32 176.876 107.069C177.136 106.813 177.338 106.496 177.48 106.117L179.099 106.572C178.929 107.121 178.642 107.604 178.24 108.021C177.837 108.432 177.34 108.754 176.748 108.986C176.156 109.214 175.491 109.327 174.752 109.327ZM189.547 100.634L188.041 101.06C187.946 100.809 187.806 100.566 187.622 100.329C187.442 100.087 187.196 99.8884 186.883 99.7322C186.571 99.5759 186.171 99.4978 185.683 99.4978C185.015 99.4978 184.459 99.6517 184.014 99.9595C183.574 100.263 183.353 100.648 183.353 101.117C183.353 101.534 183.505 101.863 183.808 102.104C184.111 102.346 184.584 102.547 185.228 102.708L186.848 103.106C187.823 103.343 188.55 103.705 189.028 104.192C189.506 104.675 189.745 105.298 189.745 106.06C189.745 106.685 189.565 107.244 189.206 107.736C188.85 108.229 188.353 108.617 187.714 108.901C187.075 109.185 186.332 109.327 185.484 109.327C184.371 109.327 183.45 109.086 182.721 108.603C181.992 108.12 181.53 107.414 181.336 106.486L182.927 106.089C183.079 106.676 183.365 107.116 183.787 107.41C184.213 107.703 184.769 107.85 185.456 107.85C186.237 107.85 186.857 107.684 187.316 107.353C187.78 107.017 188.012 106.614 188.012 106.146C188.012 105.767 187.88 105.45 187.615 105.194C187.35 104.933 186.942 104.739 186.393 104.611L184.575 104.185C183.576 103.949 182.842 103.582 182.373 103.084C181.909 102.583 181.677 101.955 181.677 101.202C181.677 100.587 181.85 100.042 182.196 99.5688C182.546 99.0954 183.022 98.7237 183.623 98.4538C184.229 98.1839 184.916 98.049 185.683 98.049C186.762 98.049 187.61 98.2857 188.225 98.7592C188.846 99.2327 189.286 99.8577 189.547 100.634Z" fill="#666666"/>
</g>
<g id="Ellipse 9" opacity="0.1" filter="url(#filter0_f_25_119)">
<ellipse cx="136.466" cy="-26.1181" rx="81.8101" ry="58.4566" fill="url(#paint0_linear_25_119)"/>
</g>
</g>
<rect x="0.5" y="0.800293" width="310" height="137" rx="9.1" stroke="url(#paint1_linear_25_119)"/>
</g>
<defs>
<filter id="filter0_f_25_119" x="-21.5838" y="-160.815" width="316.101" height="269.393" filterUnits="userSpaceOnUse" color-interpolation-filters="sRGB">
<feFlood flood-opacity="0" result="BackgroundImageFix"/>
<feBlend mode="normal" in="SourceGraphic" in2="BackgroundImageFix" result="shape"/>
<feGaussianBlur stdDeviation="38.12" result="effect1_foregroundBlur_25_119"/>
</filter>
<linearGradient id="paint0_linear_25_119" x1="96.9381" y1="-84.5747" x2="167.417" y2="-80.7872" gradientUnits="userSpaceOnUse">
<stop stop-color="#0066FF"/>
<stop offset="1" stop-color="#6506FF"/>
</linearGradient>
<linearGradient id="paint1_linear_25_119" x1="102.023" y1="0.300291" x2="121.33" y2="141.482" gradientUnits="userSpaceOnUse">
<stop stop-color="#264E9E"/>
<stop offset="1" stop-color="#90A3CB" stop-opacity="0.1"/>
</linearGradient>
<clipPath id="clip0_25_119">
<rect y="0.300293" width="311" height="138" rx="9.6" fill="white"/>
</clipPath>
</defs>
</svg>
