<svg width="279" height="138" viewBox="0 0 279 138" fill="none" xmlns="http://www.w3.org/2000/svg">
<g id="Plan to choose">
<g clip-path="url(#clip0_25_134)">
<rect y="0.200195" width="278.4" height="137.6" rx="9.6" fill="#186FD8" fill-opacity="0.2"/>
<path id="Title" d="M27.6591 32.9091C27.5568 32.0455 27.142 31.375 26.4148 30.8977C25.6875 30.4205 24.7955 30.1818 23.7386 30.1818C22.9659 30.1818 22.2898 30.3068 21.7102 30.5568C21.1364 30.8068 20.6875 31.1506 20.3636 31.5881C20.0455 32.0256 19.8864 32.5227 19.8864 33.0795C19.8864 33.5455 19.9972 33.946 20.2188 34.2812C20.446 34.6108 20.7358 34.8864 21.0881 35.108C21.4403 35.3239 21.8097 35.5028 22.196 35.6449C22.5824 35.7812 22.9375 35.892 23.2614 35.9773L25.0341 36.4545C25.4886 36.5739 25.9943 36.7386 26.5511 36.9489C27.1136 37.1591 27.6506 37.446 28.1619 37.8097C28.679 38.1676 29.1051 38.6278 29.4403 39.1903C29.7756 39.7528 29.9432 40.4432 29.9432 41.2614C29.9432 42.2045 29.696 43.0568 29.2017 43.8182C28.7131 44.5795 27.9972 45.1847 27.054 45.6335C26.1165 46.0824 24.9773 46.3068 23.6364 46.3068C22.3864 46.3068 21.304 46.1051 20.3892 45.7017C19.4801 45.2983 18.7642 44.7358 18.2415 44.0142C17.7244 43.2926 17.4318 42.4545 17.3636 41.5H19.5455C19.6023 42.1591 19.8239 42.7045 20.2102 43.1364C20.6023 43.5625 21.0966 43.8807 21.6932 44.0909C22.2955 44.2955 22.9432 44.3977 23.6364 44.3977C24.4432 44.3977 25.1676 44.267 25.8097 44.0057C26.4517 43.7386 26.9602 43.3693 27.3352 42.8977C27.7102 42.4205 27.8977 41.8636 27.8977 41.2273C27.8977 40.6477 27.7358 40.1761 27.4119 39.8125C27.0881 39.4489 26.6619 39.1534 26.1335 38.9261C25.6051 38.6989 25.0341 38.5 24.4205 38.3295L22.2727 37.7159C20.9091 37.3239 19.8295 36.7642 19.0341 36.0369C18.2386 35.3097 17.8409 34.358 17.8409 33.1818C17.8409 32.2045 18.1051 31.3523 18.6335 30.625C19.1676 29.892 19.8835 29.3239 20.7812 28.9205C21.6847 28.5114 22.6932 28.3068 23.8068 28.3068C24.9318 28.3068 25.9318 28.5085 26.8068 28.9119C27.6818 29.3097 28.375 29.8551 28.8864 30.5483C29.4034 31.2415 29.6761 32.0284 29.7045 32.9091H27.6591ZM38.4638 46.2727C37.282 46.2727 36.245 45.9915 35.353 45.429C34.4666 44.8665 33.7734 44.0795 33.2734 43.0682C32.7791 42.0568 32.532 40.875 32.532 39.5227C32.532 38.1591 32.7791 36.9687 33.2734 35.9517C33.7734 34.9347 34.4666 34.1449 35.353 33.5824C36.245 33.0199 37.282 32.7386 38.4638 32.7386C39.6456 32.7386 40.6797 33.0199 41.5661 33.5824C42.4581 34.1449 43.1513 34.9347 43.6456 35.9517C44.1456 36.9687 44.3956 38.1591 44.3956 39.5227C44.3956 40.875 44.1456 42.0568 43.6456 43.0682C43.1513 44.0795 42.4581 44.8665 41.5661 45.429C40.6797 45.9915 39.6456 46.2727 38.4638 46.2727ZM38.4638 44.4659C39.3615 44.4659 40.1001 44.2358 40.6797 43.7756C41.2592 43.3153 41.6882 42.7102 41.9666 41.9602C42.245 41.2102 42.3842 40.3977 42.3842 39.5227C42.3842 38.6477 42.245 37.8324 41.9666 37.0767C41.6882 36.321 41.2592 35.7102 40.6797 35.2443C40.1001 34.7784 39.3615 34.5455 38.4638 34.5455C37.5661 34.5455 36.8274 34.7784 36.2479 35.2443C35.6683 35.7102 35.2393 36.321 34.9609 37.0767C34.6825 37.8324 34.5433 38.6477 34.5433 39.5227C34.5433 40.3977 34.6825 41.2102 34.9609 41.9602C35.2393 42.7102 35.6683 43.3153 36.2479 43.7756C36.8274 44.2358 37.5661 44.4659 38.4638 44.4659ZM55.7159 40.6477V32.9091H57.7273V46H55.7159V43.7841H55.5795C55.2727 44.4489 54.7955 45.0142 54.1477 45.4801C53.5 45.9403 52.6818 46.1705 51.6932 46.1705C50.875 46.1705 50.1477 45.9915 49.5114 45.6335C48.875 45.2699 48.375 44.7244 48.0114 43.9972C47.6477 43.2642 47.4659 42.3409 47.4659 41.2273V32.9091H49.4773V41.0909C49.4773 42.0455 49.7443 42.8068 50.2784 43.375C50.8182 43.9432 51.5057 44.2273 52.3409 44.2273C52.8409 44.2273 53.3494 44.0994 53.8665 43.8438C54.3892 43.5881 54.8267 43.196 55.179 42.6676C55.5369 42.1392 55.7159 41.4659 55.7159 40.6477ZM67.1044 32.9091V34.6136H60.3203V32.9091H67.1044ZM62.2976 29.7727H64.3089V42.25C64.3089 42.8182 64.3913 43.2443 64.5561 43.5284C64.7266 43.8068 64.9425 43.9943 65.2038 44.0909C65.4709 44.1818 65.7521 44.2273 66.0476 44.2273C66.2692 44.2273 66.451 44.2159 66.593 44.1932C66.7351 44.1648 66.8487 44.142 66.9339 44.125L67.343 45.9318C67.2067 45.983 67.0163 46.0341 66.772 46.0852C66.5277 46.142 66.218 46.1705 65.843 46.1705C65.2749 46.1705 64.718 46.0483 64.1726 45.804C63.6328 45.5597 63.1839 45.1875 62.826 44.6875C62.4737 44.1875 62.2976 43.5568 62.2976 42.7955V29.7727ZM72.4226 38.125V46H70.4112V28.5455H72.4226V34.9545H72.593C72.8999 34.2784 73.3601 33.7415 73.9737 33.3438C74.593 32.9403 75.4169 32.7386 76.4453 32.7386C77.3374 32.7386 78.1186 32.9176 78.7891 33.2756C79.4595 33.6278 79.9794 34.1705 80.3487 34.9034C80.7237 35.6307 80.9112 36.5568 80.9112 37.6818V46H78.8999V37.8182C78.8999 36.7784 78.63 35.9744 78.0902 35.4062C77.5561 34.8324 76.8146 34.5455 75.8658 34.5455C75.2067 34.5455 74.6158 34.6847 74.093 34.9631C73.576 35.2415 73.1669 35.6477 72.8658 36.1818C72.5703 36.7159 72.4226 37.3636 72.4226 38.125Z" fill="#333333"/>
<g id="Price">
<path d="M37.8352 68.2727V109H28.0114V77.4602H27.7727L18.6648 83.0284V74.517L28.7074 68.2727H37.8352ZM46.8388 109V101.92L61.6939 88.9148C62.8075 87.9072 63.7554 86.9858 64.5376 86.1506C65.3198 85.3021 65.9164 84.4536 66.3274 83.6051C66.7384 82.7434 66.9439 81.8087 66.9439 80.8011C66.9439 79.6742 66.6986 78.7131 66.2081 77.9176C65.7176 77.1089 65.0414 76.4858 64.1797 76.0483C63.3179 75.6108 62.3303 75.392 61.2166 75.392C60.0897 75.392 59.102 75.6241 58.2536 76.0881C57.4051 76.5388 56.7422 77.1951 56.2649 78.0568C55.8009 78.9186 55.5689 79.9659 55.5689 81.1989H46.2422C46.2422 78.428 46.8653 76.035 48.1115 74.0199C49.3577 72.0047 51.1077 70.4536 53.3615 69.3665C55.6286 68.2661 58.2602 67.7159 61.2564 67.7159C64.3454 67.7159 67.0301 68.233 69.3104 69.267C71.5907 70.3011 73.3539 71.7462 74.6001 73.6023C75.8596 75.4451 76.4893 77.5862 76.4893 80.0256C76.4893 81.5767 76.1778 83.1146 75.5547 84.6392C74.9316 86.1638 73.8113 87.8475 72.1939 89.6903C70.5897 91.5331 68.3094 93.7405 65.353 96.3125L60.4808 100.807V101.065H76.9865V109H46.8388Z" fill="#333333"/>
<path d="M95.8253 109.227C94.8026 109.227 93.9219 108.986 93.1832 108.503C92.4446 108.02 91.8764 107.355 91.4787 106.507C91.081 105.66 90.8821 104.691 90.8821 103.602C90.8821 102.494 91.0857 101.517 91.4929 100.669C91.9048 99.8168 92.4777 99.1515 93.2116 98.6733C93.9503 98.1903 94.812 97.9489 95.7969 97.9489C96.5639 97.9489 97.2552 98.0909 97.8707 98.375C98.4863 98.6591 98.9905 99.0568 99.3835 99.5682C99.7765 100.08 100.02 100.676 100.115 101.358H98.4389C98.3111 100.861 98.027 100.42 97.5866 100.037C97.151 99.6487 96.5639 99.4545 95.8253 99.4545C95.1719 99.4545 94.599 99.625 94.1065 99.9659C93.6188 100.302 93.2377 100.778 92.9631 101.393C92.6932 102.004 92.5582 102.722 92.5582 103.545C92.5582 104.388 92.6908 105.122 92.956 105.747C93.2259 106.372 93.6046 106.857 94.0923 107.203C94.5848 107.549 95.1624 107.722 95.8253 107.722C96.2609 107.722 96.6562 107.646 97.0114 107.494C97.3665 107.343 97.6671 107.125 97.9134 106.841C98.1596 106.557 98.3348 106.216 98.4389 105.818H100.115C100.02 106.462 99.786 107.042 99.4119 107.558C99.0426 108.07 98.5526 108.477 97.9418 108.78C97.3357 109.078 96.6302 109.227 95.8253 109.227ZM106.997 109.227C106.012 109.227 105.148 108.993 104.405 108.524C103.666 108.055 103.089 107.4 102.672 106.557C102.26 105.714 102.054 104.729 102.054 103.602C102.054 102.466 102.26 101.474 102.672 100.626C103.089 99.7789 103.666 99.1207 104.405 98.652C105.148 98.1832 106.012 97.9489 106.997 97.9489C107.982 97.9489 108.844 98.1832 109.582 98.652C110.326 99.1207 110.903 99.7789 111.315 100.626C111.732 101.474 111.94 102.466 111.94 103.602C111.94 104.729 111.732 105.714 111.315 106.557C110.903 107.4 110.326 108.055 109.582 108.524C108.844 108.993 107.982 109.227 106.997 109.227ZM106.997 107.722C107.745 107.722 108.361 107.53 108.844 107.146C109.327 106.763 109.684 106.259 109.916 105.634C110.148 105.009 110.264 104.331 110.264 103.602C110.264 102.873 110.148 102.194 109.916 101.564C109.684 100.934 109.327 100.425 108.844 100.037C108.361 99.6487 107.745 99.4545 106.997 99.4545C106.249 99.4545 105.634 99.6487 105.151 100.037C104.668 100.425 104.31 100.934 104.078 101.564C103.846 102.194 103.73 102.873 103.73 103.602C103.73 104.331 103.846 105.009 104.078 105.634C104.31 106.259 104.668 106.763 105.151 107.146C105.634 107.53 106.249 107.722 106.997 107.722ZM121.374 104.54V98.0909H123.05V109H121.374V107.153H121.26C121.005 107.707 120.607 108.179 120.067 108.567C119.527 108.95 118.846 109.142 118.022 109.142C117.34 109.142 116.734 108.993 116.203 108.695C115.673 108.392 115.257 107.937 114.953 107.331C114.65 106.72 114.499 105.951 114.499 105.023V98.0909H116.175V104.909C116.175 105.705 116.398 106.339 116.843 106.812C117.292 107.286 117.865 107.523 118.561 107.523C118.978 107.523 119.402 107.416 119.833 107.203C120.268 106.99 120.633 106.663 120.926 106.223C121.225 105.783 121.374 105.222 121.374 104.54ZM127.796 102.438V109H126.12V98.0909H127.739V99.7955H127.881C128.137 99.2415 128.525 98.7964 129.046 98.4602C129.567 98.1193 130.239 97.9489 131.063 97.9489C131.802 97.9489 132.448 98.1004 133.002 98.4034C133.556 98.7017 133.987 99.1562 134.295 99.767C134.603 100.373 134.756 101.14 134.756 102.068V109H133.08V102.182C133.08 101.325 132.858 100.657 132.413 100.179C131.968 99.696 131.357 99.4545 130.58 99.4545C130.045 99.4545 129.567 99.5705 129.146 99.8026C128.729 100.035 128.4 100.373 128.158 100.818C127.917 101.263 127.796 101.803 127.796 102.438ZM142.564 98.0909V99.5114H136.91V98.0909H142.564ZM138.558 95.4773H140.234V105.875C140.234 106.348 140.303 106.704 140.44 106.94C140.582 107.172 140.762 107.329 140.98 107.409C141.202 107.485 141.437 107.523 141.683 107.523C141.868 107.523 142.019 107.513 142.137 107.494C142.256 107.471 142.35 107.452 142.422 107.438L142.762 108.943C142.649 108.986 142.49 109.028 142.287 109.071C142.083 109.118 141.825 109.142 141.512 109.142C141.039 109.142 140.575 109.04 140.12 108.837C139.671 108.633 139.297 108.323 138.998 107.906C138.705 107.49 138.558 106.964 138.558 106.33V95.4773ZM145.085 109V98.0909H146.704V99.7386H146.818C147.017 99.1989 147.377 98.7609 147.897 98.4247C148.418 98.0885 149.005 97.9205 149.659 97.9205C149.782 97.9205 149.936 97.9228 150.12 97.9276C150.305 97.9323 150.445 97.9394 150.539 97.9489V99.6534C150.483 99.6392 150.352 99.6179 150.149 99.5895C149.95 99.5563 149.739 99.5398 149.517 99.5398C148.986 99.5398 148.513 99.651 148.096 99.8736C147.684 100.091 147.358 100.394 147.116 100.783C146.879 101.166 146.761 101.604 146.761 102.097V109H145.085ZM152.526 109V98.0909H154.202V109H152.526ZM153.379 96.2727C153.052 96.2727 152.77 96.1615 152.533 95.9389C152.301 95.7164 152.185 95.4489 152.185 95.1364C152.185 94.8239 152.301 94.5563 152.533 94.3338C152.77 94.1113 153.052 94 153.379 94C153.705 94 153.985 94.1113 154.217 94.3338C154.453 94.5563 154.572 94.8239 154.572 95.1364C154.572 95.4489 154.453 95.7164 154.217 95.9389C153.985 96.1615 153.705 96.2727 153.379 96.2727ZM161.846 109.227C160.795 109.227 159.888 108.995 159.126 108.531C158.368 108.062 157.784 107.409 157.372 106.571C156.965 105.728 156.761 104.748 156.761 103.631C156.761 102.513 156.965 101.528 157.372 100.676C157.784 99.8191 158.357 99.1515 159.091 98.6733C159.829 98.1903 160.691 97.9489 161.676 97.9489C162.244 97.9489 162.805 98.0436 163.359 98.233C163.913 98.4223 164.417 98.7301 164.872 99.1562C165.326 99.5777 165.689 100.136 165.958 100.832C166.228 101.528 166.363 102.385 166.363 103.403V104.114H157.954V102.665H164.659C164.659 102.049 164.536 101.5 164.289 101.017C164.048 100.534 163.702 100.153 163.252 99.8736C162.807 99.5942 162.282 99.4545 161.676 99.4545C161.008 99.4545 160.431 99.6203 159.943 99.9517C159.46 100.278 159.088 100.705 158.828 101.23C158.567 101.756 158.437 102.319 158.437 102.92V103.886C158.437 104.71 158.579 105.409 158.863 105.982C159.152 106.55 159.552 106.983 160.064 107.281C160.575 107.575 161.169 107.722 161.846 107.722C162.287 107.722 162.684 107.66 163.039 107.537C163.399 107.409 163.709 107.22 163.97 106.969C164.23 106.713 164.431 106.396 164.574 106.017L166.193 106.472C166.022 107.021 165.736 107.504 165.333 107.92C164.931 108.332 164.434 108.654 163.842 108.886C163.25 109.114 162.585 109.227 161.846 109.227ZM176.64 100.534L175.135 100.96C175.04 100.709 174.9 100.465 174.716 100.229C174.536 99.9872 174.289 99.7884 173.977 99.6321C173.664 99.4759 173.264 99.3977 172.777 99.3977C172.109 99.3977 171.553 99.5516 171.108 99.8594C170.667 100.162 170.447 100.548 170.447 101.017C170.447 101.434 170.599 101.763 170.902 102.004C171.205 102.246 171.678 102.447 172.322 102.608L173.941 103.006C174.917 103.242 175.644 103.605 176.122 104.092C176.6 104.575 176.839 105.198 176.839 105.96C176.839 106.585 176.659 107.144 176.299 107.636C175.944 108.129 175.447 108.517 174.808 108.801C174.169 109.085 173.425 109.227 172.578 109.227C171.465 109.227 170.544 108.986 169.815 108.503C169.086 108.02 168.624 107.314 168.43 106.386L170.021 105.989C170.172 106.576 170.459 107.016 170.88 107.31C171.306 107.603 171.863 107.75 172.549 107.75C173.331 107.75 173.951 107.584 174.41 107.253C174.874 106.917 175.106 106.514 175.106 106.045C175.106 105.667 174.974 105.349 174.708 105.094C174.443 104.833 174.036 104.639 173.487 104.511L171.669 104.085C170.67 103.848 169.936 103.482 169.467 102.984C169.003 102.482 168.771 101.855 168.771 101.102C168.771 100.487 168.944 99.9422 169.289 99.4688C169.64 98.9953 170.116 98.6236 170.717 98.3537C171.323 98.0838 172.01 97.9489 172.777 97.9489C173.856 97.9489 174.704 98.1856 175.319 98.6591C175.94 99.1326 176.38 99.7576 176.64 100.534Z" fill="#666666"/>
</g>
<g id="Ellipse 9" opacity="0.1" filter="url(#filter0_f_25_134)">
<ellipse cx="136.466" cy="-26.2182" rx="81.8101" ry="58.4566" fill="url(#paint0_linear_25_134)"/>
</g>
</g>
<rect x="0.5" y="0.700195" width="277.4" height="136.6" rx="9.1" stroke="url(#paint1_linear_25_134)"/>
</g>
<defs>
<filter id="filter0_f_25_134" x="-21.5838" y="-160.915" width="316.101" height="269.393" filterUnits="userSpaceOnUse" color-interpolation-filters="sRGB">
<feFlood flood-opacity="0" result="BackgroundImageFix"/>
<feBlend mode="normal" in="SourceGraphic" in2="BackgroundImageFix" result="shape"/>
<feGaussianBlur stdDeviation="38.12" result="effect1_foregroundBlur_25_134"/>
</filter>
<linearGradient id="paint0_linear_25_134" x1="96.9381" y1="-84.6748" x2="167.417" y2="-80.8873" gradientUnits="userSpaceOnUse">
<stop stop-color="#0066FF"/>
<stop offset="1" stop-color="#6506FF"/>
</linearGradient>
<linearGradient id="paint1_linear_25_134" x1="91.3289" y1="0.200193" x2="112.678" y2="140.353" gradientUnits="userSpaceOnUse">
<stop stop-color="#264E9E"/>
<stop offset="1" stop-color="#90A3CB" stop-opacity="0.1"/>
</linearGradient>
<clipPath id="clip0_25_134">
<rect y="0.200195" width="278.4" height="137.6" rx="9.6" fill="white"/>
</clipPath>
</defs>
</svg>
