<svg width="311" height="138" viewBox="0 0 311 138" fill="none" xmlns="http://www.w3.org/2000/svg">
<g id="Plan to choose">
<g clip-path="url(#clip0_25_129)">
<rect y="0.300293" width="311" height="137" rx="9.6" fill="#2967B2" fill-opacity="0.2"/>
<path id="Title" d="M18.8295 46.1001H16.6136L23.0227 28.6456H25.2045L31.6136 46.1001H29.3977L24.1818 31.4069H24.0455L18.8295 46.1001ZM19.6477 39.2819H28.5795V41.1569H19.6477V39.2819ZM39.8892 33.0092V34.7137H32.8324V33.0092H39.8892ZM34.946 46.1001V31.2024C34.946 30.4524 35.1222 29.8274 35.4744 29.3274C35.8267 28.8274 36.2841 28.4524 36.8466 28.2024C37.4091 27.9524 38.0028 27.8274 38.6278 27.8274C39.1222 27.8274 39.5256 27.8671 39.8381 27.9467C40.1506 28.0262 40.3835 28.1001 40.5369 28.1683L39.9574 29.9069C39.8551 29.8728 39.7131 29.8302 39.5312 29.7791C39.3551 29.7279 39.1222 29.7024 38.8324 29.7024C38.1676 29.7024 37.6875 29.87 37.392 30.2052C37.1023 30.5404 36.9574 31.0319 36.9574 31.6796V46.1001H34.946ZM42.7081 46.1001V33.0092H44.6513V34.9865H44.7876C45.0263 34.3387 45.4581 33.8132 46.0831 33.4098C46.7081 33.0063 47.4126 32.8046 48.1967 32.8046C48.3445 32.8046 48.5291 32.8075 48.7507 32.8132C48.9723 32.8188 49.1399 32.8274 49.2536 32.8387V34.8842C49.1854 34.8671 49.0291 34.8416 48.7848 34.8075C48.5462 34.7677 48.2933 34.7478 48.0263 34.7478C47.3899 34.7478 46.8217 34.8813 46.3217 35.1484C45.8274 35.4098 45.4354 35.7734 45.1456 36.2393C44.8615 36.6995 44.7195 37.2251 44.7195 37.816V46.1001H42.7081ZM51.6378 46.1001V33.0092H53.6491V46.1001H51.6378ZM52.6605 30.8274C52.2685 30.8274 51.9304 30.6938 51.6463 30.4268C51.3679 30.1598 51.2287 29.8387 51.2287 29.4637C51.2287 29.0887 51.3679 28.7677 51.6463 28.5007C51.9304 28.2336 52.2685 28.1001 52.6605 28.1001C53.0526 28.1001 53.3878 28.2336 53.6662 28.5007C53.9503 28.7677 54.0923 29.0887 54.0923 29.4637C54.0923 29.8387 53.9503 30.1598 53.6662 30.4268C53.3878 30.6938 53.0526 30.8274 52.6605 30.8274ZM62.6513 46.3728C61.424 46.3728 60.3672 46.0831 59.4808 45.5035C58.5945 44.924 57.9126 44.1257 57.4354 43.1086C56.9581 42.0916 56.7195 40.9296 56.7195 39.6228C56.7195 38.2933 56.9638 37.12 57.4524 36.1029C57.9467 35.0802 58.6342 34.2819 59.5149 33.7081C60.4013 33.1285 61.4354 32.8387 62.6172 32.8387C63.5376 32.8387 64.3672 33.0092 65.1058 33.3501C65.8445 33.691 66.4496 34.1683 66.9212 34.7819C67.3928 35.3956 67.6854 36.1115 67.799 36.9296H65.7876C65.6342 36.3331 65.2933 35.8046 64.7649 35.3444C64.2422 34.8785 63.5376 34.6456 62.6513 34.6456C61.8672 34.6456 61.1797 34.8501 60.5888 35.2592C60.0036 35.6626 59.5462 36.2336 59.2166 36.9723C58.8928 37.7052 58.7308 38.566 58.7308 39.5546C58.7308 40.566 58.8899 41.4467 59.2081 42.1967C59.532 42.9467 59.9865 43.5291 60.5717 43.9438C61.1626 44.3586 61.8558 44.566 62.6513 44.566C63.174 44.566 63.6484 44.4751 64.0746 44.2933C64.5007 44.1115 64.8615 43.8501 65.157 43.5092C65.4524 43.1683 65.6626 42.7592 65.7876 42.2819H67.799C67.6854 43.0546 67.4041 43.7507 66.9553 44.37C66.5121 44.9836 65.924 45.4723 65.1911 45.8359C64.4638 46.1938 63.6172 46.3728 62.6513 46.3728ZM74.5916 46.4069C73.7621 46.4069 73.0092 46.2507 72.3331 45.9382C71.657 45.62 71.12 45.1626 70.7223 44.566C70.3246 43.9637 70.1257 43.2365 70.1257 42.3842C70.1257 41.6342 70.2734 41.0262 70.5689 40.5603C70.8643 40.0887 71.2592 39.7194 71.7536 39.4524C72.2479 39.1853 72.7933 38.9865 73.3899 38.8558C73.9922 38.7194 74.5973 38.6115 75.2053 38.5319C76.0007 38.4296 76.6456 38.3529 77.1399 38.3018C77.6399 38.245 78.0036 38.1512 78.2308 38.0206C78.4638 37.8899 78.5803 37.6626 78.5803 37.3387V37.2706C78.5803 36.4296 78.3501 35.7762 77.8899 35.3103C77.4354 34.8444 76.745 34.6115 75.8189 34.6115C74.8587 34.6115 74.1058 34.8217 73.5604 35.2421C73.0149 35.6626 72.6314 36.1115 72.4098 36.5887L70.5007 35.9069C70.8416 35.1115 71.2962 34.4921 71.8643 34.049C72.4382 33.6001 73.0632 33.2876 73.7393 33.1115C74.4212 32.9296 75.0916 32.8387 75.7507 32.8387C76.1712 32.8387 76.6541 32.8899 77.1996 32.9921C77.7507 33.0887 78.282 33.2904 78.7933 33.5973C79.3104 33.9041 79.7393 34.3671 80.0803 34.9865C80.4212 35.6058 80.5916 36.4353 80.5916 37.4751V46.1001H78.5803V44.3274H78.478C78.3416 44.6115 78.1143 44.9154 77.7962 45.2393C77.478 45.5632 77.0547 45.8387 76.5263 46.066C75.9979 46.2933 75.353 46.4069 74.5916 46.4069ZM74.8984 44.6001C75.6939 44.6001 76.3643 44.4438 76.9098 44.1313C77.4609 43.8188 77.8757 43.4154 78.1541 42.9211C78.4382 42.4268 78.5803 41.9069 78.5803 41.3615V39.5206C78.495 39.6228 78.3075 39.7166 78.0178 39.8018C77.7337 39.8813 77.4041 39.9524 77.0291 40.0149C76.6598 40.0717 76.299 40.1228 75.9467 40.1683C75.6001 40.2081 75.3189 40.2421 75.103 40.2706C74.5803 40.3387 74.0916 40.4495 73.6371 40.6029C73.1882 40.7507 72.8246 40.9751 72.5462 41.2762C72.2734 41.5717 72.1371 41.9751 72.1371 42.4865C72.1371 43.1853 72.3956 43.7137 72.9126 44.0717C73.4354 44.424 74.0973 44.6001 74.8984 44.6001ZM86.2741 38.2251V46.1001H84.2628V33.0092H86.206V35.0546H86.3764C86.6832 34.3899 87.1491 33.8558 87.7741 33.4524C88.3991 33.0433 89.206 32.8387 90.1946 32.8387C91.081 32.8387 91.8565 33.0206 92.5213 33.3842C93.1861 33.7421 93.7031 34.2876 94.0724 35.0206C94.4418 35.7478 94.6264 36.6683 94.6264 37.7819V46.1001H92.6151V37.9183C92.6151 36.8899 92.348 36.0887 91.8139 35.5149C91.2798 34.9353 90.5469 34.6456 89.6151 34.6456C88.973 34.6456 88.3991 34.7848 87.8935 35.0632C87.3935 35.3416 86.9986 35.7478 86.7088 36.2819C86.419 36.816 86.2741 37.4637 86.2741 38.2251Z" fill="#2967B2"/>
<g id="Price">
<path d="M34.5938 109.657C31.6241 109.657 28.9858 109.12 26.679 108.046C24.3722 106.972 22.5492 105.494 21.2102 103.611C19.8845 101.729 19.1951 99.5679 19.142 97.1285H28.6875C28.767 98.6266 29.3769 99.8331 30.517 100.748C31.6572 101.649 33.0161 102.1 34.5938 102.1C35.8267 102.1 36.9205 101.828 37.875 101.285C38.8295 100.741 39.5786 99.9789 40.1222 98.9978C40.6657 98.0035 40.9309 96.8634 40.9176 95.5774C40.9309 94.2649 40.6591 93.1181 40.1023 92.137C39.5587 91.156 38.803 90.3937 37.8352 89.8501C36.8807 89.2933 35.7803 89.0149 34.5341 89.0149C33.3542 89.0016 32.2339 89.2601 31.1733 89.7904C30.1259 90.3207 29.3305 91.0433 28.7869 91.9581L20.0966 90.3274L21.8665 68.3728H47.9972V76.3075H29.9602L29.0256 85.9126H29.2642C29.9403 84.7857 31.0275 83.8577 32.5256 83.1285C34.0369 82.3861 35.7538 82.0149 37.6761 82.0149C40.1155 82.0149 42.2898 82.5849 44.1989 83.7251C46.1212 84.852 47.6326 86.4164 48.733 88.4183C49.8466 90.4202 50.4034 92.7137 50.4034 95.299C50.4034 98.0963 49.7405 100.575 48.4148 102.736C47.1023 104.897 45.2595 106.594 42.8864 107.827C40.5265 109.047 37.7623 109.657 34.5938 109.657ZM55.3104 102.339V94.6626L71.995 68.3728H78.8161V78.7933H74.8587L65.0945 94.2649V94.5831H89.2564V102.339H55.3104ZM74.978 109.1V99.9921L75.1768 96.6313V68.3728H84.3842V109.1H74.978Z" fill="#2967B2"/>
<path d="M107.692 109.327C106.67 109.327 105.789 109.086 105.05 108.603C104.312 108.12 103.744 107.455 103.346 106.607C102.948 105.76 102.749 104.791 102.749 103.702C102.749 102.594 102.953 101.617 103.36 100.769C103.772 99.9169 104.345 99.2516 105.079 98.7734C105.817 98.2904 106.679 98.049 107.664 98.049C108.431 98.049 109.122 98.191 109.738 98.4751C110.353 98.7592 110.858 99.1569 111.251 99.6683C111.644 100.18 111.888 100.776 111.982 101.458H110.306C110.178 100.961 109.894 100.521 109.454 100.137C109.018 99.7488 108.431 99.5546 107.692 99.5546C107.039 99.5546 106.466 99.7251 105.974 100.066C105.486 100.402 105.105 100.878 104.83 101.494C104.56 102.104 104.425 102.822 104.425 103.646C104.425 104.488 104.558 105.222 104.823 105.847C105.093 106.472 105.472 106.958 105.96 107.303C106.452 107.649 107.03 107.822 107.692 107.822C108.128 107.822 108.523 107.746 108.879 107.594C109.234 107.443 109.534 107.225 109.781 106.941C110.027 106.657 110.202 106.316 110.306 105.918H111.982C111.888 106.562 111.653 107.142 111.279 107.658C110.91 108.17 110.42 108.577 109.809 108.88C109.203 109.178 108.497 109.327 107.692 109.327ZM118.864 109.327C117.879 109.327 117.015 109.093 116.272 108.624C115.533 108.155 114.956 107.5 114.539 106.657C114.127 105.814 113.921 104.829 113.921 103.702C113.921 102.566 114.127 101.574 114.539 100.727C114.956 99.879 115.533 99.2208 116.272 98.7521C117.015 98.2833 117.879 98.049 118.864 98.049C119.849 98.049 120.711 98.2833 121.45 98.7521C122.193 99.2208 122.771 99.879 123.183 100.727C123.599 101.574 123.808 102.566 123.808 103.702C123.808 104.829 123.599 105.814 123.183 106.657C122.771 107.5 122.193 108.155 121.45 108.624C120.711 109.093 119.849 109.327 118.864 109.327ZM118.864 107.822C119.612 107.822 120.228 107.63 120.711 107.246C121.194 106.863 121.551 106.359 121.783 105.734C122.015 105.109 122.131 104.432 122.131 103.702C122.131 102.973 122.015 102.294 121.783 101.664C121.551 101.034 121.194 100.525 120.711 100.137C120.228 99.7488 119.612 99.5546 118.864 99.5546C118.116 99.5546 117.501 99.7488 117.018 100.137C116.535 100.525 116.177 101.034 115.945 101.664C115.713 102.294 115.597 102.973 115.597 103.702C115.597 104.432 115.713 105.109 115.945 105.734C116.177 106.359 116.535 106.863 117.018 107.246C117.501 107.63 118.116 107.822 118.864 107.822ZM133.241 104.64V98.191H134.917V109.1H133.241V107.254H133.127C132.872 107.807 132.474 108.279 131.934 108.667C131.395 109.05 130.713 109.242 129.889 109.242C129.207 109.242 128.601 109.093 128.071 108.795C127.54 108.492 127.124 108.037 126.821 107.431C126.518 106.82 126.366 106.051 126.366 105.123V98.191H128.042V105.009C128.042 105.805 128.265 106.439 128.71 106.913C129.16 107.386 129.733 107.623 130.429 107.623C130.845 107.623 131.269 107.516 131.7 107.303C132.136 107.09 132.5 106.763 132.794 106.323C133.092 105.883 133.241 105.322 133.241 104.64ZM139.663 102.538V109.1H137.987V98.191H139.607V99.8956H139.749C140.004 99.3416 140.393 98.8965 140.913 98.5603C141.434 98.2194 142.107 98.049 142.93 98.049C143.669 98.049 144.315 98.2005 144.869 98.5035C145.423 98.8018 145.854 99.2563 146.162 99.8671C146.47 100.473 146.624 101.24 146.624 102.168V109.1H144.947V102.282C144.947 101.425 144.725 100.757 144.28 100.279C143.835 99.7961 143.224 99.5546 142.447 99.5546C141.912 99.5546 141.434 99.6706 141.013 99.9027C140.596 100.135 140.267 100.473 140.026 100.918C139.784 101.363 139.663 101.903 139.663 102.538ZM154.431 98.191V99.6115H148.777V98.191H154.431ZM150.425 95.5774H152.101V105.975C152.101 106.449 152.17 106.804 152.307 107.04C152.449 107.272 152.629 107.429 152.847 107.509C153.069 107.585 153.304 107.623 153.55 107.623C153.735 107.623 153.886 107.613 154.005 107.594C154.123 107.571 154.218 107.552 154.289 107.538L154.63 109.043C154.516 109.086 154.357 109.129 154.154 109.171C153.95 109.218 153.692 109.242 153.38 109.242C152.906 109.242 152.442 109.14 151.988 108.937C151.538 108.733 151.164 108.423 150.865 108.006C150.572 107.59 150.425 107.064 150.425 106.43V95.5774ZM156.952 109.1V98.191H158.571V99.8387H158.685C158.884 99.299 159.244 98.861 159.765 98.5248C160.285 98.1886 160.873 98.0206 161.526 98.0206C161.649 98.0206 161.803 98.0229 161.988 98.0277C162.172 98.0324 162.312 98.0395 162.407 98.049V99.7535C162.35 99.7393 162.22 99.718 162.016 99.6896C161.817 99.6564 161.606 99.6399 161.384 99.6399C160.854 99.6399 160.38 99.7511 159.963 99.9737C159.551 100.191 159.225 100.495 158.983 100.883C158.747 101.266 158.628 101.704 158.628 102.197V109.1H156.952ZM164.393 109.1V98.191H166.07V109.1H164.393ZM165.246 96.3728C164.919 96.3728 164.637 96.2616 164.401 96.039C164.169 95.8165 164.053 95.549 164.053 95.2365C164.053 94.924 164.169 94.6564 164.401 94.4339C164.637 94.2114 164.919 94.1001 165.246 94.1001C165.572 94.1001 165.852 94.2114 166.084 94.4339C166.321 94.6564 166.439 94.924 166.439 95.2365C166.439 95.549 166.321 95.8165 166.084 96.039C165.852 96.2616 165.572 96.3728 165.246 96.3728ZM173.713 109.327C172.662 109.327 171.756 109.095 170.993 108.631C170.236 108.163 169.651 107.509 169.239 106.671C168.832 105.828 168.628 104.848 168.628 103.731C168.628 102.613 168.832 101.629 169.239 100.776C169.651 99.9192 170.224 99.2516 170.958 98.7734C171.696 98.2904 172.558 98.049 173.543 98.049C174.111 98.049 174.672 98.1437 175.226 98.3331C175.78 98.5224 176.284 98.8302 176.739 99.2563C177.194 99.6777 177.556 100.236 177.826 100.932C178.096 101.629 178.23 102.486 178.23 103.504V104.214H169.821V102.765H176.526C176.526 102.149 176.403 101.6 176.157 101.117C175.915 100.634 175.569 100.253 175.12 99.9737C174.675 99.6943 174.149 99.5546 173.543 99.5546C172.875 99.5546 172.298 99.7204 171.81 100.052C171.327 100.379 170.955 100.805 170.695 101.33C170.435 101.856 170.304 102.419 170.304 103.021V103.986C170.304 104.81 170.446 105.509 170.73 106.082C171.019 106.65 171.419 107.083 171.931 107.381C172.442 107.675 173.036 107.822 173.713 107.822C174.154 107.822 174.551 107.76 174.907 107.637C175.266 107.509 175.577 107.32 175.837 107.069C176.097 106.813 176.299 106.496 176.441 106.117L178.06 106.572C177.89 107.121 177.603 107.604 177.201 108.021C176.798 108.432 176.301 108.754 175.709 108.986C175.117 109.214 174.452 109.327 173.713 109.327ZM188.507 100.634L187.002 101.06C186.907 100.809 186.767 100.566 186.583 100.329C186.403 100.087 186.157 99.8884 185.844 99.7322C185.532 99.5759 185.132 99.4978 184.644 99.4978C183.976 99.4978 183.42 99.6517 182.975 99.9595C182.534 100.263 182.314 100.648 182.314 101.117C182.314 101.534 182.466 101.863 182.769 102.104C183.072 102.346 183.545 102.547 184.189 102.708L185.809 103.106C186.784 103.343 187.511 103.705 187.989 104.192C188.467 104.675 188.706 105.298 188.706 106.06C188.706 106.685 188.526 107.244 188.167 107.736C187.811 108.229 187.314 108.617 186.675 108.901C186.036 109.185 185.292 109.327 184.445 109.327C183.332 109.327 182.411 109.086 181.682 108.603C180.953 108.12 180.491 107.414 180.297 106.486L181.888 106.089C182.04 106.676 182.326 107.116 182.748 107.41C183.174 107.703 183.73 107.85 184.417 107.85C185.198 107.85 185.818 107.684 186.277 107.353C186.741 107.017 186.973 106.614 186.973 106.146C186.973 105.767 186.841 105.45 186.576 105.194C186.31 104.933 185.903 104.739 185.354 104.611L183.536 104.185C182.537 103.949 181.803 103.582 181.334 103.084C180.87 102.583 180.638 101.955 180.638 101.202C180.638 100.587 180.811 100.042 181.157 99.5688C181.507 99.0954 181.983 98.7237 182.584 98.4538C183.19 98.1839 183.877 98.049 184.644 98.049C185.723 98.049 186.571 98.2857 187.186 98.7592C187.807 99.2327 188.247 99.8577 188.507 100.634Z" fill="#7A7A7A"/>
</g>
<g id="Ellipse 9" opacity="0.1" filter="url(#filter0_f_25_129)">
<ellipse cx="136.466" cy="-26.1181" rx="81.8101" ry="58.4566" fill="url(#paint0_linear_25_129)"/>
</g>
</g>
<rect x="0.5" y="0.800293" width="310" height="136" rx="9.1" stroke="url(#paint1_linear_25_129)"/>
</g>
<defs>
<filter id="filter0_f_25_129" x="-21.5838" y="-160.815" width="316.101" height="269.393" filterUnits="userSpaceOnUse" color-interpolation-filters="sRGB">
<feFlood flood-opacity="0" result="BackgroundImageFix"/>
<feBlend mode="normal" in="SourceGraphic" in2="BackgroundImageFix" result="shape"/>
<feGaussianBlur stdDeviation="38.12" result="effect1_foregroundBlur_25_129"/>
</filter>
<linearGradient id="paint0_linear_25_129" x1="96.9381" y1="-84.5747" x2="167.417" y2="-80.7872" gradientUnits="userSpaceOnUse">
<stop stop-color="#0066FF"/>
<stop offset="1" stop-color="#6506FF"/>
</linearGradient>
<linearGradient id="paint1_linear_25_129" x1="102.023" y1="0.300291" x2="121.057" y2="140.496" gradientUnits="userSpaceOnUse">
<stop stop-color="#90A3CB"/>
<stop offset="1" stop-color="#273A1B" stop-opacity="0.1"/>
</linearGradient>
<clipPath id="clip0_25_129">
<rect y="0.300293" width="311" height="137" rx="9.6" fill="white"/>
</clipPath>
</defs>
</svg>
