<svg width="279" height="139" viewBox="0 0 279 139" fill="none" xmlns="http://www.w3.org/2000/svg">
<g id="Plan to choose">
<g clip-path="url(#clip0_25_139)">
<rect y="0.600098" width="278.4" height="137.6" rx="9.6" fill="#186FD8" fill-opacity="0.2"/>
<path id="Title" d="M31.9545 28.9454V46.3999H29.9091L20.3977 32.6954H20.2273V46.3999H18.1136V28.9454H20.1591L29.7045 42.684H29.875V28.9454H31.9545ZM41.2294 46.6726C40.0476 46.6726 39.0107 46.3914 38.1186 45.8289C37.2322 45.2664 36.5391 44.4794 36.0391 43.4681C35.5447 42.4567 35.2976 41.2749 35.2976 39.9226C35.2976 38.559 35.5447 37.3687 36.0391 36.3516C36.5391 35.3346 37.2322 34.5448 38.1186 33.9823C39.0107 33.4198 40.0476 33.1385 41.2294 33.1385C42.4112 33.1385 43.4453 33.4198 44.3317 33.9823C45.2237 34.5448 45.9169 35.3346 46.4112 36.3516C46.9112 37.3687 47.1612 38.559 47.1612 39.9226C47.1612 41.2749 46.9112 42.4567 46.4112 43.4681C45.9169 44.4794 45.2237 45.2664 44.3317 45.8289C43.4453 46.3914 42.4112 46.6726 41.2294 46.6726ZM41.2294 44.8658C42.1271 44.8658 42.8658 44.6357 43.4453 44.1755C44.0249 43.7152 44.4538 43.1101 44.7322 42.3601C45.0107 41.6101 45.1499 40.7976 45.1499 39.9226C45.1499 39.0476 45.0107 38.2323 44.7322 37.4766C44.4538 36.7209 44.0249 36.1101 43.4453 35.6442C42.8658 35.1783 42.1271 34.9454 41.2294 34.9454C40.3317 34.9454 39.593 35.1783 39.0135 35.6442C38.4339 36.1101 38.005 36.7209 37.7266 37.4766C37.4482 38.2323 37.3089 39.0476 37.3089 39.9226C37.3089 40.7976 37.4482 41.6101 37.7266 42.3601C38.005 43.1101 38.4339 43.7152 39.0135 44.1755C39.593 44.6357 40.3317 44.8658 41.2294 44.8658ZM50.2315 46.3999V33.309H52.1747V35.2863H52.3111C52.5497 34.6385 52.9815 34.113 53.6065 33.7096C54.2315 33.3062 54.9361 33.1044 55.7202 33.1044C55.8679 33.1044 56.0526 33.1073 56.2741 33.113C56.4957 33.1187 56.6634 33.1272 56.777 33.1385V35.184C56.7088 35.1669 56.5526 35.1414 56.3082 35.1073C56.0696 35.0675 55.8168 35.0476 55.5497 35.0476C54.9134 35.0476 54.3452 35.1812 53.8452 35.4482C53.3509 35.7096 52.9588 36.0732 52.669 36.5391C52.3849 36.9993 52.2429 37.5249 52.2429 38.1158V46.3999H50.2315ZM65.6747 33.309V35.0135H58.8906V33.309H65.6747ZM60.8679 30.1726H62.8793V42.6499C62.8793 43.2181 62.9616 43.6442 63.1264 43.9283C63.2969 44.2067 63.5128 44.3942 63.7741 44.4908C64.0412 44.5817 64.3224 44.6272 64.6179 44.6272C64.8395 44.6272 65.0213 44.6158 65.1634 44.5931C65.3054 44.5647 65.419 44.5419 65.5043 44.5249L65.9134 46.3317C65.777 46.3829 65.5866 46.434 65.3423 46.4851C65.098 46.5419 64.7884 46.5704 64.4134 46.5704C63.8452 46.5704 63.2884 46.4482 62.7429 46.2039C62.2031 45.9596 61.7543 45.5874 61.3963 45.0874C61.044 44.5874 60.8679 43.9567 60.8679 43.1954V30.1726ZM70.9929 38.5249V46.3999H68.9815V28.9454H70.9929V35.3544H71.1634C71.4702 34.6783 71.9304 34.1414 72.544 33.7437C73.1634 33.3402 73.9872 33.1385 75.0156 33.1385C75.9077 33.1385 76.6889 33.3175 77.3594 33.6755C78.0298 34.0277 78.5497 34.5704 78.919 35.3033C79.294 36.0306 79.4815 36.9567 79.4815 38.0817V46.3999H77.4702V38.2181C77.4702 37.1783 77.2003 36.3743 76.6605 35.8062C76.1264 35.2323 75.3849 34.9454 74.4361 34.9454C73.777 34.9454 73.1861 35.0846 72.6634 35.363C72.1463 35.6414 71.7372 36.0476 71.4361 36.5817C71.1406 37.1158 70.9929 37.7635 70.9929 38.5249ZM90.8999 46.3999H88.6839L95.093 28.9454H97.2749L103.684 46.3999H101.468L96.2521 31.7067H96.1158L90.8999 46.3999ZM91.718 39.5817H100.65V41.4567H91.718V39.5817ZM106.13 46.3999V33.309H108.073V35.3544H108.244C108.516 34.6556 108.957 34.113 109.565 33.7266C110.173 33.3346 110.903 33.1385 111.755 33.1385C112.619 33.1385 113.337 33.3346 113.911 33.7266C114.491 34.113 114.942 34.6556 115.266 35.3544H115.403C115.738 34.6783 116.241 34.1414 116.911 33.7437C117.582 33.3402 118.386 33.1385 119.323 33.1385C120.494 33.1385 121.451 33.505 122.195 34.238C122.94 34.9652 123.312 36.0988 123.312 37.6385V46.3999H121.3V37.6385C121.3 36.6726 121.036 35.9823 120.508 35.5675C119.979 35.1527 119.357 34.9454 118.641 34.9454C117.721 34.9454 117.008 35.2238 116.502 35.7806C115.996 36.3317 115.744 37.0306 115.744 37.8772V46.3999H113.698V37.434C113.698 36.6897 113.457 36.0902 112.974 35.6357C112.491 35.1755 111.869 34.9454 111.107 34.9454C110.585 34.9454 110.096 35.0846 109.641 35.363C109.192 35.6414 108.829 36.0277 108.55 36.5221C108.278 37.0107 108.141 37.576 108.141 38.2181V46.3999H106.13ZM132.478 46.6726C131.217 46.6726 130.129 46.3942 129.214 45.8374C128.305 45.2749 127.603 44.4908 127.109 43.4851C126.62 42.4738 126.376 41.2976 126.376 39.9567C126.376 38.6158 126.62 37.434 127.109 36.4113C127.603 35.3829 128.29 34.5817 129.171 34.0079C130.058 33.4283 131.092 33.1385 132.273 33.1385C132.955 33.1385 133.629 33.2522 134.293 33.4794C134.958 33.7067 135.563 34.076 136.109 34.5874C136.654 35.0931 137.089 35.7635 137.413 36.5988C137.737 37.434 137.898 38.4624 137.898 39.684V40.5363H127.808V38.7976H135.853C135.853 38.059 135.705 37.3999 135.41 36.8204C135.12 36.2408 134.705 35.7834 134.165 35.4482C133.631 35.113 133.001 34.9454 132.273 34.9454C131.472 34.9454 130.779 35.1442 130.194 35.5419C129.614 35.934 129.168 36.4454 128.856 37.076C128.543 37.7067 128.387 38.3829 128.387 39.1044V40.2635C128.387 41.2522 128.558 42.0902 128.898 42.7777C129.245 43.4596 129.725 43.9794 130.339 44.3374C130.952 44.6897 131.665 44.8658 132.478 44.8658C133.006 44.8658 133.484 44.7919 133.91 44.6442C134.342 44.4908 134.714 44.2635 135.026 43.9624C135.339 43.6556 135.58 43.2749 135.751 42.8204L137.694 43.3658C137.489 44.0249 137.146 44.6044 136.663 45.1044C136.18 45.5988 135.583 45.9851 134.873 46.2635C134.163 46.5363 133.364 46.6726 132.478 46.6726ZM140.958 46.3999V33.309H142.901V35.2863H143.038C143.276 34.6385 143.708 34.113 144.333 33.7096C144.958 33.3062 145.663 33.1044 146.447 33.1044C146.594 33.1044 146.779 33.1073 147.001 33.113C147.222 33.1187 147.39 33.1272 147.504 33.1385V35.184C147.435 35.1669 147.279 35.1414 147.035 35.1073C146.796 35.0675 146.543 35.0476 146.276 35.0476C145.64 35.0476 145.072 35.1812 144.572 35.4482C144.077 35.7096 143.685 36.0732 143.396 36.5391C143.112 36.9993 142.969 37.5249 142.969 38.1158V46.3999H140.958ZM149.888 46.3999V33.309H151.899V46.3999H149.888ZM150.911 31.1272C150.518 31.1272 150.18 30.9937 149.896 30.7266C149.618 30.4596 149.479 30.1385 149.479 29.7635C149.479 29.3885 149.618 29.0675 149.896 28.8005C150.18 28.5334 150.518 28.3999 150.911 28.3999C151.303 28.3999 151.638 28.5334 151.916 28.8005C152.2 29.0675 152.342 29.3885 152.342 29.7635C152.342 30.1385 152.2 30.4596 151.916 30.7266C151.638 30.9937 151.303 31.1272 150.911 31.1272ZM160.901 46.6726C159.674 46.6726 158.617 46.3829 157.731 45.8033C156.844 45.2238 156.163 44.4255 155.685 43.4084C155.208 42.3914 154.969 41.2294 154.969 39.9226C154.969 38.5931 155.214 37.4198 155.702 36.4027C156.197 35.38 156.884 34.5817 157.765 34.0079C158.651 33.4283 159.685 33.1385 160.867 33.1385C161.788 33.1385 162.617 33.309 163.356 33.6499C164.094 33.9908 164.7 34.4681 165.171 35.0817C165.643 35.6954 165.935 36.4113 166.049 37.2294H164.038C163.884 36.6329 163.543 36.1044 163.015 35.6442C162.492 35.1783 161.788 34.9454 160.901 34.9454C160.117 34.9454 159.43 35.1499 158.839 35.559C158.254 35.9624 157.796 36.5334 157.467 37.2721C157.143 38.005 156.981 38.8658 156.981 39.8544C156.981 40.8658 157.14 41.7465 157.458 42.4965C157.782 43.2465 158.237 43.8289 158.822 44.2437C159.413 44.6584 160.106 44.8658 160.901 44.8658C161.424 44.8658 161.898 44.7749 162.325 44.5931C162.751 44.4113 163.112 44.1499 163.407 43.809C163.702 43.4681 163.913 43.059 164.038 42.5817H166.049C165.935 43.3544 165.654 44.0505 165.205 44.6698C164.762 45.2834 164.174 45.7721 163.441 46.1357C162.714 46.4937 161.867 46.6726 160.901 46.6726ZM172.842 46.7067C172.012 46.7067 171.259 46.5505 170.583 46.238C169.907 45.9198 169.37 45.4624 168.972 44.8658C168.575 44.2635 168.376 43.5363 168.376 42.684C168.376 41.934 168.523 41.326 168.819 40.8601C169.114 40.3885 169.509 40.0192 170.004 39.7522C170.498 39.4851 171.043 39.2863 171.64 39.1556C172.242 39.0192 172.847 38.9113 173.455 38.8317C174.251 38.7294 174.896 38.6527 175.39 38.6016C175.89 38.5448 176.254 38.451 176.481 38.3204C176.714 38.1897 176.83 37.9624 176.83 37.6385V37.5704C176.83 36.7294 176.6 36.076 176.14 35.6101C175.685 35.1442 174.995 34.9113 174.069 34.9113C173.109 34.9113 172.356 35.1215 171.81 35.5419C171.265 35.9624 170.881 36.4113 170.66 36.8885L168.751 36.2067C169.092 35.4113 169.546 34.7919 170.114 34.3488C170.688 33.8999 171.313 33.5874 171.989 33.4113C172.671 33.2294 173.342 33.1385 174.001 33.1385C174.421 33.1385 174.904 33.1897 175.45 33.2919C176.001 33.3885 176.532 33.5902 177.043 33.8971C177.56 34.2039 177.989 34.6669 178.33 35.2863C178.671 35.9056 178.842 36.7351 178.842 37.7749V46.3999H176.83V44.6272H176.728C176.592 44.9113 176.364 45.2152 176.046 45.5391C175.728 45.863 175.305 46.1385 174.776 46.3658C174.248 46.5931 173.603 46.7067 172.842 46.7067ZM173.148 44.8999C173.944 44.8999 174.614 44.7437 175.16 44.4312C175.711 44.1187 176.126 43.7152 176.404 43.2209C176.688 42.7266 176.83 42.2067 176.83 41.6613V39.8204C176.745 39.9226 176.558 40.0164 176.268 40.1016C175.984 40.1812 175.654 40.2522 175.279 40.3147C174.91 40.3715 174.549 40.4226 174.197 40.4681C173.85 40.5079 173.569 40.5419 173.353 40.5704C172.83 40.6385 172.342 40.7493 171.887 40.9027C171.438 41.0505 171.075 41.2749 170.796 41.576C170.523 41.8715 170.387 42.2749 170.387 42.7863C170.387 43.4851 170.646 44.0135 171.163 44.3715C171.685 44.7238 172.347 44.8999 173.148 44.8999Z" fill="#333333"/>
<g id="Price">
<path d="M19.0028 109.4V102.32L33.858 89.3147C34.9716 88.3071 35.9195 87.3857 36.7017 86.5505C37.4839 85.702 38.0805 84.8535 38.4915 84.005C38.9025 83.1433 39.108 82.2086 39.108 81.201C39.108 80.0741 38.8627 79.113 38.3722 78.3175C37.8816 77.5088 37.2055 76.8857 36.3438 76.4482C35.482 76.0107 34.4943 75.7919 33.3807 75.7919C32.2538 75.7919 31.2661 76.024 30.4176 76.488C29.5691 76.9387 28.9063 77.595 28.429 78.4567C27.965 79.3185 27.733 80.3658 27.733 81.5988H18.4062C18.4062 78.8279 19.0294 76.4349 20.2756 74.4198C21.5218 72.4046 23.2718 70.8535 25.5256 69.7664C27.7926 68.666 30.4242 68.1158 33.4205 68.1158C36.5095 68.1158 39.1941 68.6329 41.4744 69.6669C43.7547 70.701 45.518 72.1461 46.7642 74.0022C48.0237 75.845 48.6534 77.9861 48.6534 80.4255C48.6534 81.9766 48.3419 83.5145 47.7188 85.0391C47.0956 86.5637 45.9754 88.2474 44.358 90.0902C42.7538 91.933 40.4735 94.1404 37.517 96.7124L32.6449 101.207V101.465H49.1506V109.4H19.0028ZM70.2053 109.957C67.103 109.957 64.352 109.426 61.9524 108.366C59.5661 107.292 57.6835 105.814 56.3047 103.931C54.9259 102.049 54.2232 99.881 54.1967 97.4283H64.1001C64.1399 98.3166 64.425 99.1054 64.9553 99.7948C65.4856 100.471 66.2081 101.001 67.1229 101.386C68.0376 101.77 69.0784 101.962 70.245 101.962C71.4117 101.962 72.4392 101.757 73.3274 101.346C74.2289 100.922 74.9316 100.345 75.4354 99.6158C75.9392 98.8734 76.1844 98.0249 76.1712 97.0704C76.1844 96.1158 75.9126 95.2673 75.3558 94.5249C74.799 93.7825 74.0102 93.2058 72.9893 92.7948C71.9818 92.3838 70.7886 92.1783 69.4098 92.1783H65.4524V85.1783H69.4098C70.6162 85.1783 71.6768 84.9794 72.5916 84.5817C73.5197 84.184 74.2422 83.6272 74.7592 82.9113C75.2763 82.1821 75.5282 81.3469 75.5149 80.4056C75.5282 79.4908 75.3094 78.6887 74.8587 77.9993C74.4212 77.2967 73.8047 76.7531 73.0092 76.3687C72.227 75.9842 71.3189 75.7919 70.2848 75.7919C69.1977 75.7919 68.21 75.9842 67.3217 76.3687C66.4467 76.7531 65.7507 77.2967 65.2337 77.9993C64.7166 78.702 64.4448 79.5173 64.4183 80.4454H55.0121C55.0386 78.0192 55.7147 75.8848 57.0405 74.0419C58.3662 72.1859 60.1693 70.7342 62.4496 69.6868C64.7431 68.6395 67.3549 68.1158 70.2848 68.1158C73.2015 68.1158 75.7668 68.6262 77.9808 69.6471C80.1948 70.6679 81.9183 72.0599 83.1513 73.8232C84.3842 75.5732 85.0007 77.5552 85.0007 79.7692C85.014 82.0628 84.2649 83.952 82.7536 85.4368C81.2554 86.9217 79.3265 87.8365 76.9666 88.1812V88.4993C80.1219 88.8705 82.5017 89.8914 84.1058 91.5618C85.7232 93.2323 86.5253 95.3204 86.5121 97.826C86.5121 100.186 85.8161 102.281 84.424 104.11C83.0452 105.926 81.1229 107.358 78.657 108.406C76.2043 109.44 73.3871 109.957 70.2053 109.957Z" fill="#333333"/>
<path d="M105.341 109.627C104.318 109.627 103.438 109.386 102.699 108.903C101.96 108.42 101.392 107.755 100.994 106.907C100.597 106.059 100.398 105.091 100.398 104.002C100.398 102.894 100.601 101.916 101.009 101.069C101.42 100.217 101.993 99.5514 102.727 99.0732C103.466 98.5902 104.328 98.3488 105.312 98.3488C106.08 98.3488 106.771 98.4908 107.386 98.7749C108.002 99.059 108.506 99.4567 108.899 99.9681C109.292 100.479 109.536 101.076 109.631 101.758H107.955C107.827 101.261 107.543 100.82 107.102 100.437C106.667 100.049 106.08 99.8544 105.341 99.8544C104.688 99.8544 104.115 100.025 103.622 100.366C103.134 100.702 102.753 101.178 102.479 101.793C102.209 102.404 102.074 103.121 102.074 103.945C102.074 104.788 102.206 105.522 102.472 106.147C102.741 106.772 103.12 107.257 103.608 107.603C104.1 107.949 104.678 108.121 105.341 108.121C105.777 108.121 106.172 108.046 106.527 107.894C106.882 107.743 107.183 107.525 107.429 107.241C107.675 106.957 107.85 106.616 107.955 106.218H109.631C109.536 106.862 109.302 107.442 108.928 107.958C108.558 108.47 108.068 108.877 107.457 109.18C106.851 109.478 106.146 109.627 105.341 109.627ZM116.513 109.627C115.528 109.627 114.664 109.393 113.92 108.924C113.182 108.455 112.604 107.8 112.188 106.957C111.776 106.114 111.57 105.129 111.57 104.002C111.57 102.866 111.776 101.874 112.188 101.026C112.604 100.179 113.182 99.5206 113.92 99.0519C114.664 98.5831 115.528 98.3488 116.513 98.3488C117.498 98.3488 118.359 98.5831 119.098 99.0519C119.841 99.5206 120.419 100.179 120.831 101.026C121.248 101.874 121.456 102.866 121.456 104.002C121.456 105.129 121.248 106.114 120.831 106.957C120.419 107.8 119.841 108.455 119.098 108.924C118.359 109.393 117.498 109.627 116.513 109.627ZM116.513 108.121C117.261 108.121 117.876 107.93 118.359 107.546C118.842 107.163 119.2 106.658 119.432 106.033C119.664 105.408 119.78 104.731 119.78 104.002C119.78 103.273 119.664 102.594 119.432 101.964C119.2 101.334 118.842 100.825 118.359 100.437C117.876 100.049 117.261 99.8544 116.513 99.8544C115.765 99.8544 115.149 100.049 114.666 100.437C114.183 100.825 113.826 101.334 113.594 101.964C113.362 102.594 113.246 103.273 113.246 104.002C113.246 104.731 113.362 105.408 113.594 106.033C113.826 106.658 114.183 107.163 114.666 107.546C115.149 107.93 115.765 108.121 116.513 108.121ZM130.89 104.94V98.4908H132.566V109.4H130.89V107.553H130.776C130.52 108.107 130.123 108.578 129.583 108.967C129.043 109.35 128.361 109.542 127.537 109.542C126.855 109.542 126.249 109.393 125.719 109.095C125.189 108.791 124.772 108.337 124.469 107.731C124.166 107.12 124.015 106.351 124.015 105.423V98.4908H125.691V105.309C125.691 106.104 125.913 106.739 126.358 107.212C126.808 107.686 127.381 107.923 128.077 107.923C128.494 107.923 128.917 107.816 129.348 107.603C129.784 107.39 130.149 107.063 130.442 106.623C130.74 106.183 130.89 105.621 130.89 104.94ZM137.312 102.837V109.4H135.636V98.4908H137.255V100.195H137.397C137.653 99.6414 138.041 99.1963 138.562 98.8601C139.083 98.5192 139.755 98.3488 140.579 98.3488C141.317 98.3488 141.964 98.5003 142.518 98.8033C143.072 99.1016 143.503 99.5562 143.81 100.167C144.118 100.773 144.272 101.54 144.272 102.468V109.4H142.596V102.582C142.596 101.725 142.373 101.057 141.928 100.579C141.483 100.096 140.872 99.8544 140.096 99.8544C139.561 99.8544 139.083 99.9705 138.661 100.202C138.245 100.434 137.915 100.773 137.674 101.218C137.433 101.663 137.312 102.203 137.312 102.837ZM152.079 98.4908V99.9113H146.426V98.4908H152.079ZM148.074 95.8772H149.75V106.275C149.75 106.748 149.818 107.104 149.956 107.34C150.098 107.572 150.278 107.729 150.495 107.809C150.718 107.885 150.952 107.923 151.199 107.923C151.383 107.923 151.535 107.913 151.653 107.894C151.771 107.871 151.866 107.852 151.937 107.837L152.278 109.343C152.164 109.386 152.006 109.428 151.802 109.471C151.599 109.518 151.341 109.542 151.028 109.542C150.555 109.542 150.091 109.44 149.636 109.237C149.186 109.033 148.812 108.723 148.514 108.306C148.22 107.889 148.074 107.364 148.074 106.729V95.8772ZM154.6 109.4V98.4908H156.22V100.139H156.333C156.532 99.5988 156.892 99.1608 157.413 98.8246C157.934 98.4884 158.521 98.3204 159.174 98.3204C159.297 98.3204 159.451 98.3227 159.636 98.3275C159.821 98.3322 159.96 98.3393 160.055 98.3488V100.053C159.998 100.039 159.868 100.018 159.664 99.9894C159.466 99.9562 159.255 99.9397 159.032 99.9397C158.502 99.9397 158.029 100.051 157.612 100.273C157.2 100.491 156.873 100.794 156.632 101.183C156.395 101.566 156.277 102.004 156.277 102.496V109.4H154.6ZM162.042 109.4V98.4908H163.718V109.4H162.042ZM162.894 96.6726C162.567 96.6726 162.286 96.5614 162.049 96.3388C161.817 96.1163 161.701 95.8488 161.701 95.5363C161.701 95.2238 161.817 94.9562 162.049 94.7337C162.286 94.5112 162.567 94.3999 162.894 94.3999C163.221 94.3999 163.5 94.5112 163.732 94.7337C163.969 94.9562 164.087 95.2238 164.087 95.5363C164.087 95.8488 163.969 96.1163 163.732 96.3388C163.5 96.5614 163.221 96.6726 162.894 96.6726ZM171.362 109.627C170.311 109.627 169.404 109.395 168.642 108.931C167.884 108.462 167.299 107.809 166.887 106.971C166.48 106.128 166.277 105.148 166.277 104.031C166.277 102.913 166.48 101.928 166.887 101.076C167.299 100.219 167.872 99.5514 168.606 99.0732C169.345 98.5902 170.207 98.3488 171.191 98.3488C171.76 98.3488 172.321 98.4435 172.875 98.6329C173.429 98.8223 173.933 99.13 174.387 99.5562C174.842 99.9776 175.204 100.536 175.474 101.232C175.744 101.928 175.879 102.785 175.879 103.803V104.514H167.47V103.065H174.174C174.174 102.449 174.051 101.9 173.805 101.417C173.564 100.934 173.218 100.553 172.768 100.273C172.323 99.9941 171.797 99.8544 171.191 99.8544C170.524 99.8544 169.946 100.02 169.458 100.352C168.975 100.678 168.604 101.104 168.343 101.63C168.083 102.156 167.953 102.719 167.953 103.32V104.286C167.953 105.11 168.095 105.809 168.379 106.381C168.668 106.95 169.068 107.383 169.579 107.681C170.091 107.975 170.685 108.121 171.362 108.121C171.802 108.121 172.2 108.06 172.555 107.937C172.915 107.809 173.225 107.62 173.485 107.369C173.746 107.113 173.947 106.796 174.089 106.417L175.708 106.871C175.538 107.421 175.252 107.904 174.849 108.32C174.447 108.732 173.949 109.054 173.358 109.286C172.766 109.514 172.1 109.627 171.362 109.627ZM186.156 100.934L184.65 101.36C184.556 101.109 184.416 100.865 184.231 100.629C184.051 100.387 183.805 100.188 183.493 100.032C183.18 99.8758 182.78 99.7976 182.292 99.7976C181.625 99.7976 181.068 99.9515 180.623 100.259C180.183 100.562 179.963 100.948 179.963 101.417C179.963 101.834 180.114 102.163 180.417 102.404C180.72 102.646 181.194 102.847 181.838 103.008L183.457 103.406C184.432 103.642 185.159 104.005 185.637 104.492C186.116 104.975 186.355 105.598 186.355 106.36C186.355 106.985 186.175 107.544 185.815 108.036C185.46 108.529 184.963 108.917 184.324 109.201C183.684 109.485 182.941 109.627 182.093 109.627C180.981 109.627 180.06 109.386 179.331 108.903C178.601 108.42 178.14 107.714 177.946 106.786L179.537 106.389C179.688 106.976 179.975 107.416 180.396 107.71C180.822 108.003 181.378 108.15 182.065 108.15C182.846 108.15 183.467 107.984 183.926 107.653C184.39 107.317 184.622 106.914 184.622 106.445C184.622 106.067 184.489 105.749 184.224 105.494C183.959 105.233 183.552 105.039 183.002 104.911L181.184 104.485C180.185 104.248 179.451 103.881 178.983 103.384C178.519 102.882 178.287 102.255 178.287 101.502C178.287 100.887 178.459 100.342 178.805 99.8687C179.155 99.3952 179.631 99.0235 180.233 98.7536C180.839 98.4837 181.525 98.3488 182.292 98.3488C183.372 98.3488 184.219 98.5855 184.835 99.059C185.455 99.5325 185.895 100.157 186.156 100.934Z" fill="#666666"/>
</g>
<g id="Ellipse 9" opacity="0.1" filter="url(#filter0_f_25_139)">
<ellipse cx="136.466" cy="-25.8183" rx="81.8101" ry="58.4566" fill="url(#paint0_linear_25_139)"/>
</g>
</g>
<rect x="0.5" y="1.1001" width="277.4" height="136.6" rx="9.1" stroke="url(#paint1_linear_25_139)"/>
</g>
<defs>
<filter id="filter0_f_25_139" x="-21.5838" y="-160.515" width="316.101" height="269.393" filterUnits="userSpaceOnUse" color-interpolation-filters="sRGB">
<feFlood flood-opacity="0" result="BackgroundImageFix"/>
<feBlend mode="normal" in="SourceGraphic" in2="BackgroundImageFix" result="shape"/>
<feGaussianBlur stdDeviation="38.12" result="effect1_foregroundBlur_25_139"/>
</filter>
<linearGradient id="paint0_linear_25_139" x1="96.9381" y1="-84.2749" x2="167.417" y2="-80.4874" gradientUnits="userSpaceOnUse">
<stop stop-color="#0066FF"/>
<stop offset="1" stop-color="#6506FF"/>
</linearGradient>
<linearGradient id="paint1_linear_25_139" x1="91.3289" y1="0.600096" x2="112.678" y2="140.753" gradientUnits="userSpaceOnUse">
<stop stop-color="#264E9E"/>
<stop offset="1" stop-color="#90A3CB" stop-opacity="0.1"/>
</linearGradient>
<clipPath id="clip0_25_139">
<rect y="0.600098" width="278.4" height="137.6" rx="9.6" fill="white"/>
</clipPath>
</defs>
</svg>
