<svg width="24" height="24" viewBox="0 0 24 24" fill="none" xmlns="http://www.w3.org/2000/svg">
<g id="IPv4_IPv6 1">
<path id="Vector" d="M1 12C1 13.4445 1.28452 14.8749 1.83733 16.2095C2.39013 17.5441 3.20038 18.7567 4.22183 19.7782C5.24327 20.7996 6.4559 21.6099 7.79048 22.1627C9.12506 22.7155 10.5555 23 12 23C13.4445 23 14.8749 22.7155 16.2095 22.1627C17.5441 21.6099 18.7567 20.7996 19.7782 19.7782C20.7996 18.7567 21.6099 17.5441 22.1627 16.2095C22.7155 14.8749 23 13.4445 23 12C23 9.08262 21.8411 6.28473 19.7782 4.22183C17.7153 2.15893 14.9174 1 12 1C9.08262 1 6.28473 2.15893 4.22183 4.22183C2.15893 6.28473 1 9.08262 1 12Z" fill="black"/>
<path id="Vector_2" d="M12 3.5C16.6945 3.5 20.5 7.3055 20.5 12C20.5 16.6945 16.6945 20.5 12 20.5C7.3055 20.5 3.5 16.6945 3.5 12C3.5 7.3055 7.3055 3.5 12 3.5ZM12 4.4445C7.827 4.4445 4.4445 7.827 4.4445 12C4.4445 16.173 7.827 19.5555 12 19.5555C16.173 19.5555 19.5555 16.173 19.5555 12C19.5555 7.827 16.173 4.4445 12 4.4445Z" fill="white"/>
<path id="Vector_3" d="M12 7C16.6945 7 20.5 9.3505 20.5 12.25C20.5 15.1495 16.6945 17.5 12 17.5C7.3055 17.5 3.5 15.1495 3.5 12.25C3.5 9.3505 7.3055 7 12 7ZM12 7.955C7.76 7.955 4.4445 10.0025 4.4445 12.25C4.4445 14.4975 7.76 16.545 12 16.545C16.24 16.545 19.5555 14.4975 19.5555 12.25C19.5555 10.0025 16.24 7.955 12 7.955Z" fill="white"/>
<path id="Vector_4" d="M17.5 12C17.5 16.6945 15.0375 20.5 12 20.5C8.9625 20.5 6.5 16.6945 6.5 12C6.5 7.3055 8.9625 3.5 12 3.5C15.0375 3.5 17.5 7.3055 17.5 12ZM16.5 12C16.5 7.76 14.355 4.4445 12 4.4445C9.645 4.4445 7.5 7.76 7.5 12C7.5 16.24 9.645 19.5555 12 19.5555C14.355 19.5555 16.5 16.24 16.5 12Z" fill="white"/>
<path id="Vector_5" d="M11 9V15.5H10.107V10.857L9.0355 11.693L8.5 10.95L11 9ZM13 15.5V9H13.893V13.643L14.9645 12.807L15.5 13.55L13 15.5Z" fill="white"/>
</g>
</svg>
