<svg width="26" height="26" viewBox="0 0 26 26" fill="none" xmlns="http://www.w3.org/2000/svg">
<g id="emi&#233;&#170;&#140;&#232;&#175;&#129;&#231;&#160;&#129;" clip-path="url(#clip0_40_198)">
<path id="Vector" d="M22.6865 3.23642C22.4572 3.24399 22.2325 3.24681 22.0132 3.24681C16.2295 3.24681 13.6812 0.789716 13.6593 0.767203L13.0823 0.182129L12.5031 0.767203C12.4794 0.792536 9.98224 3.24681 4.14984 3.24681C3.9299 3.24681 3.7067 3.24399 3.47518 3.23642L2.66406 3.21076V14.3515C2.66406 17.2686 3.71436 21.5247 12.7972 24.7794L13.0807 24.8817L13.3641 24.7794C22.4469 21.5245 23.4974 17.2686 23.4974 14.3515V3.21076L22.6865 3.23642ZM12.1884 17.234L6.95484 12.6617L8.34437 11.5521L11.1273 13.5753C11.1273 13.5753 14.9691 9.6554 18.6798 7.82381L19.209 8.41332C19.209 8.41332 14.5722 12.2033 12.1884 17.234Z" fill="#999999"/>
</g>
<defs>
<clipPath id="clip0_40_198">
<rect width="25" height="25" fill="white" transform="translate(0.580078 0.182129)"/>
</clipPath>
</defs>
</svg>
