<svg width="28" height="28" viewBox="0 0 28 28" fill="none" xmlns="http://www.w3.org/2000/svg">
<g id="&#233;&#130;&#128;&#232;&#175;&#183;&#231;&#160;&#129;&#231;&#174;&#161;&#231;&#144;&#134;">
<path id="Vector" d="M19.0669 13.8549C19.0669 14.369 18.645 14.7882 18.1335 14.7882H9.34268C8.83115 14.7882 8.40928 14.3664 8.40928 13.8549C8.40928 13.3407 8.83115 12.9215 9.34268 12.9215H18.1335C18.6477 12.9215 19.0669 13.3381 19.0669 13.8549ZM25.5189 10.3375V7.53991C25.5189 6.7568 25.2104 6.00534 24.6567 5.45163C24.103 4.89792 23.3516 4.58415 22.5685 4.58942H4.88926C4.10615 4.58942 3.35469 4.90055 2.80361 5.45163C2.2499 6.00534 1.94141 6.7568 1.94141 7.53991V10.3375C4.11143 10.3375 5.87012 12.054 5.87012 14.1686C5.87012 16.2833 4.11143 17.9998 1.94141 17.9998V20.7947C1.94141 21.5778 2.2499 22.3293 2.80361 22.883C3.35732 23.4367 4.10879 23.7505 4.89189 23.7452H22.5737C23.3568 23.7452 24.1083 23.434 24.6594 22.883C25.2131 22.3293 25.5216 21.5778 25.5216 20.7947V17.9998C23.3516 17.9998 21.5929 16.2833 21.5929 14.1686C21.5902 12.0487 23.3516 10.3375 25.5189 10.3375Z" fill="#999999"/>
</g>
</svg>
