<svg width="27" height="27" viewBox="0 0 27 27" fill="none" xmlns="http://www.w3.org/2000/svg">
<g id="&#229;&#175;&#134;&#231;&#160;&#129; (3)">
<path id="Vector" d="M20.486 9.99847C19.9268 9.99847 19.4674 9.58656 19.3723 9.03513C18.9137 6.37237 16.5875 4.34017 13.7962 4.34017C11.0048 4.34017 8.67864 6.37263 8.22005 9.03513C8.12518 9.5863 7.66583 9.99847 7.10629 9.99847C6.42019 9.99847 5.868 9.38871 5.9791 8.71174C6.59545 4.95374 9.8662 2.0769 13.7962 2.0769C17.7261 2.0769 20.9966 4.95374 21.6132 8.71174C21.7243 9.38871 21.1721 9.99847 20.486 9.99847ZM22.3458 11.0709H5.35539C4.39205 11.0709 3.61133 11.8519 3.61133 12.8149V23.0548C3.61133 24.0182 4.3923 24.7989 5.35539 24.7989H22.2319C23.195 24.7989 23.9757 24.0184 23.9762 23.0553L23.981 12.7066C23.9815 11.8034 23.2492 11.0709 22.3458 11.0709ZM14.9279 19.8023C14.9279 20.4273 14.4214 20.9341 13.7962 20.9341C13.1712 20.9341 12.6644 20.4276 12.6644 19.8023V17.5391C12.6644 16.9141 13.1709 16.4073 13.7962 16.4073C14.4211 16.4073 14.9279 16.9141 14.9279 17.5391V19.8023Z" fill="#999999"/>
</g>
</svg>
