<svg width="100" height="100" viewBox="0 0 100 100" fill="none" xmlns="http://www.w3.org/2000/svg">
<g id="Group 400">
<circle id="Ellipse 25" cx="50" cy="50" r="50" fill="#E7EDFF"/>
<g id="Group">
<path id="Vector" d="M54.1199 49.7594C60.3947 49.7594 65.4987 44.6544 65.4987 38.3797C65.4987 32.105 60.3947 27 54.1199 27C47.8452 27 42.7402 32.105 42.7402 38.3797C42.7402 44.6544 47.8452 49.7594 54.1199 49.7594ZM52.7723 31.6908V31.3817C52.7723 30.6369 53.3751 30.034 54.1199 30.034C54.8638 30.034 55.4676 30.6369 55.4676 31.3817V31.6926C57.0713 32.0367 58.2779 33.4652 58.2779 35.1705C58.2779 35.9144 57.6742 36.5181 56.9303 36.5181C56.1855 36.5181 55.5826 35.9144 55.5826 35.1705C55.5826 34.6952 55.1954 34.3079 54.7201 34.3079H53.5117C53.0364 34.3079 52.6492 34.6952 52.6492 35.1705C52.6492 35.4427 52.7794 35.7014 52.9987 35.8632L54.1199 36.6933L56.844 38.7094C57.7389 39.3716 58.2779 40.4308 58.2851 41.5449V41.5575C58.2914 42.508 57.9275 43.4047 57.2591 44.0812C56.7632 44.5834 56.1432 44.9204 55.4676 45.0623V45.3777C55.4676 46.1225 54.8638 46.7253 54.1199 46.7253C53.3751 46.7253 52.7723 46.1225 52.7723 45.3777V45.0668C52.1146 44.9267 51.5099 44.6032 51.0212 44.1199C50.3447 43.4523 49.9691 42.5611 49.9637 41.6105C49.9592 40.8666 50.5585 40.2592 51.3024 40.2547H51.3114C52.0517 40.2547 52.6546 40.8531 52.6591 41.5943C52.6609 42.0595 53.0351 42.4514 53.5261 42.4514C54.2707 42.4469 53.9933 42.4486 54.7327 42.4443C55.211 42.4405 55.5935 42.0523 55.5898 41.5755V41.5629C55.588 41.2933 55.4577 41.0364 55.2403 40.8756L54.1199 40.0463L51.3949 38.0302C50.4929 37.3618 49.9538 36.2926 49.9538 35.1705C49.9538 33.4616 51.164 32.0322 52.7723 31.6908Z" fill="#396AFF"/>
<path id="Vector_2" d="M35.6825 56.2345C35.3371 55.6356 34.5697 55.4273 33.9671 55.7749L27.6279 59.4343C27.0277 59.7817 26.8217 60.5494 27.1683 61.1505L33.6473 72.3722C33.9941 72.9723 34.7614 73.1784 35.3627 72.8319L41.7019 69.1716C42.3031 68.825 42.5082 68.0573 42.1616 67.4562L35.6825 56.2345Z" fill="#396AFF"/>
<path id="Vector_3" d="M72.0054 53.9946C71.3954 53.1473 70.2148 52.956 69.3685 53.566C66.8007 55.4159 61.8701 58.9684 61.4784 59.2514C61.2978 59.405 61.1082 59.5443 60.9106 59.6673C60.1352 60.1552 59.2359 60.4157 58.297 60.4157H51.8417C51.0977 60.4157 50.494 59.8129 50.494 59.0681C50.494 58.3224 51.0986 57.7204 51.8417 57.7204H58.7453C59.7596 57.7204 60.5718 56.8759 60.5296 55.8597C60.4901 54.8957 59.6671 54.1482 58.7022 54.1482H53.4472C53.0914 53.7718 52.7015 53.4268 52.2837 53.1186C50.8471 52.0593 49.0718 51.4331 47.15 51.4331C43.7332 51.4331 40.3335 53.5858 38.9238 56.459L44.4367 66.0068H54.7778C56.8083 66.0068 58.8082 65.4875 60.5682 64.4749C61.1783 64.1245 61.8315 63.7032 62.5394 63.1946C65.5061 61.0635 71.5715 56.636 71.576 56.6333C72.4241 56.0242 72.6164 54.8418 72.0054 53.9946Z" fill="#396AFF"/>
</g>
</g>
</svg>
