<svg width="100" height="100" viewBox="0 0 100 100" fill="none" xmlns="http://www.w3.org/2000/svg">
<g id="Group 494">
<circle id="Ellipse 25" cx="50" cy="50" r="50" fill="#FFF5D9"/>
<g id="money-tag 1">
<g clip-path="url(#clip0_63_11508)">
<path id="Vector" d="M42.2307 37.0625H57.507L60.8039 34.5828C61.9264 33.7407 62.3457 32.3737 61.8711 31.098C61.3966 29.8224 60.1636 29 58.7305 29H41.0072C39.5741 29 38.3411 29.8242 37.8665 31.098C37.392 32.3719 37.8113 33.7407 38.9318 34.581L42.2307 37.0625Z" fill="#FFBB38"/>
<path id="Vector_2" d="M57.7676 39.75H41.9691C36.7646 44.5535 32.7168 52.9815 32.7168 59.9062C32.7168 65.9245 36.1052 72 43.6748 72H56.5384C63.0046 72 67.02 67.365 67.02 59.9062C67.02 52.9815 62.9722 44.5535 57.7676 39.75ZM49.1442 54.5312H50.5926C52.8204 54.5312 54.6327 56.2351 54.6327 58.3296C54.6327 60.2126 53.1882 61.7624 51.2977 62.0777V63.4878C51.2977 64.2295 50.6574 64.8315 49.8684 64.8315C49.0794 64.8315 48.4391 64.2295 48.4391 63.4878V62.1458H46.5334C45.7444 62.1458 45.1041 61.5438 45.1041 60.8021C45.1041 60.0603 45.7444 59.4583 46.5334 59.4583H50.5926C51.2443 59.4583 51.7741 58.9602 51.7741 58.3475C51.7741 57.7168 51.2443 57.2188 50.5926 57.2188H49.1442C46.9164 57.2188 45.1041 55.5149 45.1041 53.4204C45.1041 51.5374 46.5486 49.9876 48.4391 49.6722V48.2604C48.4391 47.5187 49.0794 46.9167 49.8684 46.9167C50.6574 46.9167 51.2977 47.5187 51.2977 48.2604V49.6042H53.2034C53.9924 49.6042 54.6327 50.2062 54.6327 50.9479C54.6327 51.6897 53.9924 52.2917 53.2034 52.2917H49.1442C48.4924 52.2917 47.9627 52.7897 47.9627 53.4025C47.9627 54.0332 48.4924 54.5312 49.1442 54.5312Z" fill="#FFBB38"/>
</g>
</g>
</g>
<defs>
<clipPath id="clip0_63_11508">
<rect x="27" y="29" width="45.7376" height="43" rx="12" fill="white"/>
</clipPath>
</defs>
</svg>
