<svg width="100" height="100" viewBox="0 0 100 100" fill="none" xmlns="http://www.w3.org/2000/svg">
<g id="Group 1437253794">
<circle id="Ellipse 24" cx="50" cy="50" r="50" fill="#FFE0EB"/>
<g id="001-medical">
<g id="Group">
<path id="Vector" d="M64.1856 29C61.7834 29 59.8359 30.9474 59.8359 33.3497V46.3283H67.3049C67.9844 46.3283 68.5354 45.7774 68.5354 45.0978V33.3497C68.5354 30.9474 66.5879 29 64.1856 29V29Z" fill="#FF82AC"/>
<path id="Vector_2" d="M43.8771 59.9258C43.8771 52.4928 49.9237 46.3707 57.4563 46.3912V33.8797C57.4563 32.008 58.1608 30.298 59.3181 29H37.6155C34.2244 29 31.4648 31.7595 31.4648 35.1507V69.7474C31.4648 70.8543 32.8189 71.3981 33.5845 70.598L35.1587 68.9541L36.8215 70.6177C37.3014 71.0976 38.0807 71.0976 38.5614 70.6177L40.1372 69.0427L41.7286 70.621C42.2085 71.0968 42.982 71.0968 43.4619 70.621L45.0787 69.0181L46.6964 70.621C47.1755 71.0968 47.9482 71.0968 48.4281 70.6218L48.7414 70.3118C45.6905 67.761 43.8771 63.9893 43.8771 59.9258ZM41.419 38.9258H43.8475V36.4973C43.8475 35.8178 44.3984 35.2669 45.0779 35.2669C45.7575 35.2669 46.3084 35.8178 46.3084 36.4973V38.9258H48.7369C49.4164 38.9258 49.9673 39.4767 49.9673 40.1562C49.9673 40.8358 49.4164 41.3867 48.7369 41.3867H46.3084V43.8152C46.3084 44.4947 45.7575 45.0456 45.0779 45.0456C44.3984 45.0456 43.8475 44.4947 43.8475 43.8152V41.3867H41.419C40.7395 41.3867 40.1885 40.8358 40.1885 40.1562C40.1885 39.4767 40.7395 38.9258 41.419 38.9258ZM37.695 47.5432H45.9803C46.6598 47.5432 47.2107 48.0941 47.2107 48.7736C47.2107 49.4532 46.6598 50.0041 45.9803 50.0041H37.695C37.0155 50.0041 36.4646 49.4532 36.4646 48.7736C36.4646 48.0941 37.0155 47.5432 37.695 47.5432ZM41.8007 59.8396H37.6868C37.0073 59.8396 36.4564 59.2887 36.4564 58.6092C36.4564 57.9296 37.0073 57.3787 37.6868 57.3787H41.8007C42.4802 57.3787 43.0312 57.9296 43.0312 58.6092C43.0312 59.2887 42.4802 59.8396 41.8007 59.8396ZM42.6211 54.926H37.6909C37.0113 54.926 36.4604 54.3751 36.4604 53.6955C36.4604 53.016 37.0113 52.465 37.6909 52.465H42.6211C43.3006 52.465 43.8516 53.016 43.8516 53.6955C43.8516 54.3751 43.3006 54.926 42.6211 54.926Z" fill="#FF82AC"/>
<path id="Vector_3" d="M57.4121 48.8516C51.3058 48.8516 46.3379 53.8195 46.3379 59.9258C46.3379 66.0321 51.3058 71 57.4121 71C63.5184 71 68.4863 66.0321 68.4863 59.9258C68.4863 53.8195 63.5184 48.8516 57.4121 48.8516ZM58.6464 64.6646V64.7816C58.6464 65.4612 58.0955 66.0121 57.416 66.0121C56.7364 66.0121 56.1855 65.4612 56.1855 64.7816V64.7608C55.6343 64.6295 55.1229 64.4123 54.7175 64.147C54.1487 63.7749 53.9894 63.0124 54.3614 62.4436C54.7335 61.8748 55.496 61.7155 56.0647 62.0876C56.5683 62.4171 57.3985 62.5422 57.8065 62.3502C58.0709 62.2258 58.2755 61.9602 58.304 61.7045C58.3649 61.1596 57.5113 60.8557 57.0016 60.6544C56.2304 60.3498 55.2704 59.9707 54.7132 58.9646C53.9189 57.5308 54.6146 55.6402 56.1855 54.9937V54.9317C56.1855 54.2522 56.7364 53.7012 57.416 53.7012C58.0888 53.7012 58.6347 54.2415 58.6454 54.9118C59.0883 55.0502 59.4964 55.2717 59.823 55.573C60.3226 56.0337 60.354 56.8121 59.8932 57.3117C59.4325 57.8113 58.654 57.8426 58.1545 57.3819C57.9521 57.1951 57.3283 57.1198 57.0572 57.3018C56.8749 57.4244 56.8034 57.6593 56.8659 57.772C57.1257 58.2411 58.4866 58.4019 59.5165 59.2045C61.6205 60.844 60.8884 63.8046 58.6464 64.6646Z" fill="#FF82AC"/>
</g>
</g>
</g>
</svg>
