<svg width="25" height="24" viewBox="0 0 25 24" fill="none" xmlns="http://www.w3.org/2000/svg">
<g id="&#232;&#183;&#159;&#232;&#184;&#170;&#231;&#155;&#174;&#230;&#160;&#135;&#232;&#174;&#190;&#231;&#189;&#174; 1" clip-path="url(#clip0_63_9401)">
<path id="Vector" d="M12.1804 14.6973C12.0845 14.6813 11.9966 14.7053 11.9166 14.7692C11.8367 14.8332 11.7648 14.9051 11.7009 14.985C11.6209 15.0969 11.561 15.2527 11.521 15.4525C11.4811 15.6523 11.4611 15.8561 11.4611 16.0639C11.4611 16.2717 11.4811 16.4675 11.521 16.6513C11.561 16.8352 11.6289 16.975 11.7248 17.0709C11.8207 17.1828 11.9566 17.2547 12.1324 17.2867C12.2763 17.2547 12.4121 17.2627 12.54 17.3107C12.6519 17.3427 12.7638 17.4106 12.8757 17.5145C12.9876 17.6184 13.0835 17.7822 13.1634 18.006C13.2913 18.3576 13.2993 18.6853 13.1874 18.989C13.0755 19.2927 12.9156 19.5325 12.7078 19.7083C12.564 19.8362 12.4721 19.952 12.4321 20.0559C12.3922 20.1598 12.3802 20.2597 12.3962 20.3556C12.4281 20.4515 12.4761 20.5554 12.54 20.6673C12.6039 20.7792 12.6759 20.8991 12.7558 21.027L11.9646 22.5614L9.90265 14.5055L1.36719 12.2038L23.8327 0L19.3492 8.51149C19.0775 8.44755 18.7658 8.41958 18.4141 8.42757C18.0625 8.43556 17.7908 8.52747 17.599 8.7033C17.535 8.75125 17.4951 8.81518 17.4791 8.89511L17.4311 9.13486C17.4151 9.26274 17.3672 9.42258 17.2873 9.61439C17.2073 9.80619 16.9836 9.97403 16.6159 10.1179C16.4401 10.1818 16.2843 10.2617 16.1484 10.3576C16.0125 10.4535 15.8847 10.5335 15.7648 10.5974C15.6449 10.6613 15.525 10.6973 15.4051 10.7053C15.2853 10.7133 15.1614 10.6533 15.0335 10.5255C14.8737 10.3656 14.7138 10.2937 14.554 10.3097C14.4261 10.3257 14.2943 10.3776 14.1584 10.4655C14.0225 10.5534 13.8867 10.6573 13.7508 10.7772C13.6149 10.8971 13.4951 11.029 13.3912 11.1728C13.2873 11.3167 13.2113 11.4525 13.1634 11.5804C13.0995 11.7083 13.0715 11.8402 13.0795 11.976C13.0875 12.1119 13.1314 12.2118 13.2113 12.2757V12.2997L13.4991 12.5874C13.563 12.6513 13.599 12.7153 13.6069 12.7792C13.6149 12.8432 13.599 12.9231 13.559 13.019C13.519 13.1149 13.4671 13.2507 13.4032 13.4266C13.2593 13.7622 13.1074 14.0619 12.9476 14.3257C12.7878 14.5894 12.532 14.7133 12.1804 14.6973ZM23.9286 15.1289C23.9926 15.2727 24.0245 15.4525 24.0245 15.6683C24.0245 15.8841 23.9926 16.0959 23.9286 16.3037C23.8967 16.4156 23.8447 16.4915 23.7728 16.5315C23.7009 16.5714 23.6249 16.5914 23.545 16.5914C23.3212 16.5754 23.0975 16.6274 22.8737 16.7473C22.6499 16.8671 22.4901 17.039 22.3942 17.2627C22.2983 17.4865 22.2743 17.7103 22.3222 17.9341C22.3702 18.1578 22.4741 18.3497 22.6339 18.5095C22.6659 18.5415 22.6979 18.5814 22.7298 18.6294C22.7938 18.7093 22.8097 18.8132 22.7778 18.9411C22.7458 19.1009 22.6219 19.2887 22.4061 19.5045C22.1904 19.7203 21.9866 19.8362 21.7948 19.8521C21.6989 19.8681 21.6229 19.8601 21.567 19.8282C21.511 19.7962 21.4511 19.7562 21.3872 19.7083C21.2593 19.5964 21.0835 19.4925 20.8597 19.3966C20.6359 19.3007 20.4121 19.3007 20.1884 19.3966C19.9646 19.4765 19.7928 19.6204 19.6729 19.8282C19.553 20.036 19.4931 20.2517 19.4931 20.4755C19.4931 20.6513 19.4291 20.7792 19.3013 20.8591C19.1734 20.9391 18.9736 20.979 18.7019 20.979C18.4301 20.979 18.2063 20.9391 18.0305 20.8591C17.8707 20.7792 17.8067 20.6593 17.8387 20.4995H17.8147C17.8307 20.2757 17.7828 20.0519 17.6709 19.8282C17.559 19.6044 17.3912 19.4446 17.1674 19.3487C16.9436 19.2527 16.7078 19.2368 16.4601 19.3007C16.2123 19.3646 16.0085 19.4845 15.8487 19.6603C15.7528 19.7722 15.601 19.7962 15.3932 19.7323C15.2973 19.6843 15.1974 19.6204 15.0935 19.5405C14.9896 19.4605 14.8937 19.3686 14.8057 19.2647C14.7178 19.1608 14.6379 19.0569 14.566 18.953C14.4941 18.8492 14.4501 18.7572 14.4341 18.6773C14.4022 18.5494 14.4741 18.4136 14.6499 18.2697C14.7778 18.1419 14.8777 17.978 14.9496 17.7782C15.0215 17.5784 15.0175 17.3666 14.9376 17.1429C14.8897 16.999 14.8097 16.8871 14.6979 16.8072C14.586 16.7273 14.4661 16.6633 14.3382 16.6154C14.1944 16.5514 14.0425 16.5115 13.8827 16.4955C13.7548 16.4795 13.6589 16.4316 13.595 16.3516C13.4831 16.2238 13.4311 16.004 13.4391 15.6923C13.4471 15.3806 13.4991 15.1449 13.595 14.985C13.6909 14.8412 13.7948 14.7772 13.9066 14.7932C14.1304 14.7932 14.3622 14.7373 14.602 14.6254C14.8417 14.5135 15.0095 14.3457 15.1054 14.1219C15.2014 13.8981 15.2093 13.6663 15.1294 13.4266C15.0495 13.1868 14.9216 12.987 14.7458 12.8272V12.8032C14.6979 12.7712 14.6739 12.7073 14.6739 12.6114C14.6739 12.5155 14.6899 12.4276 14.7218 12.3477C14.8018 12.1718 14.9336 11.996 15.1174 11.8202C15.3013 11.6444 15.4731 11.5405 15.6329 11.5085C15.7128 11.4925 15.7728 11.5005 15.8127 11.5325C15.8527 11.5644 15.8967 11.6044 15.9446 11.6523C16.1204 11.8122 16.3202 11.9201 16.544 11.976C16.7678 12.032 16.9916 12.02 17.2153 11.9401C17.3272 11.8921 17.4271 11.8202 17.515 11.7243C17.603 11.6284 17.6789 11.5245 17.7428 11.4126C17.8067 11.3007 17.8547 11.2008 17.8867 11.1129C17.9186 11.025 17.9346 10.957 17.9346 10.9091C17.9346 10.7812 17.9666 10.6853 18.0305 10.6214C18.1104 10.5415 18.2183 10.4895 18.3542 10.4655C18.4901 10.4416 18.6259 10.4296 18.7618 10.4296C18.8977 10.4296 19.0255 10.4456 19.1454 10.4775C19.2653 10.5095 19.3572 10.5335 19.4211 10.5495C19.5011 10.5814 19.557 10.6374 19.589 10.7173C19.6209 10.7972 19.6369 10.8691 19.6369 10.9331C19.6209 11.1568 19.6689 11.3686 19.7808 11.5684C19.8927 11.7682 20.0605 11.9161 20.2843 12.012C20.508 12.1079 20.7358 12.1359 20.9676 12.0959C21.1994 12.0559 21.3952 11.9481 21.555 11.7722C21.6829 11.6444 21.8187 11.6044 21.9626 11.6523C22.1384 11.7323 22.3222 11.8721 22.514 12.0719C22.7058 12.2717 22.8177 12.4835 22.8497 12.7073C22.8497 12.7552 22.8337 12.8112 22.8018 12.8751C22.7698 12.9391 22.7378 12.979 22.7058 12.995C22.53 13.1548 22.4141 13.3467 22.3582 13.5704C22.3023 13.7942 22.3222 14.018 22.4181 14.2418C22.4981 14.4655 22.6539 14.6374 22.8857 14.7572C23.1174 14.8771 23.3452 14.9291 23.569 14.9131C23.6489 14.9131 23.7208 14.9291 23.7848 14.961C23.8487 14.993 23.8967 15.049 23.9286 15.1289ZM18.7258 17.9341C19.0295 17.9341 19.3212 17.8741 19.601 17.7542C19.8807 17.6344 20.1204 17.4745 20.3202 17.2747C20.52 17.0749 20.6799 16.8392 20.7998 16.5674C20.9196 16.2957 20.9796 16 20.9796 15.6803C20.9796 15.3766 20.9196 15.0849 20.7998 14.8052C20.6799 14.5255 20.52 14.2857 20.3202 14.0859C20.1204 13.8861 19.8807 13.7263 19.601 13.6064C19.3212 13.4865 19.0295 13.4266 18.7258 13.4266C18.4221 13.4266 18.1344 13.4865 17.8627 13.6064C17.591 13.7263 17.3552 13.8861 17.1554 14.0859C16.9556 14.2857 16.7958 14.5255 16.6759 14.8052C16.556 15.0849 16.4961 15.3766 16.4961 15.6803C16.4961 16 16.556 16.2957 16.6759 16.5674C16.7958 16.8392 16.9556 17.0749 17.1554 17.2747C17.3552 17.4745 17.591 17.6344 17.8627 17.7542C18.1344 17.8741 18.4221 17.9341 18.7258 17.9341Z" fill="black"/>
</g>
<defs>
<clipPath id="clip0_63_9401">
<rect width="24.0469" height="24" fill="white"/>
</clipPath>
</defs>
</svg>
