<svg width="43" height="26" viewBox="0 0 43 26" fill="none" xmlns="http://www.w3.org/2000/svg">
<g id="&#229;&#155;&#189;&#229;&#134;&#133;&#228;&#186;&#164;&#230;&#152;&#147;&#228;&#184;&#128;&#232;&#136;&#172;&#230;&#148;&#175;&#228;&#187;&#152;&#229;&#185;&#179;&#229;&#143;&#176;">
<g id="Group 378">
<g id="g13">
<g id="g15">
<path id="Vector" d="M13.6401 22.9549V21.6274C13.6401 21.1186 13.3337 20.7865 12.8082 20.7865C12.6629 20.7808 12.5186 20.8122 12.3886 20.8779C12.2586 20.9436 12.1471 21.0415 12.0645 21.1623C11.9927 21.0412 11.8895 20.9422 11.766 20.8759C11.6426 20.8097 11.5036 20.7788 11.3641 20.7865C11.2443 20.7814 11.1252 20.8071 11.018 20.8613C10.9108 20.9155 10.8189 20.9963 10.7512 21.0963V20.8285H10.291V22.9522H10.7512V21.7792C10.7512 21.4034 10.9481 21.2266 11.2546 21.2266C11.5611 21.2266 11.7139 21.4257 11.7139 21.7792V22.9522H12.174V21.7792C12.174 21.4034 12.3922 21.2266 12.6774 21.2266C12.9839 21.2266 13.1367 21.4257 13.1367 21.7792V22.9522L13.6401 22.9549ZM20.447 20.8312H19.7034V20.1893H19.2432V20.8312H18.8281V21.2507H19.2432V22.2247C19.2432 22.7112 19.4402 22.9986 19.9657 22.9986C20.1652 22.9946 20.3607 22.9416 20.5354 22.8442L20.4038 22.446C20.2858 22.5206 20.149 22.559 20.0098 22.5567C19.7908 22.5567 19.7034 22.4237 19.7034 22.1997V21.248H20.447V20.8312ZM24.3437 20.7865C24.2334 20.7841 24.1245 20.8115 24.0282 20.866C23.9319 20.9204 23.8518 21 23.7962 21.0963V20.8285H23.3369V22.9522H23.7962V21.7569C23.7962 21.3998 23.9498 21.2043 24.2378 21.2043C24.3338 21.2084 24.4292 21.2231 24.5222 21.248L24.6538 20.8017C24.5527 20.7832 24.4499 20.7757 24.3473 20.7794L24.3437 20.7865ZM18.4545 21.0079C18.2355 20.8526 17.9246 20.7865 17.6013 20.7865C17.0714 20.7865 16.7252 21.0543 16.7252 21.4721C16.7252 21.8292 16.9902 22.0256 17.4477 22.0917L17.6667 22.114C17.9078 22.1586 18.0385 22.2247 18.0385 22.3354C18.0385 22.4898 17.8619 22.6032 17.5572 22.6032C17.3067 22.6045 17.0619 22.5272 16.8568 22.3818L16.6378 22.7389C16.9025 22.9194 17.2158 23.0129 17.5351 23.0067C18.148 23.0067 18.4987 22.7192 18.4987 22.3211C18.4987 21.9452 18.2143 21.7462 17.7762 21.6792L17.5572 21.6578C17.3602 21.6355 17.2039 21.5908 17.2039 21.4587C17.2039 21.3034 17.3567 21.215 17.5978 21.215C17.8267 21.2258 18.0506 21.2867 18.254 21.3936L18.451 21.0177L18.4545 21.0079ZM30.6684 20.7865C30.5581 20.7841 30.4491 20.8115 30.3528 20.866C30.2565 20.9204 30.1764 21 30.1208 21.0963V20.8285H29.6616V22.9522H30.1208V21.7569C30.1208 21.3998 30.2745 21.2043 30.5624 21.2043C30.6585 21.2084 30.7539 21.2231 30.8468 21.248L30.9784 20.8017C30.8773 20.7832 30.7746 20.7757 30.6719 20.7794L30.6684 20.7865ZM24.8021 21.8926C24.8021 22.5344 25.2437 22.9986 25.9185 22.9986C26.1879 23.0135 26.4531 22.927 26.6631 22.7558L26.444 22.3791C26.289 22.5061 26.096 22.5762 25.8964 22.5782C25.5246 22.5782 25.2623 22.3104 25.2623 21.8926C25.2579 21.8051 25.271 21.7176 25.3007 21.6354C25.3305 21.5531 25.3763 21.4778 25.4355 21.4138C25.4946 21.3498 25.5659 21.2985 25.6451 21.263C25.7243 21.2275 25.8098 21.2084 25.8964 21.207C26.096 21.2089 26.289 21.2791 26.444 21.4061L26.6684 21.0267C26.4587 20.8548 26.1933 20.768 25.9238 20.783C25.2455 20.783 24.8074 21.2472 24.8074 21.889L24.8021 21.8926ZM29.0486 21.8926V20.8312H28.5893V21.099C28.512 20.9984 28.412 20.9178 28.2978 20.8639C28.1835 20.8101 28.0582 20.7845 27.9322 20.7892C27.3414 20.7892 26.8821 21.2534 26.8821 21.8952C26.8821 22.5371 27.3414 23.0013 27.9322 23.0013C28.2387 23.0013 28.4577 22.8906 28.5893 22.6915V22.9594H29.053V21.897L29.0486 21.8926ZM27.3634 21.8926C27.3634 21.5167 27.6037 21.207 27.9985 21.207C28.3703 21.207 28.6326 21.4944 28.6326 21.8926C28.6326 22.2684 28.3676 22.5782 27.9985 22.5782C27.9117 22.5771 27.826 22.5583 27.7466 22.5229C27.6672 22.4875 27.5957 22.4362 27.5364 22.3722C27.477 22.3082 27.4311 22.2327 27.4014 22.1502C27.3717 22.0678 27.3588 21.9802 27.3634 21.8926ZM21.869 20.7865C21.256 20.7865 20.8189 21.2329 20.8189 21.8926C20.8189 22.5523 21.2605 22.9986 21.8911 22.9986C22.2 23.0052 22.5017 22.9036 22.7451 22.7112L22.5261 22.3791C22.3504 22.517 22.1356 22.5946 21.9132 22.6005C21.6288 22.6005 21.3444 22.4684 21.2781 22.0917H22.8326V21.9131C22.8547 21.2275 22.4599 20.7847 21.869 20.7847V20.7865ZM21.869 21.1847C22.1543 21.1847 22.3512 21.3632 22.3989 21.6935H21.3011C21.3141 21.5515 21.3801 21.4198 21.4858 21.3252C21.5915 21.2307 21.7288 21.1804 21.8699 21.1847H21.869ZM33.273 21.8926V19.9902H32.8137V21.0963C32.7363 20.9957 32.6364 20.9151 32.5221 20.8613C32.4079 20.8074 32.2826 20.7818 32.1566 20.7865C31.5657 20.7865 31.1065 21.2507 31.1065 21.8926C31.1065 22.5344 31.5657 22.9986 32.1566 22.9986C32.4631 22.9986 32.6865 22.8879 32.8137 22.6889V22.9567H33.273V21.8944V21.8926ZM31.5878 21.8926C31.5878 21.5167 31.8281 21.207 32.2229 21.207C32.5947 21.207 32.857 21.4944 32.857 21.8926C32.857 22.2684 32.592 22.5782 32.2229 22.5782C32.1361 22.5771 32.0504 22.5583 31.971 22.5229C31.8916 22.4875 31.8201 22.4362 31.7607 22.3722C31.7014 22.3082 31.6555 22.2327 31.6258 22.1502C31.5961 22.0678 31.5832 21.9802 31.5878 21.8926ZM16.22 21.8926V20.8312H15.7607V21.099C15.6833 20.9984 15.5834 20.9178 15.4692 20.8639C15.3549 20.8101 15.2296 20.7845 15.1036 20.7892C14.5128 20.7892 14.0535 21.2534 14.0535 21.8952C14.0535 22.5371 14.5128 23.0013 15.1036 23.0013C15.4101 23.0013 15.6291 22.8906 15.7607 22.6915V22.9594H16.22V21.897V21.8926ZM14.5128 21.8926C14.5128 21.5167 14.7539 21.207 15.1478 21.207C15.5196 21.207 15.7828 21.4944 15.7828 21.8926C15.7828 22.2684 15.5178 22.5782 15.1478 22.5782C15.0613 22.5766 14.9759 22.5575 14.8969 22.5219C14.8178 22.4863 14.7467 22.435 14.6877 22.371C14.6287 22.307 14.583 22.2317 14.5534 22.1495C14.5238 22.0673 14.5109 21.9799 14.5154 21.8926H14.5128Z" fill="white"/>
</g>
<path id="rect19" d="M25.1979 4.70117H18.3027V17.223H25.1979V4.70117Z" fill="#FF5F00"/>
<path id="Vector_2" d="M18.74 10.9623C18.7408 9.75736 19.0113 8.56826 19.5314 7.48407C20.0514 6.39987 20.8075 5.44868 21.7429 4.70176C20.5805 3.77794 19.1844 3.20334 17.7141 3.04365C16.2439 2.88395 14.7589 3.1456 13.4288 3.79869C12.0988 4.45178 10.9774 5.46996 10.1928 6.73682C9.40825 8.00369 8.99219 9.46812 8.99219 10.9627C8.99219 12.4573 9.40825 13.9217 10.1928 15.1886C10.9774 16.4554 12.0988 17.4736 13.4288 18.1267C14.7589 18.7798 16.2439 19.0414 17.7141 18.8818C19.1844 18.7221 20.5805 18.1475 21.7429 17.2236C20.8056 16.4782 20.0483 15.5272 19.5281 14.4424C19.0079 13.3577 18.7384 12.1677 18.74 10.9623Z" fill="#EB001B"/>
<path id="path22" d="M34.5011 10.9618C34.5026 12.4557 34.088 13.9199 33.3046 15.1867C32.5212 16.4536 31.4008 17.472 30.0716 18.1253C28.7424 18.7786 27.258 19.0405 25.7884 18.8809C24.3188 18.7214 22.9234 18.1469 21.7617 17.2232C22.6968 16.4761 23.4524 15.5247 23.9719 14.4404C24.4914 13.3561 24.7612 12.167 24.7612 10.9622C24.7612 9.75749 24.4914 8.56837 23.9719 7.48406C23.4524 6.39975 22.6968 5.44838 21.7617 4.7013C22.9233 3.77763 24.3187 3.20314 25.7882 3.04357C27.2577 2.884 28.742 3.1458 30.0712 3.799C31.4004 4.4522 32.5208 5.47043 33.3042 6.73715C34.0877 8.00388 34.5024 9.46793 34.5011 10.9618Z" fill="#F79E1B"/>
</g>
</g>
</g>
</svg>
