<svg width="43" height="26" viewBox="0 0 43 26" fill="none" xmlns="http://www.w3.org/2000/svg">
<g id="&#229;&#155;&#189;&#229;&#134;&#133;&#228;&#186;&#164;&#230;&#152;&#147;&#228;&#184;&#128;&#232;&#136;&#172;&#230;&#148;&#175;&#228;&#187;&#152;&#229;&#185;&#179;&#229;&#143;&#176;">
<g id="Group 379">
<g id="g6327">
<path id="path6338" d="M27.9609 15.4463H29.8727C29.9277 15.4463 30.0557 15.4277 30.1097 15.4277C30.3042 15.3848 30.478 15.2731 30.6011 15.112C30.7242 14.9509 30.7887 14.7505 30.7836 14.5455C30.7832 14.342 30.7166 14.1444 30.5944 13.9845C30.4722 13.8246 30.3016 13.7115 30.1097 13.6633C30.0319 13.6463 29.9522 13.6397 29.8727 13.6437H27.9609V15.4463Z" fill="url(#paint0_linear_82_2342)"/>
<path id="path6349" d="M29.6559 3C28.7767 3.00027 27.9336 3.36045 27.312 4.00134C26.6905 4.64222 26.3413 5.51132 26.3413 6.41753V9.96491H31.0217C31.1314 9.96112 31.2412 9.96767 31.3497 9.98449C32.4056 10.0401 33.1895 10.6029 33.1895 11.5799C33.1895 12.3498 32.6605 13.0063 31.6777 13.1382V13.1753C32.7515 13.2505 33.5714 13.8699 33.5714 14.8243C33.5714 15.8549 32.6605 16.533 31.4587 16.533H26.3223V23.4784H31.1857C32.0643 23.4784 32.9069 23.1188 33.5285 22.4788C34.15 21.8387 34.4995 20.9705 34.5003 20.065V3H29.6559Z" fill="url(#paint1_linear_82_2342)"/>
<path id="path6360" d="M30.5466 11.804C30.5502 11.6077 30.4835 11.4168 30.3592 11.2679C30.2348 11.1191 30.0617 11.0226 29.8727 10.9971C29.8367 10.9971 29.7457 10.9785 29.6907 10.9785H27.9609V12.6275H29.6907C29.752 12.6327 29.8136 12.6264 29.8727 12.609C30.0613 12.5834 30.2342 12.4873 30.3585 12.3389C30.4828 12.1904 30.5497 12.0001 30.5466 11.804Z" fill="url(#paint2_linear_82_2342)"/>
</g>
<path id="path6371" d="M11.3327 3.00011C10.4535 3.00038 9.61045 3.36056 8.98886 4.00144C8.36728 4.64232 8.01809 5.51143 8.01809 6.41763V14.846C8.94698 15.316 9.91287 15.6159 10.8778 15.6159C12.0256 15.6159 12.6446 14.9027 12.6446 13.9267V9.9444H15.4812V13.9051C15.4812 15.4448 14.5524 16.7032 11.4017 16.7032C10.2536 16.7039 9.10979 16.5589 7.99609 16.2714V23.4609H12.8585C13.2945 23.4619 13.7263 23.3742 14.1293 23.203C14.5323 23.0317 14.8986 22.7802 15.2072 22.4629C15.5158 22.1456 15.7607 21.7686 15.9278 21.3536C16.0949 20.9386 16.181 20.4938 16.1812 20.0445V2.99805L11.3327 3.00011Z" fill="url(#paint3_linear_82_2342)"/>
<path id="path6384" d="M20.4933 3C19.6143 3.00055 18.7715 3.36085 18.1501 4.0017C17.5287 4.64255 17.1797 5.5115 17.1797 6.41753V10.8853C18.0176 10.1525 19.4794 9.68355 21.8242 9.79589C22.7026 9.85323 23.5742 9.99119 24.4289 10.2081V11.651C23.6512 11.2221 22.7948 10.9662 21.9151 10.8997C20.1304 10.7688 19.0565 11.6695 19.0565 13.2464C19.0565 14.8418 20.1304 15.7436 21.9151 15.5931C22.954 15.5179 23.7549 15.1809 24.4289 14.8418V16.2847C23.5746 16.5035 22.7028 16.6415 21.8242 16.6969C19.4754 16.8092 18.0176 16.3393 17.1797 15.6075V23.4918H22.0431C22.9222 23.4918 23.7653 23.1318 24.3869 22.4911C25.0085 21.8504 25.3578 20.9814 25.3578 20.0753V3H20.4933Z" fill="url(#paint4_linear_82_2342)"/>
</g>
</g>
<defs>
<linearGradient id="paint0_linear_82_2342" x1="26.3231" y1="14.503" x2="34.5119" y2="14.503" gradientUnits="userSpaceOnUse">
<stop stop-color="#007940"/>
<stop offset="0.23" stop-color="#00873F"/>
<stop offset="0.74" stop-color="#40A737"/>
<stop offset="1" stop-color="#5CB531"/>
</linearGradient>
<linearGradient id="paint1_linear_82_2342" x1="-1280.62" y1="10496.7" x2="-954.229" y2="10496.7" gradientUnits="userSpaceOnUse">
<stop stop-color="#007940"/>
<stop offset="0.23" stop-color="#00873F"/>
<stop offset="0.74" stop-color="#40A737"/>
<stop offset="1" stop-color="#5CB531"/>
</linearGradient>
<linearGradient id="paint2_linear_82_2342" x1="-385.282" y1="868.087" x2="-281.978" y2="868.087" gradientUnits="userSpaceOnUse">
<stop stop-color="#007940"/>
<stop offset="0.23" stop-color="#00873F"/>
<stop offset="0.74" stop-color="#40A737"/>
<stop offset="1" stop-color="#5CB531"/>
</linearGradient>
<linearGradient id="paint3_linear_82_2342" x1="7.99494" y1="13.1895" x2="16.3088" y2="13.1895" gradientUnits="userSpaceOnUse">
<stop stop-color="#1F286F"/>
<stop offset="0.48" stop-color="#004E94"/>
<stop offset="0.83" stop-color="#0066B1"/>
<stop offset="1" stop-color="#006FBC"/>
</linearGradient>
<linearGradient id="paint4_linear_82_2342" x1="17.115" y1="13.2084" x2="25.1891" y2="13.2084" gradientUnits="userSpaceOnUse">
<stop stop-color="#6C2C2F"/>
<stop offset="0.17" stop-color="#882730"/>
<stop offset="0.57" stop-color="#BE1833"/>
<stop offset="0.86" stop-color="#DC0436"/>
<stop offset="1" stop-color="#E60039"/>
</linearGradient>
</defs>
</svg>
