<svg width="34" height="21" viewBox="0 0 34 21" fill="none" xmlns="http://www.w3.org/2000/svg">
<g id="Group 5">
<g id="Group 3">
<path id="Vector" d="M6.96816 0.00195312H15.2144C16.3655 0.00195312 17.0815 0.940203 16.813 2.09513L12.9737 18.5784C12.7028 19.7293 11.5503 20.6684 10.3984 20.6684H2.1529C1.0034 20.6684 0.285847 19.7293 0.554377 18.5784L4.39521 2.09513C4.66374 0.940203 5.81565 0.00195312 6.96816 0.00195312Z" fill="#E21836"/>
<path id="Vector_2" d="M14.5282 0H24.0112C25.1621 0 24.6431 0.93825 24.3724 2.09317L20.5338 18.5765C20.2644 19.7274 20.3484 20.6664 19.1951 20.6664H9.71213C8.55881 20.6664 7.84507 19.7274 8.11602 18.5765L11.9544 2.09317C12.227 0.93825 13.3765 0 14.5282 0Z" fill="#00447C"/>
<path id="Vector_3" d="M23.6333 0H31.8795C33.0323 0 33.7482 0.93825 33.4775 2.09317L29.6388 18.5765C29.3679 19.7274 28.2146 20.6664 27.0621 20.6664H18.8196C17.6663 20.6664 16.951 19.7274 17.2211 18.5765L21.0603 2.09317C21.3289 0.93825 22.48 0 23.6333 0Z" fill="#007B84"/>
<path id="Vector_4" d="M9.12268 5.28301C8.27468 5.29165 8.02424 5.28301 7.94424 5.26412C7.91349 5.41024 7.34125 8.04992 7.33964 8.05213C7.21643 8.58618 7.12679 8.96687 6.82228 9.21268C6.64942 9.35559 6.44762 9.42453 6.21366 9.42453C5.8376 9.42453 5.61851 9.23781 5.58173 8.88365L5.5747 8.76205C5.5747 8.76205 5.68926 8.04671 5.68926 8.04269C5.68926 8.04269 6.28984 5.63717 6.39737 5.31919C6.403 5.3011 6.40461 5.29165 6.40602 5.28301C5.23702 5.29326 5.0298 5.28301 5.01552 5.26412C5.00769 5.29004 4.97874 5.43918 4.97874 5.43918L4.3655 8.15042L4.31284 8.38036L4.21094 9.13249C4.21094 9.35559 4.25475 9.5377 4.34199 9.69166C4.62137 10.1799 5.41832 10.253 5.86915 10.253C6.45003 10.253 6.99493 10.1296 7.36316 9.90431C8.00233 9.52664 8.16956 8.93632 8.31869 8.41172L8.38784 8.14258C8.38784 8.14258 9.0065 5.6442 9.11162 5.31919C9.11564 5.3011 9.11725 5.29165 9.12268 5.28301ZM11.2277 7.29848C11.0785 7.29848 10.806 7.33466 10.5611 7.45465C10.4723 7.50028 10.3883 7.55294 10.2997 7.6054L10.3796 7.31657L10.3358 7.26793C9.81666 7.37305 9.70048 7.38712 9.22091 7.45465L9.18071 7.48138C9.12503 7.94307 9.07558 8.29019 8.86916 9.19769C8.79057 9.53215 8.70897 9.86982 8.62716 10.2035L8.64927 10.2459C9.14071 10.22 9.28985 10.22 9.71696 10.227L9.75154 10.1894C9.8058 9.91143 9.81284 9.8463 9.93303 9.28331C9.98951 9.01639 10.1073 8.42989 10.1654 8.22105C10.2721 8.17161 10.3774 8.12296 10.4779 8.12296C10.7173 8.12296 10.6882 8.3318 10.6789 8.41501C10.6687 8.5547 10.5814 9.01096 10.492 9.40271L10.4323 9.65556C10.3907 9.84228 10.3451 10.0238 10.3035 10.2089L10.3216 10.2459C10.806 10.22 10.9537 10.22 11.3673 10.227L11.416 10.1894C11.4908 9.75525 11.5127 9.63908 11.6453 9.00694L11.7121 8.71651C11.8417 8.14809 11.9068 7.85986 11.8087 7.6251C11.705 7.36199 11.4562 7.29848 11.2277 7.29848ZM13.5791 7.89361C13.3217 7.94305 13.1575 7.97602 12.9942 7.99732C12.8324 8.02325 12.6747 8.04677 12.4258 8.08134L12.4061 8.09923L12.388 8.1135C12.3621 8.29882 12.344 8.45901 12.3097 8.64734C12.2805 8.84211 12.2357 9.0634 12.1627 9.38138C12.1062 9.62479 12.0771 9.70961 12.0449 9.79523C12.0136 9.88086 11.979 9.96407 11.9155 10.2035L11.9304 10.2256L11.9428 10.2459C12.1754 10.2348 12.3275 10.227 12.4839 10.2256C12.6401 10.2199 12.8019 10.2256 13.0523 10.227L13.0742 10.2091L13.0978 10.1894C13.1339 9.97352 13.1394 9.91543 13.1615 9.81011C13.1834 9.69715 13.2212 9.54077 13.3138 9.1231C13.3576 8.92693 13.4065 8.73136 13.4519 8.53117C13.4991 8.33178 13.5486 8.13541 13.5956 7.93923L13.5886 7.91552L13.5791 7.89361ZM13.5846 7.09119C13.3507 6.95311 12.94 6.99692 12.6637 7.18767C12.3881 7.3746 12.3567 7.63991 12.5899 7.7798C12.8198 7.91407 13.2321 7.87407 13.506 7.68172C13.781 7.49077 13.8154 7.22787 13.5846 7.09119ZM14.9995 10.2891C15.4729 10.2891 15.9581 10.1587 16.3233 9.77157C16.6043 9.45762 16.7331 8.9905 16.7778 8.79815C16.9231 8.16059 16.8099 7.86292 16.6678 7.68162C16.4519 7.40525 16.0705 7.31661 15.6747 7.31661C15.4367 7.31661 14.8699 7.34012 14.4271 7.74835C14.1091 8.04281 13.9622 8.44239 13.8736 8.82549C13.7841 9.21582 13.6812 9.9185 14.3274 10.18C14.5268 10.2656 14.8142 10.2891 14.9995 10.2891ZM14.9626 8.85463C15.0717 8.37184 15.2005 7.96663 15.5294 7.96663C15.787 7.96663 15.8057 8.26812 15.6912 8.75252C15.6707 8.86006 15.5766 9.25984 15.4494 9.43008C15.3605 9.5557 15.2554 9.63188 15.1392 9.63188C15.1047 9.63188 14.899 9.63188 14.8958 9.32657C14.8942 9.17582 14.925 9.02186 14.9626 8.85463ZM17.961 10.2271L17.998 10.1895C18.0505 9.91149 18.0591 9.84616 18.1753 9.28337C18.2334 9.01645 18.3536 8.42995 18.41 8.22111C18.517 8.17146 18.6205 8.12282 18.7242 8.12282C18.962 8.12282 18.933 8.33166 18.9236 8.41487C18.9149 8.55476 18.8277 9.01082 18.7367 9.40257L18.6802 9.65542C18.637 9.84234 18.5899 10.0236 18.5483 10.209L18.5664 10.2459C19.0524 10.22 19.1945 10.22 19.6106 10.2271L19.6608 10.1895C19.7338 9.75511 19.7535 9.63894 19.8902 9.007L19.9553 8.71636C20.0855 8.14795 20.1515 7.85992 20.055 7.62516C19.9483 7.36205 19.6978 7.29854 19.4725 7.29854C19.3232 7.29854 19.0492 7.33452 18.8058 7.45471C18.7188 7.50034 18.6315 7.5528 18.5459 7.60546L18.6205 7.31663L18.5805 7.26779C18.0615 7.37311 17.9429 7.38718 17.464 7.45471L17.4272 7.48145C17.3691 7.94313 17.3219 8.29005 17.1154 9.19775C17.0368 9.53221 16.9552 9.86988 16.8736 10.2035L16.8955 10.2459C17.3878 10.22 17.5347 10.22 17.961 10.2271ZM21.5318 10.2458C21.5624 10.0967 21.7439 9.21272 21.7455 9.21272C21.7455 9.21272 21.9 8.56411 21.9095 8.54059C21.9095 8.54059 21.9581 8.47306 22.0068 8.44633H22.0783C22.7535 8.44633 23.5158 8.44633 24.1134 8.00675C24.52 7.70525 24.798 7.26005 24.922 6.71897C24.9542 6.58631 24.9779 6.42853 24.9779 6.27075C24.9779 6.06352 24.9363 5.8585 24.8161 5.69831C24.5114 5.272 23.9046 5.26416 23.2041 5.26094C23.2019 5.26094 22.8588 5.26416 22.8588 5.26416C21.9621 5.27521 21.6026 5.272 21.4548 5.25391C21.4424 5.31923 21.4189 5.43541 21.4189 5.43541C21.4189 5.43541 21.0977 6.92398 21.0977 6.92639C21.0977 6.92639 20.3291 10.0913 20.2929 10.2404C21.0758 10.231 21.3967 10.231 21.5318 10.2458ZM22.127 7.60154C22.127 7.60154 22.4685 6.11598 22.4669 6.12161L22.4779 6.04543L22.4827 5.98734L22.6192 6.00141C22.6192 6.00141 23.3235 6.06191 23.34 6.06352C23.618 6.17105 23.7325 6.44822 23.6525 6.81002C23.5796 7.14066 23.3651 7.41863 23.0895 7.5529C22.8626 7.66666 22.5846 7.67611 22.2982 7.67611H22.1129L22.127 7.60154ZM24.2532 8.88215C24.1629 9.26685 24.0592 9.96953 24.7022 10.22C24.9072 10.3072 25.0909 10.3331 25.2777 10.3237C25.4748 10.313 25.6575 10.2141 25.8268 10.0718C25.8115 10.1303 25.7962 10.1888 25.781 10.2475L25.8101 10.2851C26.2726 10.2656 26.4161 10.2656 26.9172 10.2694L26.9626 10.2348C27.0358 9.80472 27.1047 9.38705 27.2949 8.56417C27.3875 8.17002 27.48 7.77968 27.575 7.38714L27.5602 7.34392C27.0428 7.4398 26.9045 7.4603 26.4069 7.53085L26.3691 7.5616C26.364 7.6016 26.3588 7.63999 26.354 7.67838C26.2766 7.55336 26.1645 7.44663 25.9914 7.3801C25.7701 7.29307 25.2503 7.40523 24.8035 7.81204C24.4896 8.10248 24.3388 8.50045 24.2532 8.88215ZM25.3398 8.90566C25.4505 8.43151 25.5777 8.03033 25.9074 8.03033C26.1158 8.03033 26.2256 8.22268 26.2032 8.5507C26.1856 8.63251 26.1665 8.71874 26.1437 8.81622C26.1108 8.95712 26.075 9.09681 26.0402 9.2367C26.0049 9.33238 25.9637 9.42262 25.9184 9.48272C25.8336 9.60292 25.6318 9.67749 25.5156 9.67749C25.4827 9.67749 25.2793 9.67749 25.2722 9.3776C25.2706 9.22826 25.3014 9.0745 25.3398 8.90566ZM31.014 7.34008L30.974 7.29446C30.4621 7.39817 30.3694 7.41465 29.8991 7.47817L29.8645 7.51274C29.8629 7.51837 29.8615 7.52701 29.8591 7.53485L29.8575 7.52701C29.5073 8.33481 29.5176 8.16055 29.2326 8.7965C29.2309 8.76756 29.2309 8.74947 29.2293 8.71872L29.158 7.34008L29.1132 7.29446C28.5769 7.39817 28.5642 7.41465 28.069 7.47817L28.0304 7.51274C28.025 7.52922 28.025 7.54731 28.0218 7.56701L28.025 7.57404C28.0869 7.89041 28.072 7.81986 28.1341 8.31914C28.1631 8.56415 28.2016 8.81057 28.2306 9.05257C28.2794 9.45758 28.3068 9.65697 28.3665 10.275C28.032 10.827 27.9528 11.0358 27.6308 11.5202L27.633 11.525L27.4063 11.8836C27.3804 11.9214 27.3569 11.9473 27.3239 11.9584C27.2877 11.9763 27.2407 11.9795 27.1754 11.9795H27.0497L26.863 12.6006L27.5036 12.6116C27.8797 12.61 28.116 12.4341 28.2433 12.1978L28.6461 11.5075H28.6396L28.682 11.4589C28.953 10.8756 31.014 7.34008 31.014 7.34008ZM24.2532 15.497H23.9814L24.9872 12.1703H25.3209L25.4268 11.8276L25.437 12.2087C25.4246 12.4443 25.6099 12.6531 26.0967 12.6185H26.6597L26.8534 11.978H26.6416C26.5198 11.978 26.4633 11.9472 26.4704 11.8813L26.4601 11.4936H25.4175V11.4956C25.0805 11.5026 24.0739 11.5279 23.8701 11.5822C23.6234 11.6457 23.3636 11.8326 23.3636 11.8326L23.4657 11.4895H22.4904L22.2872 12.1703L21.268 15.5479H21.0702L20.8762 16.1838H22.8187L22.7535 16.3959H23.7107L23.7742 16.1838H24.0427L24.2532 15.497ZM23.4562 12.8463C23.3 12.8895 23.0094 13.0205 23.0094 13.0205L23.2679 12.1703H24.0427L23.8558 12.7898C23.8558 12.7898 23.6164 12.8039 23.4562 12.8463ZM23.4711 14.0609C23.4711 14.0609 23.2277 14.0914 23.0675 14.1276C22.9097 14.1755 22.6138 14.3262 22.6138 14.3262L22.8808 13.4414H23.6596L23.4711 14.0609ZM23.0369 15.5048H22.2597L22.485 14.7581H23.2598L23.0369 15.5048ZM24.9087 13.4414H26.0291L25.8681 13.9628H24.7329L24.5624 14.5328H25.5557L24.8036 15.5919C24.7509 15.6697 24.7037 15.6972 24.6513 15.7191C24.5986 15.7458 24.5295 15.7772 24.4495 15.7772H24.1739L23.9845 16.4015H24.7053C25.08 16.4015 25.3013 16.231 25.4647 16.0073L25.9804 15.3014L26.0912 16.0182C26.1147 16.1525 26.2112 16.231 26.2765 16.2616C26.3487 16.2978 26.4232 16.3599 26.5286 16.3691C26.6415 16.374 26.7231 16.3778 26.7774 16.3778H27.1315L27.3442 15.6791H27.2045C27.1243 15.6791 26.9862 15.6656 26.9627 15.6405C26.9392 15.61 26.9392 15.5629 26.9265 15.4914L26.8142 14.773H26.3541L26.5559 14.5328H27.6889L27.8632 13.9628H26.8142L26.9776 13.4414H28.0234L28.2173 12.7984H25.0995L24.9087 13.4414ZM15.4462 15.65L15.7077 14.7801H16.7824L16.9788 14.1331H15.9031L16.0673 13.5977H17.1185L17.3132 12.9712H14.683L14.4923 13.5977H15.0898L14.9304 14.1331H14.3313L14.1327 14.7912H14.73L14.3815 15.9421C14.3345 16.0944 14.4036 16.1525 14.4474 16.2233C14.4923 16.2922 14.5377 16.3378 14.6398 16.3638C14.7451 16.3873 14.8173 16.4013 14.9154 16.4013H16.127L16.3428 15.6846L15.8058 15.7584C15.7021 15.7584 15.4148 15.7459 15.4462 15.65ZM15.5695 11.4856L15.2971 11.9779C15.2388 12.0854 15.1864 12.1521 15.1391 12.1829C15.0975 12.2088 15.0151 12.2197 14.8957 12.2197H14.7536L14.5637 12.8494H15.0356C15.2625 12.8494 15.4368 12.7662 15.52 12.7246C15.6095 12.6767 15.633 12.7041 15.7021 12.6373L15.8615 12.4993H17.3352L17.5308 11.8436H16.452L16.6404 11.4856H15.5695ZM17.7451 15.6627C17.72 15.6265 17.7381 15.5628 17.7765 15.4301L18.1793 14.0969H19.6122C19.821 14.0939 19.9718 14.0915 20.0699 14.0844C20.1752 14.0734 20.2897 14.0358 20.4146 13.9683C20.5434 13.8975 20.6093 13.823 20.665 13.7373C20.7271 13.6519 20.8268 13.465 20.9124 13.1767L21.4187 11.4896L19.9318 11.4982C19.9318 11.4982 19.4739 11.5658 19.2723 11.6403C19.0689 11.7235 18.7782 11.9559 18.7782 11.9559L18.9125 11.4934H17.994L16.708 15.7583C16.6624 15.924 16.6318 16.0442 16.6248 16.1163C16.6224 16.1941 16.7229 16.2711 16.788 16.3292C16.865 16.3873 16.9787 16.3778 17.0879 16.3873C17.2026 16.3959 17.3659 16.4013 17.5912 16.4013H18.2971L18.5137 15.6697L17.8818 15.7294C17.8143 15.7294 17.7654 15.6932 17.7451 15.6627ZM18.4392 13.1964H19.9442L19.8486 13.4963C19.8351 13.5034 19.8029 13.4815 19.6498 13.4995H18.3465L18.4392 13.1964ZM18.7407 12.1907H20.2584L20.1492 12.5519C20.1492 12.5519 19.4339 12.5448 19.3193 12.5659C18.8152 12.6532 18.5208 12.9225 18.5208 12.9225L18.7407 12.1907ZM19.8822 14.5006C19.8698 14.5454 19.8501 14.5727 19.8225 14.5932C19.792 14.6129 19.7425 14.62 19.6688 14.62H19.4543L19.467 14.2548H18.575L18.5388 16.0402C18.5374 16.169 18.5498 16.2436 18.6441 16.3033C18.7384 16.3779 19.0288 16.3873 19.4197 16.3873H19.9787L20.1805 15.719L19.6939 15.7457L19.5321 15.7552C19.51 15.7457 19.4889 15.7371 19.4654 15.7136C19.4449 15.6933 19.4103 15.7057 19.4159 15.5769L19.4197 15.1192L19.9301 15.0981C20.2056 15.0981 20.3234 15.0085 20.4239 14.9231C20.5198 14.8413 20.5512 14.7472 20.5873 14.62L20.673 14.2148H19.9717L19.8822 14.5006Z" fill="#FEFEFE"/>
</g>
</g>
</svg>
