<?xml version="1.0" standalone="no"?><!DOCTYPE svg PUBLIC "-//W3C//DTD SVG 1.1//EN" "http://www.w3.org/Graphics/SVG/1.1/DTD/svg11.dtd"><svg t="1744379397394" class="icon" viewBox="0 0 1024 1024" version="1.1" xmlns="http://www.w3.org/2000/svg" p-id="2379" width="18" height="18" xmlns:xlink="http://www.w3.org/1999/xlink"><path d="M511.829 0.935c66.37 0 131.336 12.633 192.494 37.497 63.362 25.665 120.308 63.563 169.233 112.287 48.926 48.925 86.624 105.871 112.288 169.234 24.864 61.357 37.497 126.123 37.497 192.494 0 66.37-12.633 131.337-37.497 192.493-25.666 63.364-63.562 120.308-112.288 169.234-48.925 48.926-105.87 86.623-169.233 112.288-61.358 24.864-126.123 37.496-192.494 37.496-66.37 0-131.337-12.632-192.493-37.496-63.364-25.665-120.309-63.563-169.234-112.288C101.176 825.248 63.48 768.302 37.814 704.94 12.95 643.581 0.318 578.816 0.318 512.446c0-66.371 12.633-131.337 37.496-192.494 25.666-63.363 63.563-120.309 112.288-169.234 48.925-48.925 105.871-86.623 169.234-112.287C380.492 13.568 445.259 0.934 511.829 0.934z m0.803 217.959c-53.538 0-96.649 14.437-129.332 43.111-32.484 28.874-52.134 70.179-58.75 124.319l73.187 8.62c6.416-40.503 19.65-69.978 40.102-89.027 20.253-19.05 45.718-28.473 75.994-28.473 31.482 0 57.95 10.627 79.606 31.48 21.655 20.854 32.483 45.317 32.483 72.988 0 15.239-3.81 29.475-11.03 42.309-7.418 12.832-23.46 30.277-48.122 51.933-24.664 21.856-41.707 38.298-51.131 49.727-12.833 15.64-22.257 31.08-28.072 46.32-7.82 20.25-11.83 44.513-11.83 72.384 0 4.812 0.2 11.83 0.4 21.455h68.376c0.6-28.473 2.406-49.125 6.015-61.758 3.41-12.632 8.823-23.86 15.84-33.686s22.259-24.864 45.518-45.517c34.488-30.678 57.748-56.545 69.579-78 11.83-21.254 17.845-44.715 17.845-69.979 0-43.713-16.843-81.208-50.73-112.087-34.088-30.68-79.204-46.12-135.948-46.12z m-0.602 499.68c-24.062 0-43.713 19.45-43.713 43.713 0 24.062 19.45 43.712 43.713 43.712 24.061 0 43.712-19.45 43.712-43.712-0.2-24.062-19.65-43.711-43.712-43.711z" fill="#B0CAE7" p-id="2380"></path></svg>