<svg width="43" height="26" viewBox="0 0 43 26" fill="none" xmlns="http://www.w3.org/2000/svg">
<g id="&#229;&#155;&#189;&#229;&#134;&#133;&#228;&#186;&#164;&#230;&#152;&#147;&#228;&#184;&#128;&#232;&#136;&#172;&#230;&#148;&#175;&#228;&#187;&#152;&#229;&#185;&#179;&#229;&#143;&#176;">
<g id="Group 383">
<path id="path3789" d="M26.1684 7.5C23.8608 7.5 21.7986 8.69871 21.7986 10.9134C21.7986 13.4533 25.456 13.6287 25.456 14.9047C25.456 15.4419 24.8417 15.9228 23.7924 15.9228C22.3033 15.9228 21.1903 15.2509 21.1903 15.2509L20.7141 17.4857C20.7141 17.4857 21.9962 18.0534 23.6984 18.0534C26.2214 18.0534 28.2067 16.7958 28.2067 14.5432C28.2067 11.8594 24.534 11.6892 24.534 10.5049C24.534 10.084 25.0384 9.62289 26.0846 9.62289C27.2651 9.62289 28.2283 10.1116 28.2283 10.1116L28.6943 7.95309C28.6943 7.95309 27.6463 7.5 26.1684 7.5ZM5.05588 7.66291L5 7.98872C5 7.98872 5.97082 8.16679 6.84521 8.52199C7.97105 8.9293 8.05125 9.16642 8.24086 9.90289L10.307 17.8854H13.0767L17.3437 7.66291H14.5803L11.8386 14.6132L10.7198 8.72181C10.6172 8.04754 10.0974 7.66291 9.46126 7.66291H5.05588ZM18.4549 7.66291L16.2871 17.8854H18.9222L21.0824 7.66291H18.4549ZM33.1518 7.66291C32.5163 7.66291 32.1797 8.00385 31.9326 8.59963L28.0721 17.8854H30.8354L31.3701 16.3378H34.7366L35.0617 17.8854H37.5L35.3729 7.66291H33.1518ZM33.5112 10.4247L34.3303 14.2607H32.1358L33.5112 10.4247Z" fill="#0057A0"/>
</g>
</g>
</svg>
